<?xml version="1.0" encoding="UTF-8"?>
<svg xmlns="http://www.w3.org/2000/svg" version="1.1" viewBox="0 0 684 684">
  <defs>
    <style>
      .cls-1 {
        fill: #5c9ec9;
      }

      .cls-1, .cls-2 {
        stroke-width: 0px;
      }

      .cls-2 {
        fill: #1e2a3e;
      }
    </style>
  </defs>
  <g id="water-stroke">
    <path class="cls-2" d="M358.24,148.51c1.23,1.29,1.71,2.81,2.4,4.21,11.76,24.01,22.53,48.48,34.21,72.52,13.75,28.3,28.44,56.1,43.68,83.63,11.24,20.3,22.08,40.88,30.58,62.54,4.64,11.82,7.94,24.07,10.79,36.43,2.25,9.79,3.63,19.7,3.41,29.74-.35,15.76-3.09,31.08-9.19,45.73-5.09,12.22-11.64,23.56-20.19,33.68-9.65,11.44-21.32,20.47-33.98,28.36-15.73,9.81-32.89,15.01-51.21,16.86-17.53,1.77-34.5-.85-51.13-6.36-14.21-4.71-27.15-11.74-38.8-21.12-12.97-10.44-22.83-23.4-30.73-37.97-4.88-9-8.54-18.45-11.07-28.37-3.09-12.15-3.96-24.45-3.16-36.93,1.17-18.04,5.06-35.51,10.55-52.69,3.97-12.4,9.52-24.08,15.29-35.69,8-16.09,16.73-31.78,25.64-47.37,9.37-16.4,18.31-33.03,26.64-49.98,6.45-13.13,12.5-26.43,18.47-39.78,7.37-16.47,14.74-32.95,22.83-49.09,1.04-2.07,1.67-4.32,2.98-6.26.51-.75.83-1.66,1.98-2.09ZM248.55,408.68c-.71-.44-.47-1.09-.32-1.68.22-.86.52-1.7.78-2.55.62-1.45,1.23-2.91,2.77-3.66.45-.22.66-.61.87-1.03,1.17-2.38,1.7-4.91,2-7.6-3.13.82-2.59,3.98-4.25,5.64.6-2.3-.42-5.29,2.98-6.37.71-.23.9-1.04,1.09-1.81.51-2.07,1.26-4.09,2.46-5.84,1.8-2.63,2.92-5.53,3.89-8.53.37-1.15.62-2.4,1.61-3.28-.61,2.38-1.12,4.77-2.15,7.01-1.23,2.68-2.39,5.39-3.14,8.25-1.2,4.54-2.29,9.11-3.58,13.63-1.6,5.61-2.99,11.23-3.34,17.09-.32,5.44-.81,10.87-1.23,16.31-.98-.64-.64-1.66-.65-2.52-.04-3.47-.02-6.94-.02-10.2-1.02,3.74-.8,7.81-.92,11.84-.02.82.07,1.71,1.2,1.86.13,1.39.26,2.77.39,4.16l-.84-.04c-.38-2.52-2.07-4.51-2.85-6.86-.48-1.46-1.45-2.17-3.19-2.65.98,2.29,1.89,4.25,2.97,6.14,2.77,4.84,5.14,9.82,4.81,15.62-.71-.3-1.4-.64-1.15-1.6.48-1.83-.22-3.49-.86-5.1-1.39-3.54-3.36-6.8-5.26-10.08-.11-.19-.32-.46-.77.03,1.14,3.33,2.31,6.77,3.59,10.51-1.77-.97-1.49-3-3.26-4.02.5,3.58,1.06,6.77,1.37,9.97,1.76,18.1,8.29,34.52,18.11,49.61,15.89,24.41,38.2,40.19,66.28,47.73,12.05,3.24,24.37,4.39,36.86,3.6,7.41-.47,14.75-1.38,21.94-3.24,17.92-4.61,33.64-13.34,47.42-25.62,3.8-3.39,7.54-6.87,10.83-10.76.91-1.08,2.26-2.02,2.04-3.75.64.23.73-.4,1-.69,8.24-9.01,13.91-19.56,18.5-30.76,3.79-9.25,5.54-18.97,6.64-28.85,1.02-9.25,1.25-18.46-.2-27.69-2-12.74-4.95-25.25-9.37-37.37-3.61-9.9-6.42-20.11-11.55-29.42-1.34-2.43-2.62-4.89-3.89-7.36-4.81-9.39-9.49-18.84-14.53-28.11-8.96-16.5-18.34-32.78-26.96-49.47-11.13-21.54-21.58-43.41-32.13-65.23-5.08-10.49-9.54-21.27-14.87-31.64-.45-.88-.76-1.86-1.7-2.72-.71,1.34-1.4,2.5-1.97,3.72-6.76,14.59-13.54,29.17-20.25,43.79-8.49,18.48-16.84,37.02-26.64,54.86-9.22,16.78-18.35,33.61-27.55,50.4-2.97,5.43-6.22,10.72-8.47,16.52-.1.25-.18.58-.37.72-2.65,1.87-3.46,4.92-4.81,7.59-.86,1.69-2.1,3.31-1.99,5.39-1.53,1.12-1.59,3-2.34,4.52-.29.02-.42.18-.44.46-1.85,1.91-2.53,4.41-3.47,6.78-3.04,5.6-4.77,11.73-6.96,17.67-.37,1.02-.43,2.3-.14,3.53,1.17-.55,1.44-1.71,1.47-2.55.08-2.08,1.21-3.32,2.72-4.41.33.3.86.65.32,1.09-2.72,2.22-2.93,5.6-4,8.57-.25.69-.16,1.54-1.22,2.2v-3.62c-1.83,5.77-2.72,11.68-3.7,17.56-.49,1.57-.77,3.15-.44,4.79-.17,2.2-.81,4.36-.74,6.69.97-.27,1.34-.8,1.6-1.37,1.33-2.95,1.76-6.15,2.55-9.24.1-.38-.02-.69-.5-.77-.36-.06-.55.16-.64.38-.51,1.27-.98,2.56-1.46,3.84ZM243.05,427.86c.32,1.2,1.19,1.8,2.06,2.23,1.1.54.54,2.14,1.77,2.51.06-.21.18-.4.14-.55-1.18-4.88-.47-9.51,1.66-14,.36-.75.7-1.63.16-2.88-3.42,4.09-3.15,8.73-3.28,13.3-.78.05-1.32-.91-2.52-.6ZM250.61,404.64c1.14-.99,1.44-1.85,1.13-3.17-.5,1.04-1.3,1.71-1.13,3.17Z"/>
    <path class="cls-2" d="M446.77,508.76c-2.24-1.03-3.39-3.37-5.47-4.57-.79.43-1.33,1.08-1.84,1.73-7.42,9.34-17.02,16.12-26.74,22.77-10.61,7.26-22.54,10.96-35,13.33-9.52,1.81-19.13,2.04-28.76,1.52-8.28-.44-16.15-2.85-24.01-5.38-9.95-3.21-19.24-7.74-27.81-13.64-14.45-9.94-25.62-22.85-33.93-38.28-4.07-7.56-6.74-15.61-8.98-23.84-.75-2.76-1.34-5.57-2.51-8.2,0-2.96-.49-5.88-.85-8.8-.91-7.41-.27-14.73.58-22.1,1.17-10.15,3.68-19.97,6.58-29.72.77-2.58,1.85-5.02,2.88-7.49,3.03-7.24,5.47-14.71,8.63-21.91,2.75-6.27,5.85-12.35,9.43-18.18.18-.3.34-.67.77-.71-.08,1.68.72,3,1.77,4.2,1.42,1.65,2.91,3.23,4.61,4.46,1.43-1.33,1.02-2.52-.09-3.64-1.29-1.3-2.68-2.51-3.85-3.9-.72-.85-1.62-.83-2.49-1.07.47-2.6,2.06-4.7,3.23-6.96,4.8-9.23,10.02-18.23,15.34-27.17,0,0,.18.17.18.17l.24-.06c-.18.79.23,1.18.93,1.44,2.67,1.02,5.26,2.45,8.02,2.99,3.34.66,6.32,2,9.34,3.4,15.28,7.1,29.9,15.44,44.27,24.2,6.01,3.66,11.98,7.34,18.38,10.28.53.24,1.04.84,1.76.38.46-1.25-1.05-1.79-1.03-2.98.02-1.59-1.04-2.72-2.26-3.63-1.26-.94-2.54-1.86-3.85-2.72-3.94-2.6-8.32-4.48-12.25-7.07-7.88-5.21-16.28-9.52-24.42-14.28-5.91-3.45-12.41-5.73-18.46-8.92-5.37-2.84-11.48-4.17-16.31-8.09-.07-.06-.16-.1-.24-.13-.49-.21-.97-.12-1.18.35-.21.46.05.89.49,1.15-.57.51-1.34.34-1.99.57.77-1.24,1.53-2.48,2.29-3.72.24.18.47.37.71.55,1.7,1.91,3.97,2.96,6.23,4,9.45,4.35,19.01,8.46,28.33,13.06,6.43,3.17,12.52,7.01,18.77,10.54,3.4,2.55,6.97,4.84,10.83,6.62,2.61,1.21,5.06,2.68,7.55,4.09.96.54,1.83,1.33,3.23,1.35-.68-.86-1.04-1.66-.76-2.66.09-.32-.3-.64-.69-.75-.2-.53-.4-1.05-.6-1.58.03-.48-.24-.65-.67-.63-.19-.6-.61-1.05-.76-1.72-.36-1.56-1.34-2.71-2.84-3.51-16.34-8.62-32.59-17.42-49.54-24.8-1.69-.74-3.4-1.47-5.16-2.01-4.3-1.33-7.98-3.82-11.79-6.08-.7-.42-.95-.83-.38-1.61,5.19,4.11,11.37,6.27,17.32,8.94,8.67,3.9,17.37,7.75,25.75,12.27,7.72,4.16,15.58,8.07,23.38,12.09,1.06.55,2.12,1.12,3.56,1.04-.38-3.72-2.09-6.35-5.61-7.76-7.31-2.94-14.14-6.8-20.9-10.8.1-.31.04-.59-.18-.83,7.73,4.4,15.58,8.57,23.93,11.7.14.21.35.39.57.18.22-.21.02-.42-.17-.57-.58-2.4-.86-4.91-2.5-6.94.4-2.36-1.6-2.67-3-3.47-.47-.27-1.04-.38-1.56-.56-3.5-1.2-6.97-2.45-10.34-3.99-4.45-2.04-8.86-4.22-13.42-5.96-10.61-4.06-20.86-9-31.53-12.91-.28-.25-.56-.51-.85-.76.11-.14.21-.29.3-.44,0,0,.21.08.21.08,0,0,.21-.06.22-.06,1.86.81,3.69,1.72,5.6,2.4,9.56,3.42,18.51,8.34,28.18,11.52.78.26,1.53.65,2.27,1.02,6.74,3.26,13.66,6.1,20.8,8.36.99.31,1.99.87,3.21.57-.15-2.5-.88-4.43-3.27-5.37-.77-.3-1.49-.74-2.25-1.08-10.39-4.57-20.74-9.19-30.78-14.52-6.1-3.24-12.53-5.88-18.81-8.78-.64-.84-1.49-.54-2.3-.41.28-.52.55-1.04.83-1.56.24.08.48.15.71.23,1.05,1.1,2.47,1.59,3.79,2.22,5.4,2.59,10.89,5.01,16.22,7.74,10.27,5.26,20.75,10.04,31.44,14.38.94.38,1.94,1.1,3.08.62.17-2.27-1.09-3.42-2.78-4.44-5.64-3.38-11.72-5.88-17.73-8.43-8.75-3.72-17.15-8.16-25.94-11.76-2.2-.9-4.29-2.13-6.72-2.42-.26-.13-.52-.25-.78-.38,3.08-6.22,6.94-12.03,9.75-18.38.3.07.59.14.89.2.26.61.85.63,1.37.79,3.69,1.17,7.35,2.5,10.91,3.95,5.64,2.3,11.34,4.45,16.94,6.83,2.77,1.18,5.53,2.48,8.73,2.86.38-2.05-.17-3.47-2.05-4.37-4.16-1.99-8.31-4.03-12.47-6.03-.31-.15-.72-.1-1.09-.14-.1-.39-.15-.83-.66-.92-1.38-1.27-3.12-1.96-4.78-2.73-3.68-1.7-7.01-4-10.48-6.05-2.49-1.47-2.38-1.66-3.71.88-.07.13-.03.32-.05.51,1.33.85,2.81,1.35,4.28,1.88,1.9.69,3.87,1.22,5.56,2.39-.22.12-.44.24-.66.36-3.11-1.15-6.22-2.32-9.33-3.45-.22-.08-.52.06-.78.1l-.72-.38c5.57-10.33,10.54-20.96,15.67-31.51.3-.61.36-1.43,1.24-1.58-.17,1.17.09,2.15,1.11,2.91.96.71,1.82,1.57,2.79,2.27,3.98,2.83,8.15,5.39,11.81,8.66.17.15.36.06.49-.23.18-1.3-.74-2.11-1.62-2.91-4.11-3.74-8.84-6.67-13.11-10.21-.49-.41-1.03-.27-1.54-.42-.35-1.11.4-1.93.81-2.82,4.01-8.85,8.05-17.68,12.06-26.52.64-1.42,1.21-2.88,1.83-4.37.76.76,1.09,1.65,1.41,2.5,4.7,12.29,11.06,23.81,16.7,35.66,9.7,20.38,20,40.46,30.65,60.36,7.2,13.46,14.98,26.61,22.45,39.92,6.29,11.22,12.41,22.55,17.22,34.49,4.08,10.12,8.41,20.13,11.72,30.56,7.25,22.84,7.74,45.87,2.25,69.07-2.47,10.42-6.8,20.14-12.13,29.4-1.52,2.63-3.46,5.04-5.32,7.45-.87,1.13-1.12,1.82.14,2.92,1.45,1.26,2.6,2.88,3.87,4.34ZM345.37,517.6h.04c-.7-.61-1.54-.63-2.4-.53l-.2-.04c-.38-.48-.97-.48-1.49-.64-6.27-2-12.36-4.37-18.19-7.49-10.58-5.67-19.73-13.09-27.83-21.87-7.37-7.99-11.8-17.64-15.49-27.69-2.27-6.18-3.75-12.59-5.48-18.93-.35-1.3-.58-2.68-1.55-3.85-.55.96-.17,1.74,0,2.52.89,3.97,1.79,7.95,2.68,11.92,3.6,16.06,10.53,30.37,22.09,42.29,11.7,12.06,26,19.74,41.85,24.79.49.16,1.05.44,1.53-.09,1.37,1.01,3,1.14,4.59,1.41l.13.2.2-.11c11.26,2.07,22.58,2.64,34.01,1.55,16.59-1.58,30.6-8.76,43.03-19.45,1.01-.87,2.27-1.61,2.6-3.08.68.29,1-.28,1.38-.61,2.49-2.23,4.85-4.6,6.78-7.31,5.05-7.08,9.56-14.52,13.15-22.46,1.93-4.27,4.06-8.52,4.72-13.27.4-2.83.74-5.68,1.29-8.48,1.07-5.46,1.59-10.96,1.7-16.52.29-14.34-2.16-28.14-7.99-41.28-.9-2.03-1.99-3.97-2.88-6-3.19-7.28-6.09-14.67-8.74-22.16-.74-2.08-1.51-4.15-2.26-6.23.88,1.73,2,3.38,2.59,5.21,2.41,7.41,5.75,14.45,8.84,21.56,3.61,8.33,7.3,16.55,9.24,25.51,2.31,10.69,3.45,21.35,1.74,32.24-.67,4.3-1.92,8.52-2.39,12.81-.75,6.83-2.9,13.19-5.69,19.35-3.56,7.87-7.94,15.33-13.53,21.92-4.84,5.71-10.11,11.09-16.45,15.24-2.71,1.77-5.41,3.58-8.2,5.22-9.64,5.66-19.76,10.18-30.9,11.92-7.7,1.21-15.45,1.56-23.26.92-8.28-.68-16.31-2.25-23.95-5.59-3.14-1.37-6.27-2.75-9.43-4.08-3.94-1.66-7.63-3.79-11.21-6.1-7.94-5.15-14.42-11.83-20.31-19.18-10.4-12.97-17.87-27.23-19.6-44.03-.73-7.09-1.26-14.2-.45-21.35.25-2.19.95-4.36.57-6.61.62-6.83,2.36-13.45,4-20.07,1.87-7.53,4.21-14.92,7.31-22.07,2.86-6.61,5.81-13.17,8.93-19.66.18.22.37.44.55.66-.11.9.6.98,1.19,1.23,3.4,1.44,6.81,2.85,10.17,4.36,4.88,2.19,9.82,4.26,14.55,6.73,4.16,2.18,8.13,4.75,12.07,7.33,3.11,2.04,6.29,3.85,9.82,5.05,1.57.54,3.06,1.28,4.6,1.9,1.73.7,3.33,1.58,4.49,3.1-.27.11-.35.3-.26.57-1.66-1.82-3.77-2.8-6.07-3.65-4.15-1.53-8.34-2.99-11.97-5.69-7.14-5.32-15.18-9.1-23.22-12.79-4.43-2.04-8.99-3.86-13.52-5.72-2.34-.96-2.61-.77-3.74,1.58-.55,1.15-.53,1.71.83,2.26,4.45,1.79,8.85,3.69,13.21,5.7,9.6,4.41,18.78,9.51,27.5,15.44,1.61,1.09,3.26,2.1,5.12,2.73,3.68,1.25,7.17,2.96,10.7,4.56,8.5,3.85,16.78,8.17,25.59,11.31,2.78.99,5.69,1.61,8.39,2.86.31.35.18.59-.2.76-8.85-2.14-17.02-6.02-25.22-9.82-2.59-1.2-5.3-2.16-7.84-3.46-3.78-1.93-7.46-4.03-11.52-5.35-1.58-.51-3.06-1.3-4.42-2.28-6.9-4.98-14.32-9.08-21.86-12.99-5.81-3.01-11.81-5.61-17.89-8.03-3.38-1.35-3.37-1.39-4.72,1.81-.48.28-.49.58-.06.92.17.1.35.2.52.3-.14.1-.2.23-.18.4-1.94.48-2.1,2.05-2.22,3.63-.19.28-.38.57-.57.85-.9,2.09-1.84,4.16-2.67,6.27-.63,1.6-1.6,3.08-1.74,4.85-1.06,1.12-.87,2.72-1.54,4.01-.4.76.2,1.36.77,1.88,3,2.73,5.98,5.5,9.62,7.39.69.36,1.62,1.54,2.35.37.6-.98-.48-1.63-1.23-2.14-.84-.57-1.72-1.07-2.58-1.6-1.76-1.09-3.53-2.19-5.29-3.29.92.18,1.74.54,2.51.98,2.15,1.24,4.28,2.52,6.43,3.79.45.27.86.74,1.45.23,1.41-1.23,1.29-3.6-.35-4.6-1.88-1.15-3.86-2.14-5.78-3.24-.42-.24-1.15-.29-.97-1.1,2.97,1.37,5.89,2.84,8.8,4.63.3-.87.54-1.55.78-2.23.48-.19.51-.46.15-.8-.16-.29-.31-.58-.47-.86.49-.04.96-.13,1.25-.6.12-.25.23-.5.37-.74.25-.41.56-.81,1.07-.41.45.36.04.71-.2.89-.74.56-.81,1.43-1.04,2.19-2.22,7.33-4.33,14.67-4.88,22.39-.38,5.34-1.3,10.63-1.72,15.97-.59,7.51.51,14.93,1.58,22.33,0,.46-.04.92.03,1.36.63,4.14,1.88,8.11,3.39,12,1.48,3.82,2.77,7.72,4.6,11.42-2.19-2.59-3.81-5.48-5.2-8.52-3.28-7.14-5.02-14.7-6.14-22.42-.6-4.12-1.88-7.9-4.37-11.25-.61-.82-1.14-1.69-1.64-2.57-2.6-4.56-6.13-8.47-8.96-13.48-.47,2.84-.14,4.82,1.42,6.68,3.95,4.72,7.29,9.81,8.94,15.84,1.46,5.36,3.08,10.67,4.41,16.06,2.45,9.92,7,18.67,14.05,26.1.39.42.97.78.93,1.65-5.73-4.51-12.22-14.49-14.2-22.3-1.36-5.39-3.26-10.61-4.58-16-2.03-8.25-6.04-15.42-11.59-22.02-.5,1.94.36,3.46,1.12,4.96.67,1.32,1.44,2.58,2.15,3.88,5.02,9.16,7.95,19.14,11.06,29.01,2.96,9.38,7.66,17.67,14.74,24.47,6.88,6.61,14.19,12.72,22.25,17.91,16.49,10.63,34.41,13.99,53.65,10.98,11.14-1.74,21.71-5.4,32-9.91.74-.33,1.58-.58,1.99-1.41,7.95-5.82,14.37-13.03,19.48-21.43.89-.74,1.18-1.85,1.72-2.81,4.03-7.24,6.43-15.12,9.14-22.9,3.31-9.5,4.68-19.21,4.03-29.22-.18-2.7-.19-5.47-1.44-8.23-.1,2.56.03,4.87.15,7.18.29,5.73.51,11.5-.6,17.17-2.61,13.33-6.94,26.06-13.46,38.01-1.63,2.11-3.27,4.2-4.88,6.32-3.96,5.22-8.61,9.77-13.54,14.06-1.83.86-3.54,2-5.55,2.43-3,.63-5.82,1.79-8.66,2.87-1.03.39-2.13.96-3.17.9-1.94-.1-3.53.74-5.23,1.35-.52.19-1.05.36-1.58.52-12.42,3.57-25.02,4.64-37.81,2.44-9.47-1.63-18.47-4.39-26.19-10.49-2.74-2.16-6.03-3.58-8.61-6l-.04.03c1.24-.05,2.02.86,2.87,1.51,7.78,5.99,16.29,10.5,25.82,13.01,14.04,3.7,28.01,3.04,41.9-.78,2.84-.78,5.7-1.81,8-3.73,3.04-2.54,6.51-4.16,10.13-5.62,2.81-1.14,5.62-2.34,8-4.3.47-.27.95-.53,1.42-.8.05,1.29-1.11,1.59-1.84,2.21-2.99,2.58-6.63,3.98-10.17,5.57-2.17.97-4.3,2.02-5.96,3.81.41.39.78.34,1.12.19,3.54-1.58,7.13-3.09,10.61-4.8,3.03-1.49,5.44-3.83,7.54-6.45,1.05-1.31-.26-.9-.86-.93,3.96-2.94,7.13-6.68,10.58-10.14,2.77-2.79,4.9-5.99,6.66-9.47,2.8-4.15,4.84-8.71,6.68-13.32,3.48-8.73,5.78-17.72,5.4-27.25-.14-3.41-.03-6.84-.04-10.26-.01-2.31-.03-4.63-.08-6.94-.01-.62.08-1.36-.83-1.5.2-1.96-.08-3.88-.37-5.8-1.17-7.63-3.4-14.97-6.13-22.17-5.28-13.89-12.4-26.87-19.68-39.77-5.81-10.32-11.74-20.56-17.02-31.18-8.49-17.05-14.7-34.96-20.51-53.01-3.12-9.69-5.51-19.6-7.61-29.57.16-2.43-1.24-4.48-1.36-6.99-.34.27-.47.32-.46.37.16,2.23.33,4.47.88,6.65.12,1.01.24,2.02.37,3.03,2.07,16.19,5.47,32.09,10.39,47.64,6.11,19.3,14.84,37.42,24.96,54.92,8.47,14.64,16.77,29.39,23.44,44.98,4.89,11.43,8.67,23.19,10.82,35.46-.08.61-.31,1.45.63,1.38.57-.04.51-.82.36-1.35.05-.31.09-.62.14-.93.14.33.43.67.4.99-.47,5.08.66,10.09.75,15.15.14,7.59-1.39,14.83-3.85,21.96-2.06,5.95-5.17,11.41-7.79,17.1-1.66,2.45-2.92,5.22-5.01,7.32-4.44,4.46-9.04,8.76-13.57,13.13-.91.44-1.81.89-2.72,1.33-5.57,2.65-11.69,4.15-16.66,8.05-.61.48-1.7,1.06-2.32.61-1.55-1.12-2.94-.27-4.4-.06-4.03.57-8.06,1.14-12.14.99-5.83-.21-11.56-1.16-17.27-2.4-15.76-3.4-28.99-11.38-40.58-22.26-8.5-7.98-13.62-18.08-17.21-29.05-.66-2.01-.95-4.13-1.91-6.04-2.66-19.28-3.03-38.47,2.24-57.46,4.12,1.6,7.99,3.74,11.86,5.89.2.82,1.24,1.02,1.44,2.09-4.33-2.3-8.06-5.53-12.91-6.74-.31,1.41-.05,2.55-.55,3.6-.51,1.09-.09,1.88.95,2.52,2.43,1.52,4.79,3.14,7.19,4.7,1.31.86,2.63,1.71,3.98,2.5,1.44.84,2.89,1.63,4.17,2.72,1.1.94,2.35,1.72,3.29,2.85-6.24-4.74-13.21-8.28-19.77-12.65q-1.37,5.22,2.49,7.93c.6.42,1.24.8,1.85,1.22,2.38,1.64,4.84,3.17,7.13,5.65-4.36-3.09-8.34-5.91-12.47-8.84-.59,3.28,2.59,3.19,3.94,5.05-1.44-.74-2.55-1.31-3.5-1.8-.54.24-.53.55-.51.81.04.45.15.9.23,1.35-.41.67-.62,1.48.05,1.95.6.42,1.28,1.62,1.95,1.01.92-.84-.49-1.22-.88-1.8-.2-.3-.46-.55-.69-.83,8.4,4.65,14.7,11.43,19.88,19.38-1.77-1.64-3.13-3.63-4.62-5.51-3.36-4.26-7.53-7.61-11.79-10.88-.48-.37-1.1-1.02-1.65-.3-.51.66.23,1.16.65,1.6.83.87,1.7,1.7,2.55,2.55,3.44,3.48,7.02,6.84,9.87,10.86-.78.01-1.11-.61-1.47-1.11-3.91-5.5-9.57-9.26-13.99-14.44-.87,3.35-.84,3.56.77,5.74.54.74,1.06,1.5,1.58,2.25-.11.11-.2.23-.3.35-1.09-.53-1.51-1.78-2.7-2.6-.22,3.24.16,5.91,3.21,7.44.49.25.94.58,1.39.91,2.01,1.47,4.2,2.74,5.81,4.69,6.72,8.16,12.64,16.86,17.32,26.36,2.37,4.81,4.56,9.71,7.74,14.08,1.04,1.43,2.12,2.83,3.69,3.98.2-.95-.34-1.28-.59-1.74-2.42-4.37-4.91-8.72-6.28-13.55-1.75-6.17-4.19-12.02-7.19-17.68-.9-1.69-2.09-3.29-2.35-5.28.25.27.57.5.74.81,3.21,5.94,6.53,11.85,8.84,18.21,2.68,7.39,6.45,14.14,11.35,20.25,5.11,6.37,10.49,12.48,17.35,17.09,1.52,1.02,3.08,1.92,4.91,2.77-.11-.47-.09-.7-.19-.77-.45-.32-.92-.62-1.41-.88-3.61-1.97-6.74-4.58-9.63-7.46-4.14-4.13-7.77-8.7-11.13-13.47-2.35-3.34-4.61-6.79-5.84-10.69-1.53-4.87-3.45-9.57-5.49-14.23-1.3-2.96-2.63-5.9-3.95-8.85,1.83,1.42,2.41,3.64,3.46,5.55,1.54,2.79,2.72,5.76,4.07,9.07.6-1.87-.43-3.18-.03-4.71.55.78.69,1.58.9,2.37.46,1.69.81,3.45,1.52,5.04,2.68,6.03,6.06,11.63,10.31,16.73,3.05,3.66,6.77,6.58,10.18,9.84.86.82.82,2.07,1.91,2.66,4.66,2.49,9.36,4.86,14.53,6.14.54.13,1.14.42,2.03-.11-4.78-1.6-9.2-3.17-13.34-5.44-1.39-.76-2.7-1.62-3.69-2.89-1.14-1.47-2.53-2.69-3.85-3.99-7.48-7.34-12.68-16.11-15.8-26.07-1.55-4.94-2.75-9.98-4.05-15-.71-2.75-1.31-5.53-2.01-8.54,1.13.87,1.26,1.93,1.53,2.88,1.77,6.32,3.52,12.65,5.24,18.99,1.38,5.06,3.64,9.57,6.97,13.73,5.53,6.9,11.96,12.61,19.73,16.79.6.32,1.18,1.06,2.21.62-1.02-1.13-2.18-1.72-3.26-2.41-5.93-3.77-11.22-8.18-14.7-14.45-1.26-2.27-2.5-4.54-3.84-6.76-1.54-2.57-2.63-5.31-3.27-8.22-1-4.53-2.51-8.89-4.41-13.11-1.37-3.04-2.6-6.13-3.47-9.35-.07-.26-.19-.32-.39-.15-.53.46-.05,1.15-.35,1.68-.59-1.77-1.42-3.55-1.32-5.36.13-2.41-.96-4.24-2.05-6.13-.95-1.65-2.01-3.24-3.23-5.2,3.75,4.32,6.41,8.77,7.84,13.94.91,3.3,2.09,6.52,3.39,9.69,2.08,5.06,4.15,10.12,7.76,14.34,3.61,4.22,7.11,8.54,11.06,12.46,8.57,8.5,18.98,13.69,30.46,16.95.86.24,1.86.7,2.86.05-.48-.66-1.08-.66-1.58-.78-11.79-2.82-21.6-9.05-30.08-17.51-9.08-9.05-15.1-20.05-19.87-31.79-1.08-2.64-1.75-5.45-2.61-8.18,1.44,1.83,1.94,3.99,2.56,6.11.55,1.86.98,3.77,1.87,5.51,5.4,10.62,11.81,20.48,20.75,28.58,5.58,5.05,11.57,9.21,18.92,11.16.87.23,1.72.53,2.72.17-.84-.8-1.87-1-2.8-1.33-11.5-4.05-19.96-11.74-26.43-21.87-1.79-2.81-3.19-5.85-5.22-8.52-3.16-4.18-5.43-8.81-6.86-13.85-1.14-4.01-2.72-7.86-4.48-11.63-.17-.37-.82-.72-.23-1.29.19.24.37.45.52.69,2.51,3.96,3.73,8.44,5.08,12.86,1.23,4.02,2.88,7.82,5.4,11.19,1.95,2.59,3.76,5.27,5.56,7.97,3.25,4.87,6.85,9.43,11.59,13,4.54,3.41,9.34,6.35,14.56,8.58,4.4,1.88,8.96,3.03,14.21,2.54-2.66-.95-5.12-.75-7.42-1.47-2.19-.69-4.53-1.01-6.52-2.82,1.15-.13,1.91.18,2.72.37,3.16.72,6.36,1.24,9.61,1.2.58,0,1.27.05,1.41-1-4.87-.42-9.61-1.13-14.34-2-1.47-.27-2.84-.51-4.16-1.19-7.05-3.61-12.57-9.03-17.66-14.95.07-.09.15-.19.23-.28.6.34,1.21.67,1.81,1.01.25.48.64.82,1.12,1.06.76.76,1.37,1.74,2.59,1.87,1.08.67,2.12,1.36,3.11,2.19,2.41,2.03,5.01,3.81,7.7,5.45,1.75,1.06,3.59,1.94,5.61,2.35,2.72.55,5.44,1.12,8.18,1.53,1.55.23,3.14.2,4.71.24.41,0,1,.11,1.09-.54.1-.72-.45-.93-1-1.07-.27-.07-.55-.09-.83-.09-2.8,0-5.5-.7-8.23-1.2-4.83-.9-9.1-2.92-12.94-6.02-2.71-2.19-4.74-4.92-6.88-7.59-4.01-5.01-7.48-10.29-9.57-16.47-2.05-6.06-4.94-11.77-8.1-17.33-2.84-5-5.73-9.96-10.35-13.6-.19-.15-.23-.47-.34-.72,2.47,1.79,4.69,3.85,6.8,6.04,1.38,3.24,3.64,5.94,5.51,8.88.61.95,1.76,1.2,2.86,1.54,11.84,3.64,23.89,6.47,35.93,9.31,6.3,1.49,12.58,3.06,19.06,3.55.82.06,1.78.51,2.77-.86-4.22-.52-8-1.49-12.14-3.34,3.92.7,7.25,1.35,10.66,1.62-.05-1.35-.83-1.55-1.71-1.63-2.77-.24-5.53-.5-8.3-.69-4.36-.31-8.43-1.82-12.57-3.09,6.91,1.48,13.84,2.7,21.03,2.58-.2-.93-.63-1.57-1.49-1.35-1.89.49-3.68-.18-5.51-.33-1.41-.12-2.9-.3-4.33-1.5,2.9-.24,5.3,1.15,7.91.7-8.71-1.84-17.27-4.2-25.64-7.19,8.7,2.16,17.28,4.84,26.48,5.73-.61-1.34-1.25-2.26-2.54-2.65-5.49-1.63-10.94-3.44-16.57-4.54-4.72-.93-9.44-1.82-14.12-2.9-1.41-.32-2.69-.51-4.04.02-4.37-1.65-8.7-3.41-13.11-4.92-4.02-1.38-7.86-3.05-11.35-5.5.1-.26.2-.52.3-.77,6.09,4.06,13.29,5.6,19.78,8.75.94.72,1.91,1.35,3.5.78-1.37-.72-2.42-1.35-3.69-1.51q-3.77-1.99-4.38-3.42c1.44.75,2.61,1.43,3.85,2,3.34,1.53,6.54,3.36,10.25,4.04,9.25,1.7,18.55,3.2,27.58,5.96.68.21,1.53.77,2.24-.07-.23-.4-.71-.84-.64-1.18.41-2.14-1.04-2.44-2.54-2.76-5.51-1.18-10.9-2.83-16.29-4.45-1.26-.8-2.51-1.6-3.77-2.41.09-.23.19-.47.28-.7,3.17,2.27,6.76,3.49,10.55,4.2.11.31.31.38.59.2.69.18,1.38.36,2.07.54,2.66.96,5.44,1.37,8.85,2.04-1.17-1.04-.78-2.25-1.86-2.77-.31-.15-.1-.72.52-1.15-1.67-.76-3.21-1.51-4.98-1.63-11.65-3.38-22.73-8.12-33.43-13.8-4.33-2.3-8.37-5.01-12.42-7.76-4.8-3.27-9.96-6-14.84-9.15-11.61-7.48-24.05-13.24-37.01-17.92-.75-.27-1.48-.85-2.34-.3-.26-.14-.52-.28-.79-.41,5.72-12.11,12.82-23.42,20.15-35.08.05,1.3-.17,1.98-.73,2.69-1.28,1.6-1.25,1.71.72,2.7,3.21,1.61,6.45,3.15,9.68,4.71-.24.01-.45.08-.53.34-2.65-.84-5.19-1.92-7.68-3.16-1.14-.57-2.24-1.86-3.4-1.62-1.33.28-1.68,2.07-2.57,3.11-.17.2-.23.49-.34.76.22.2.39.44.62.54,4.87,2.22,9.72,4.49,14.62,6.63,10.32,4.5,20.64,8.98,30.01,15.35,5.96,4.05,12.5,7.19,18.27,11.52,5.17,3.88,11.32,5.65,17.18,8.86-.32-3.57-1.21-6.15-4.42-7.74-4.55-2.25-9.14-4.47-13.19-7.59-3.74-2.88-7.73-5.34-11.96-7.46-3.37-1.69-6.61-3.66-9.83-5.62-5.92-3.61-12.02-6.86-18.51-9.32.09-.18.19-.36.28-.54,4.57,1.76,9.06,3.66,13.31,6.14,5.49,3.22,11.02,6.39,16.62,9.41,3.18,1.72,6.29,3.51,9.2,5.65,4.03,2.96,8.3,5.55,12.85,7.66,1.13.52,2.24,1.2,4.1,1.3-1.62-1.48-1.54-3.14-1.97-4.63-.71-2.43-2.5-3.8-4.67-4.82-6.53-3.09-12.52-7.13-18.72-10.81-7.54-4.49-15.13-8.9-22.84-13.09-6-3.27-12.17-6.24-18.34-9.18-3.4-1.62-6.71-3.47-10.3-4.71-.82-.28-1.09,0-1.15.54-.11,1.12-.24,2.24-.83,3.17-2.58,4.04-4.21,8.66-7.43,12.32-.94,1.07-1.68,2.37-1.83,3.68-.2,1.85-1.13,2.99-2.41,4.02-2.63-2.78-6.03-4.29-9.04-6.38-1.66,2.91-1.65,2.9.97,4.51,2.12,1.31,4.34,2.42,6.63,3.33-3.9,6.85-7.83,13.65-11.65,20.51-6.29,11.27-11.2,23.13-14.54,35.59-2.37,8.87-3.64,17.95-4.74,27.05-.11.44-.28.88-.33,1.33-1.97,20.21,2,39.37,11.31,57.22,7.42,14.22,17.68,26.2,31.48,34.84,9.7,6.07,19.76,11.18,31.04,13.79,13.69,3.17,27.3,3.46,40.97.19,12.38-2.97,23.88-7.83,34.02-15.7,3.88-3.01,7.49-6.33,11.08-9.67,8.34-7.75,15.23-16.63,21.02-26.41,3.74-6.31,6.44-13.09,9.37-19.79,3.54-8.11,5.79-16.31,5.63-25.22-.07-3.78.2-7.58-.23-11.36-.34-2.94-.65-5.89-1.03-8.82-1.15-8.75-2.89-17.32-6.82-25.34-2.19-4.48-4.19-9.07-5.86-13.79-.92-2.62-1.62-5.32-3.01-7.75-1.8-3.13-3.45-6.34-4.8-9.69-1.02-2.52-2.68-4.64-4.31-6.77-.22-.29-.55-.57-.83-.11-.11.19.04.53.07.8-.45-.8-.92-1.59-1.34-2.4-4.98-9.51-9.85-19.07-16.13-27.83-5.08-7.1-9.21-14.73-12.24-22.97-2.17-5.9-4.55-11.75-7.22-17.44-3.14-6.71-6.14-13.46-8.75-20.4-.25-.67-.34-1.46-1-1.94-1.81-4.97-3.5-10-5.69-14.83-.14-1.13-.84-2.03-1.26-3.04-.43-1.02-.88-2.03-1.34-3.03-.41-.89-.58-1.95-1.55-2.66-.25.72-.11,1.16,0,1.6.58,2.12,1.56,4.15,1.43,6.43-.13,2.14.36,4.2.84,6.27,2.28,9.83,6.88,18.85,10.01,28.38.05.16.23.28.35.42.12.35.23.7.35,1.05,3.9,10.78,8.65,21.21,13.3,31.68,2.74,6.18,5.78,12.19,9.23,17.98,8.76,14.69,17.33,29.47,24.47,45.03-.11.24-.07.41.23.45.09.22.19.43.28.65.52,2.12,1.48,4.04,2.62,5.89,4.82,11.25,8.24,22.86,9.14,35.13.03.24.06.47.08.71.1.89.2,1.78.29,2.67-.33,1.28-.11,2.57-.04,3.85.54,9.82-.27,19.5-2.82,29.02-.73,2.74-1.45,5.49-2.18,8.24-5.71,16.24-15.8,29.36-28.89,40.31-1.06.89-2.21,1.72-3.44,2.33-4.13,2.05-8.22,4.2-12.63,5.67-4.23,1.4-8.56,2.32-12.9,3.24-9.07,1.94-18.18,3.46-27.5,2.89-1.17-.67-2.43-.54-3.69-.46-.25-.03-.5-.06-.75-.1-.41-.46-.99-.45-1.53-.55-10.25-1.98-19.98-5.39-29.01-10.7-7.64-4.5-14.14-10.42-20.55-16.45-8.3-7.8-13.81-17.22-17.07-28.13-2.62-8.77-5.68-17.41-9.99-25.55-.73-1.38-1.23-2.89-1.9-4.32-.19-.4.12-1.2-.97-1.14-.33,2.23.49,4.18,1.57,6,3.03,5.15,5.04,10.68,6.55,16.44,1.83,6.99,4.02,13.84,7.36,20.32,6.42,12.43,16.3,21.74,27.16,30.03,7.6,5.81,16.39,9.69,25.44,12.8,3.64,1.25,7.4,2.32,11.32,2.41.84.46,1.78.44,2.7.54,11.9,1.17,23.68.24,35.28-2.48,9.48-2.23,18.13-6.51,25.85-12.37,5.53-4.2,10.32-9.35,14.47-14.9,5.98-8.01,10.99-16.67,14.94-25.89.97-.98,1.09-2.32,1.43-3.54,2.04-7.33,3.44-14.79,3.87-22.39.31-5.44.58-10.91-.48-16.33-.16-1.63-.32-3.26-.47-4.89.17-1.18.17-2.34-.47-3.4-.15-1-.29-2-.46-3-1.49-9.06-4.67-17.59-8.3-25.97-.63-2.36-1.28-4.71-2.92-6.62-4.71-11.18-10.25-21.94-16.4-32.38-2.67-4.54-5.32-9.1-8.16-13.53-5.37-8.37-9.15-17.52-13.27-26.5-3.47-7.56-6.44-15.34-9.4-23.11-.83-3.79-2.2-7.42-3.81-10.93-2.97-6.47-5.74-13-7.49-19.92-.38-1.49-.61-2.98-.76-4.52.85-.03.71.68,1.1.88.32,1.16.63,2.31.95,3.47l-.08.23.19.16c1.21,3.78,2.6,7.49,4.15,11.15-.11.98.41,1.79.75,2.63,2.33,5.75,4.7,11.47,7.02,17.22,3.32,8.24,6.53,16.53,9.94,24.73,3.96,9.54,9.86,18,15.02,26.88,6.28,10.81,12.32,21.74,17.36,33.2,3.43,7.79,6.79,15.62,10,23.5,2.37,5.83,4.39,11.82,5.56,18.01,2.18,11.52,2.87,23.15,1.59,34.83-.82,7.46-2.25,14.84-5.04,21.85-2.56,6.45-5.57,12.71-9.04,18.74-2.13,3.71-4.67,7.1-7.65,10.19-1.98,2.06-4.24,3.86-5.92,6.21-3.86,3.92-8.46,6.84-13.04,9.79-9.16,5.92-19.11,9.57-30.05,10.34-9.88.7-19.76.65-29.63-.29-.74-.59-1.6-.53-2.46-.43l-.86-.12c-.71-.61-1.55-.59-2.4-.49ZM337.27,241.92c.15.53.62.68,1.05.88,6.15,3.67,12.29,7.34,18.44,11-.28.15-.55.31-.83.46-1.92-1.09-3.85-2.15-5.75-3.27-4.17-2.47-8.17-5.22-12.99-6.45-1.85-.47-2.14-1.08-3.42,1.83,4.25,1.53,7.83,4.31,11.82,6.35-.44.12-.87.24-1.31.35-1.66-.98-3.32-1.94-4.97-2.94-1.66-1-3.38-1.85-5.21-2.47-1.02-.35-1.38.17-.93,1.17-.54.13-1.03.3-1.4.77-.88,1.13-.69,1.55.7,2,1.05.34,2.2-.02,3.18.57,2.52,1.06,4.65,3.03,7.54,3.25.21.02.4.31.61.48,3.33,2.64,6.98,4.78,10.71,6.77,2.16,1.15,4.48,1.99,6.88,2.59.49-1.1.25-1.9-.45-2.62-.69-.71.81-1.65-.23-2.33-.05-.37-.11-.74-.16-1.11.64-1.2.37-2.17-.75-2.92.31-.28.62-.56.93-.83.43-2.16-.79-3.42-2.35-4.61-6.18-4.71-13.29-7.98-19.43-12.76-.84-.66-1.28-.21-1.6.65-.42,1.1.11,1.74.93,2.3-.42.02-.84.09-1.26.06-.35-.02-.48.17-.49.42,0,.52.4.43.73.42ZM359.94,439.68c-.3-.95-1.53-1.46-1.24-2.68,1.52.8,2.48,2.22,3.46,3.5,3.51,4.58,8.08,7.77,12.97,10.69,5.25,3.14,11.01,3.53,16.85,3.75.58.02,1.15-.11,1.19-.83.05-.72-.47-.93-1.07-.97-.65-.05-1.29-.09-1.94-.1-8.99-.08-16.53-3.29-22.56-10.1-2.75-3.11-5.73-6.04-8.88-8.78-1.25-1.09-1.95-2.52-2.87-4.2,1.02.26,1.39.7,1.71,1.13,2.14,2.89,5.13,4.4,8.48,5.44,2.29.71,4.55,1.57,6.73,2.57,7.62,3.49,15.78,4.47,23.99,5.23.35.03.72.05,1.05-.26-.32-.81-1.13-.84-1.8-1.02-5.81-1.56-11.39-3.78-17.02-5.87-5.19-1.93-10.52-3.48-15.76-5.28-1.81-.62-3.72-1.15-5.12-2.61.07-.08.14-.15.21-.22.62.17,1.25.31,1.86.5,11.88,3.8,23.38,8.74,35.65,11.35,3.42.73,6.74.79,10.65-.38-5.82-.35-10.87-1.61-15.94-3.23.91-1.29,2.09-.91,3.1-.67,7.72,1.83,15.66,2.79,23.09,5.84,2.29.94,4.79,1.38,6.08,3.94.84-1.53.84-1.52,1.94-1.32,2,.35,4.01.69,6.01,1.03.53.09,1.13.36,1.26-.6-.7-.41-1.49-.57-2.3-.74-4.07-.84-8.11-1.76-12.04-3.2-6.95-2.55-13.94-4.98-21.27-6.2-3.85-.64-7.06-2.77-10.57-4.21,3.07.33,5.94,1.36,8.83,2.29.88.28,1.76.67,2.66.74,5.58.43,10.91,1.94,16.22,3.6,5.66,1.76,11.41,3.09,17.28,3.94.76.11,1.65.57,2.14-.49-.34-.65-.96-.54-1.47-.62-7.23-1.21-14.26-3.16-21.19-5.5-3.51-1.19-7.04-2.33-10.73-2.76-6.43-.74-12.28-3.73-18.67-4.62,4.24-.16,8.23,1.06,12.25,2.06,3.96.99,8.04,1.23,12.07,1.8,4.02.57,7.81,2.1,11.78,2.95-3.88-2.23-7.73-4.35-12.26-4.98-3.65-.51-7.36-.72-10.95-1.73-5.42-1.53-10.91-2.83-16.36-4.27-9.55-2.52-19.21-4.68-28.48-8.19-.25-.1-.54-.09-.76.26-.11.65.35,1.16.72,1.66,2.32,3.23,3.91,6.86,5.09,10.59,1.07,3.38,2.15,6.62,4.74,9.15-.34.27-1.49-.17-.85.96.44.78.85,1.56,1.58,2.13,1.27,2.01,2.73,3.86,4.36,5.57.75,1.62,1.99,2.86,3.23,4.09,5.39,5.33,12.1,7.96,19.35,9.48,1.72.36,3.45.62,5.21.61.89,0,1.47-.35,1.42-1.26-.04-.8-.69-1-1.4-.99-.28,0-.55,0-.83-.01-8.32-.34-15.64-3.24-22.01-8.56-1.48-1.24-2.89-2.57-4.33-3.86-1.38-1.94-2.75-3.89-4.53-5.5ZM424.56,447.3c-.35-.26-.72-.55-1.08-.07-.05.07.24.4.38.61.18.31.3.72.57.9,1.99,1.38,4.37,1.12,6.61,1.48.38.06.64-.37.63-.75-.02-.55-.44-.75-.93-.8-2.11-.2-4.11-.92-6.17-1.37ZM281.44,360.28c1.96-.94,2.35-1.48,1.58-2.5-1.52-2.01-3.18-3.92-5.37-5.22-1.08,1.26-.87,2.19.07,3.07,1.2,1.13,2.4,2.26,3.57,3.42.33.33.94.73.2,1.28-2.24-.81-3.27-3.22-5.36-4.23-1.09,1.89-.52,3.26.95,4.43,1.14.9,2.26,1.81,3.36,2.7,1-.94.92-1.97.99-2.95ZM354.85,210.27c-1.21.84-1.66-.49-2.43-.87-.4-.2-.75-.6-1.2-.15-.28.28-.33.64-.12,1.01.37.61.51,1.03-.36,1.49-1.37.71-1.34,1.02-.09,1.9,1.95,1.36,4.24,2.11,6.31,3.74-.36-1.62-.93-2.97-.87-4.3.07-1.32-1.68-1.56-1.29-2.84,0-.55.76.06.68-.38-.34-1.9-.63-3.82-1.63-5.66-1.18,1.13-.74,1.99-.16,2.88.64.97,1.49,1.87,1.14,3.2ZM357.08,221.95c-.52.74-.96.1-1.34-.13-1.87-1.14-3.69-2.39-5.59-3.5-.79-.46-1.8-1.85-2.45-1-.87,1.13.8,1.76,1.53,2.35,1.62,1.33,3.41,2.45,5.11,3.7.42.31,1.33.54.48,1.34-2.9-1.48-5.58-3.31-8.13-5.38-.81,1.82-.82,1.83.13,2.67,3.83,3.41,8.14,6.16,12.28,9.49.13-1.63-.78-2.43-1.51-3.37-.59-.76-1.76-1.12-1.71-2.34.45-.63.75-.14,1.04.15.61.6.9,1.51,1.93,2.12-.17-2.22-.18-4.16-1.94-5.5-.3-.23-.07-.45.11-.64.23-.39,1.1.1,1-.58-.14-.97-.24-2.03-1.17-2.66-2.29-1.53-4.71-2.86-7.15-4.13-.48-.25-.85-.27-1.16.21-.33.51-.04.86.34,1.16,1.73,1.37,3.58,2.57,5.46,3.73,1,.62,2.44.83,2.74,2.31ZM347.81,235.5c-.26.15-.52.3-.77.45-1.55-1.01-3.07-2.06-4.65-3-.61-.37-1.25-1.51-2.07-.51-.87,1.06.37,1.35.93,1.84,5.15,4.42,11.2,7.46,16.88,11.08.44.28.94.6,1.58.28.43-2.61-.68-4.56-2.58-6.3-4.51-4.14-10.1-6.75-14.7-10.83-1.12,2.29-1.14,2.32.63,3.63,1.56,1.15,3.16,2.24,4.74,3.36ZM278.13,394.19c-.39.01-1.06-.32-.93.48.1.61.49,1.16.76,1.76-1.95.07-2.08.2-1.37,1.62.58,1.15,1.23,2.28,2,3.31,2.22,2.98,5,5.44,7.56,8.1.75.78,1.8,1.35,1.99,2.57-3.49-3.17-6.97-6.34-9.88-10.07-.51-.66-1.03-1.31-1.59-1.93-.33-.37-.93-.6-1.14-.08-.55,1.39-1.05,2.83-1.32,4.3-.15.82.67,1.48,1.2,2.11,2.19,2.62,4.4,5.23,6.6,7.84l.04-.03c-.9.16-1.3-.56-1.76-1.08-1.78-1.97-3.53-3.98-5.29-5.97-.33-.38-.5-1.04-1.24-.73-.21,1.91-.37,3.81.48,5.62-.34.31-1.26-.02-1.14.36.52,1.6-.59,3.2.7,4.94,3.57,4.81,6.9,9.81,9.96,14.98.72,1.22,1.27,2.64,2.56,3.65.39-.86.27-1.56.1-2.27.36-.22.95,1.23,1.01.04.24-4.31-.27-8.5-2.89-12.17-1.29-1.81-2.5-3.69-3.74-5.54,2.8,2.59,4.29,6.13,6.86,9.5-.02-2.18.17-3.81.37-5.45.23-1.83.4-3.72-1.04-5.25l-.04.04c.85.32,1.6.5,1.68-.82.04-.75,0-1.45-.54-2.04.46.03.98.09,1.06-.54.18-1.57.35-3.16-1-4.4-.14-.13-.45-.36-.05-.58.59.18.71,1.15,2.09.76-1.42-4.32-5.45-6.33-8.07-9.46,2.91,1.9,5.4,4.3,8.06,6.67q.99-3.99-2.17-5.89c-2.86-1.72-5.64-3.53-7.9-6.04-.64-.71-1.23-1.64-2.44-1.71-.6,1.26-.14,2.35.41,3.43l.04-.04ZM331.17,281.33c5.16,1.75,10.14,3.93,14.99,6.42,3.61,1.85,7.24,3.67,10.93,5.34,2.89,1.31,5.89,2.37,8.95,3.59.34-2.66-.24-4.42-2.73-5.27-1.3-.44-2.48-1.23-3.73-1.82-12.52-5.9-25.3-11.2-38.29-15.99q-1.97-.73-2.94,1.68c2.72,1.73,5.92,2.49,8.68,4.16-.22-.04-.39,0-.43.26-2.47-1.01-4.93-2.05-7.41-3.03-1.48-.58-1.73-.24-2.85,2.01-.72,1.44.25,1.57,1.08,1.88,11.89,4.58,23.08,10.73,34.86,15.58,5.19,2.14,10.18,4.75,15.31,7.17.2-3.29-.83-5.55-4.18-6.84-10.77-4.14-20.73-10.14-31.61-14.06-.33-.12-.6-.41-.9-.62.09-.15.18-.3.28-.46ZM268.59,374.69c1.15-.18,2.11.39,3.11.78.8.31,1.6.71,2.69,0-1.04-1.26-2.32-1.73-3.5-2.31-1.52-.75-1.53-.72-2.37,1.14-.4.71-.91,1.38-1.19,2.14-2.61,6.93-5.54,13.73-7.68,20.84-3.16,10.5-5.11,21.2-6.23,32.11-1.45,14.15.1,27.83,4.79,41.28,5.97,17.14,16.23,31.36,29.28,43.62,11.06,10.39,24.06,17.76,38.36,22.92,10.64,3.84,21.5,6.23,32.84,5.96,10.32-.24,20.43-1.98,30.3-5,6.66-2.03,13.19-4.43,19.17-8.03,10.28-6.19,19.52-13.65,27.77-22.44,10.18-10.85,16.75-23.59,21.25-37.61,1.97-6.15,2.31-12.54,3.48-18.8,1.1-5.85,1.55-11.73,1.54-17.67-.01-6.23-.82-12.37-1.57-18.53-1.06-8.67-2.82-17.16-6.36-25.21-1.94-4.4-3.93-8.79-5.49-13.35-2.74-8.01-6.72-15.44-10.85-22.78-4.27-7.58-9.31-14.7-13.45-22.37-2.2-4.08-4.63-8.02-7.19-11.88-2.16-3.25-4.15-6.58-5.78-10.12-2.48-5.38-5.12-10.69-7.67-16.03-5.47-11.44-10.75-22.97-16.11-34.46-.55-1.18-1.01-2.43-2.07-3.31,1.8,5.15,3.56,10.3,5.7,15.29,4.44,10.38,9.05,20.69,13.64,31,3.69,8.3,7.82,16.36,13.15,23.77,2.16,3,4.08,6.17,5.79,9.47,2.51,4.84,4.86,9.81,8.08,14.23,3.56,4.88,6.72,9.97,9.15,15.51.15.34.35.66.55.97,1.64,2.5,2.76,5.26,3.64,8.08,1.41,4.53,3.38,8.81,5.36,13.1,2.17,4.71,4.2,9.5,5.35,14.57,3.02,13.32,4.8,26.76,3.9,40.48-.33,5-1.68,9.65-3.76,14.12-1.17,2.52-2.31,5.05-3.11,7.71-2.21,7.32-5.56,14.03-9.71,20.49-8.41,13.09-19.04,24.14-30.93,33.95-9.34,7.7-20.31,12.38-32.04,15.39-10.07,2.58-20.27,3.61-30.57,2.64-14.61-1.37-28.09-6.22-40.59-13.97-11.38-7.07-21.3-15.69-29.42-26.36-5.69-7.47-10.46-15.47-13.92-24.25-3.11-7.89-5.03-16.05-6.15-24.44-.49-3.68-.95-7.35-.82-11.06.28-7.88,1.4-15.66,3.08-23.36,2.45-11.22,4.99-22.41,10.13-32.81,1.49-3.03,1.53-2.97-1.72-3.83-.77-.2-2.01-.15-1.83-1.58ZM360.73,204.57c.11-1.05.43-2.14-.49-3.19-.6,1.09-.67,2.04-.47,3.02-.02,1.57-.13,3.15-.05,4.72.64,12.48,1.56,24.94,2.71,37.38,1.71,18.45,4.39,36.74,7.9,54.94,3.25,16.87,7.79,33.34,14.13,49.27,7.24,18.19,13.03,36.78,16.59,56.04.76,4.1,1.78,8.16,3.56,11.94,3.89,8.26,10.76,13.22,18.95,16.58,2.77,1.13,5.73,1.41,8.73,1.3,1.39-.05,2.04-.61,1.97-2.02-.09-2.03-.01-4.08-.22-6.1-1.44-14.11-5.09-27.68-10.79-40.63-5.44-12.37-11.61-24.39-18.12-36.24-4.32-7.87-8.93-15.59-12.9-23.63-5.33-10.79-9.63-22.05-13.56-33.42-5.39-15.61-8.79-31.74-11.66-47.97-1.5-8.47-2.61-17.02-3.88-25.53-.82-5.49-2.26-10.88-2.42-16.47ZM409.91,442.68c-2.78.1-6.09.91-9.25,2.28-1.27.55-2.47,1.3-3.38,2.38-4.08,4.86-4.69,10.41-2.61,16.14,1.78,4.88,5.71,7.53,10.75,8.62,6.15,1.33,11.12-.77,15.2-5.22,3.95-4.31,4.52-9.36,2.61-14.75-2.12-5.97-6.87-9.48-13.32-9.45ZM396.84,403.52q-.66-2.98-3.1-3.77c-1.05-.35-2.11-.69-3.15-1.08-12.43-4.57-24.02-10.83-35.34-17.6-7.21-4.31-14.4-8.65-21.6-12.96-1.9-1.14-3.76-2.36-5.76-3.31-9.67-4.59-19.1-9.68-29.1-13.57-3.58-1.39-3.51-1.6-5.26,1.91-.12.24-.18.51-.29.84,1.49.97,3.17,1.49,4.8,2.07,12.71,4.45,24.38,10.98,35.88,17.86,8.4,5.03,16.31,10.86,25.02,15.37,1.88.97,3.91,1.68,5.75,2.71,6.97,3.9,14.4,6.69,21.95,9.16,3.22,1.05,6.47,2.13,10.2,2.38ZM298.14,344.48c1.69.65,3.29,1.15,4.78,1.86,8.66,4.12,17.55,7.74,26.06,12.22,7.69,4.05,15.32,8.13,22.65,12.8,1.79,1.14,3.53,2.39,5.4,3.38,7.6,4.01,14.96,8.45,22.43,12.7,4.01,2.28,8.05,4.55,12.4,6.17.97.36,1.96,1.06,3.11.45-.26-3.04-1.84-4.83-4.67-5.57-1.16-.3-2.33-.6-3.47-.95-.56-.17-1.34-.12-1.43-1.17,2.72.34,5.17,1.57,7.85,2.05-.17-2.63-1.46-3.72-3.8-4.15-4.01-.73-7.92-1.92-11.5-3.91-2.03-1.13-4.1-2.11-6.25-2.97-4.39-1.75-8.7-3.83-12.49-6.55-12.75-9.17-26.54-16.41-40.89-22.66-5.08-2.21-10.27-4.16-15.38-6.3-2.96-1.24-2.93-1.3-4.43,1.61-.12.24-.19.51-.36,1ZM296.01,348.83c.73.74,1.65.98,2.48,1.37,5.09,2.41,10.46,4.23,15.42,6.91,6.74,3.65,13.94,6.41,20.5,10.43,4.18,2.56,8.24,5.3,12.54,7.64,5.12,2.79,9.97,6.01,15.09,8.8,8.69,4.74,17.39,9.44,26.75,12.74,2.23.79,4.47,1.7,6.97,1.45-.38-1.73-.35-1.8-1.28-2.19-7.61-3.2-14.8-7.22-21.85-11.45-7.46-4.46-15.23-8.39-22.48-13.19-6.18-4.09-12.68-7.59-19.2-11.08-1.55-.83-3.42-.97-4.73-2.18-1.26-1.17-2.77-1.79-4.31-2.43-2.9-1.22-5.76-2.51-8.64-3.78-4.14-1.82-8.24-3.75-12.44-5.45-3.03-1.23-2.85-1.68-4.76,1.92-.04.07-.02.18-.06.48ZM390.49,379.33c-.61-3.34-1.65-5.77-4.74-7.02-2.65-1.07-5.13-2.55-7.72-3.77-5.3-2.49-9.91-6.08-14.89-9.07-5.72-3.42-11.39-6.88-16.96-10.54-2.46-1.62-5.04-3.08-7.75-4.29-9.54-4.24-19.07-8.52-28.6-12.79-.84-.38-1.68-.77-2.5-1.2-.73-.38-1.27-.19-1.59.5-.29.63-1.43,1.26-.12,2-.51.58-1.49.39-1.85,1.28-.41,1.01.22,1.35.89,1.69,2.48,1.26,5.09,2.17,7.73,3.01,9.81,3.12,19.22,7.13,27.97,12.58,2.59,1.62,5.27,3.06,8.04,4.35,3.38,1.56,6.4,3.7,9.42,5.84,7.86,5.57,16.05,10.58,24.79,14.64,2.4,1.12,4.82,2.29,7.9,2.78ZM391.73,383.44c-.12-2.33-2.03-2.92-3.7-3.53-8.94-3.23-16.79-8.47-24.85-13.33-2.76-1.66-5.33-3.66-7.93-5.58-4.2-3.09-9.08-4.95-13.49-7.63-6.8-4.13-13.87-7.71-21.29-10.59-5.51-2.14-11.25-3.62-16.69-5.97-.33-.14-.68-.42-1.02-.17-.94.69-1.38,1.78-1.68,2.8-.31,1.02.93.98,1.49,1.24,8.04,3.72,16.29,6.93,24.35,10.63,8.51,3.91,16.67,8.33,24.51,13.42,4.56,2.97,8.99,6.15,13.85,8.67,3.62,1.87,7.63,2.94,11.06,5.09,4.26,2.67,9.03,3.67,13.73,4.97.53.15,1.07.34,1.66-.03ZM365.21,290.98c-.23-1.68-.34-2.87-.56-4.04-.27-1.45-1.08-2.53-2.43-3.17-3.17-1.5-6.28-3.19-9.53-4.49-9.02-3.6-17.89-7.51-26.71-11.57q-2.61-1.2-4.03,1.52c-.13.24-.33.45-.5.67-1.86,2.52-1.05,2.27,1.03,3.15.42.18.85.35,1.28.52,10.2,3.86,20.32,7.91,30.2,12.53,3.58,1.68,7.26,3.16,11.25,4.88ZM354.97,493.02c-1.61-1.2-3.23-2.4-4.84-3.61-5.51-4.11-10.25-9.09-15.44-13.55-2.9-2.5-4.97-5.67-6.73-9.09-2.38-4.62-4.33-9.4-6.32-14.19-3.96-9.53-10.39-17.46-16.94-25.26-1.94-2.31-4.62-3.79-7.31-5.36-.11.68.22.88.48,1.09,2.61,2.16,4.61,4.78,6.1,7.82.52,1.07,1.25,2.06,1.95,3.03,5.93,8.19,10.94,16.94,15.8,25.8,3.8,6.92,7.94,13.62,14.16,18.71,2.58,2.11,5.01,4.4,7.49,6.62,3.51,3.14,7.33,5.86,11.62,7.99ZM342.67,491.79c-5.3-3.92-9.48-8.61-13.7-13.26-4.42-4.87-7.68-10.41-9.79-16.61-2.07-6.06-4.74-11.83-7.74-17.48-3.05-5.75-7.16-10.78-10.71-16.19-.87-1.33-2.07-2.5-3.48-3.44-.47.98.01,1.62.41,2.21,3.29,4.93,5.84,10.3,8.87,15.38,4.02,6.76,8.2,13.43,11.09,20.78,1.09,2.77,2.45,5.41,4.09,7.87,5.35,7.99,12.23,14.55,19.58,20.66.29.24.59.44,1.38.07ZM363.57,283.02c.36-3.81.24-4.06-2.97-5.62-.83-.4-1.68-.78-2.54-1.12-5.67-2.24-11.36-4.43-17.01-6.72-5.14-2.08-10.36-3.92-15.6-5.7-.71-.24-1.47-.46-1.84.53-.35.91.14,1.34.91,1.69,4.54,2.06,9.07,4.14,13.6,6.23,7.12,3.28,14.58,5.8,21.59,9.36,1.2.61,2.43,1.32,3.87,1.35ZM362.21,271.32c.32-.67-.06-1.2-.02-1.72.21-2.43-1.24-3.39-3.27-4.06-1.92-.63-3.85-1.31-5.56-2.44-5.01-3.3-10.22-6.24-15.61-8.88-1.86-.91-3.75-1.48-5.76-1.82-.79-.13-1.43-.23-1.86.62-.47.91.13,1.26.72,1.78,1.87,1.65,4.06,2.75,6.21,3.93,5.33,2.93,10.6,5.98,15.98,8.81,2.91,1.53,5.9,2.96,9.18,3.76ZM342.51,446.61c-.19.08-.39.16-.58.23.77,3.02,2.04,5.85,3.79,8.43,6.35,9.4,14.75,16.49,24.74,21.77,2.62,1.38,5.26,2.69,8.12,3.52,2.09.61,4.17.53,6.27.25-1.91-.4-3.82-.65-5.67-1.24-1.85-.6-3.67-1.3-5.34-2.29-3.03-1.78-6.07-3.55-9.02-5.45-7.57-4.89-13.91-10.99-18.35-18.94-1.21-2.16-2.64-4.19-3.97-6.29ZM394.18,446.31c-3.32-1.14-6.85-1.28-10.24-2.21-3.49-.96-6.91-2.04-10.21-3.53-3.09-1.4-6.22-2.69-9.58-3.42,1.12,1.36,2.34,2.48,3.59,3.56,3.16,2.7,6.67,4.74,10.87,5.15,5.16.5,10.34.76,15.56.46ZM301.36,442.72c1.61,4.71,3.46,8.9,6.23,12.66.44.59.78,1.26,1.08,1.93,2.71,6.12,6.5,11.59,10.19,17.12,1.74,2.61,3.9,4.89,5.72,5.97-.07-.61-.57-.92-.91-1.33-4.62-5.57-8.89-11.41-11.59-18.14-2.33-5.8-5.81-10.9-8.85-16.28-.4-.7-.83-1.44-1.88-1.93ZM360.27,250.73c.38-2.18-.71-3.11-1.99-3.96-5.94-3.91-12.32-7.14-18.01-11.43-.43-.33-.96-.74-1.4-.07-.33.5-.28,1.11.17,1.52.95.87,1.88,1.82,2.96,2.5,6,3.8,12.04,7.54,18.28,11.43ZM359.2,236.48c-.07-3.25-.4-3.99-2.82-5.77-3.27-2.4-6.66-4.64-9.74-7.3-.47-.4-1.04-1.28-1.79-.43-.61.7-.23,1.33.39,1.89,1.1.98,2.1,2.1,3.27,2.98,3.52,2.67,7.23,5.09,10.7,8.62ZM310.43,453.38c-.08-1.91-.95-3.33-1.65-4.81-2.88-6-7.15-11.19-10.03-17.19-.05-.11-.31-.11-.48-.17-.29,2.54-.19,3.45.95,5.52.8,1.45,1.65,2.9,2.65,4.22,2.8,3.69,5.24,7.59,7.47,11.64.17.31.34.67,1.09.8ZM370.98,444.59c6.56,5.76,14.4,6.3,22.59,5.25-7.57-1.47-15.57-1.14-22.59-5.25ZM282.22,342.15c-.59.67-1.01,1.24-.45,1.86,2.07,2.3,4.19,4.56,6.41,6.97.57-.96,1.01-1.65,1.4-2.36.92-1.67.92-1.8-.77-2.79-2.15-1.26-4.35-2.44-6.59-3.68ZM296.19,339.34c.88-2.23-.05-3.63-1.51-4.72-1.54-1.16-3.19-2.17-4.81-3.21-1.38-.88-1.5-.75-2.19.63-.59,1.19.14,1.72.9,2.23,2.42,1.65,4.87,3.25,7.61,5.08ZM284.64,337.88c-.55,1.05-.25,2.09-.57,2.44-.99,1.09-.43,1.52.47,2.01,2.16,1.14,4.32,2.28,6.53,3.44.53-1.05.98-1.93,1.51-2.98-2.63-1.57-5.52-2.6-7.95-4.9ZM297.33,336c1.06-3.19,1.09-3.29-1.07-5-1.51-1.2-3.14-2.23-4.73-3.34-.87-.61-1.43-.37-2,.52-.74,1.13-.1,1.62.71,2.2,2.37,1.7,5.07,2.98,7.09,5.62ZM304.56,323.81c.06-1.17,1.59-1.75.4-2.71-2.56-2.06-5.22-4-7.8-5.96-1.92,1.81-2.17,2.12.33,3.85,2.2,1.52,4.41,3.01,7.06,4.82ZM278.72,366.97c1.61-2.88,1.63-2.64-.94-4.49-1.14-.82-2.61-1.25-3.05-2.75-.8.23.13.78-.6,1.28-1.89,1.27-1.77,1.98.01,3.09,1.47.92,2.94,1.84,4.59,2.88ZM302.3,327.03c1.41-2.34,1.43-2.44-.49-3.78-1.97-1.38-4.01-2.65-6.02-3.97-.37-.24-.74-.64-1.19-.17-.46.48-.86,1.06-.38,1.71.38.51.87.96,1.38,1.34,2.22,1.64,4.46,3.25,6.7,4.87ZM301.96,328.09c.06-.57-.5-.66-.85-.9-2.27-1.58-4.72-2.92-6.87-4.68-.39-.32-.86-.88-1.39-.2-.43.54-.63,1.19-.05,1.74.53.51,1.13.95,1.72,1.4,1.76,1.35,3.92,2.11,5.49,3.72.31.32.66.76,1.15.39.45-.33.71-.84.8-1.46ZM272.39,364.79c-.97,2.32-1.01,2.37-.17,3,1.46,1.09,2.98,2.1,4.5,3.15q1.21-2.66-.8-4.1c-1.04-.76-2.11-1.47-3.53-2.04ZM284.36,357.35c1.25-1.39,1.18-2.35.09-3.4-1.79-1.7-3.53-3.45-5.44-4.98-.55.37-.7.9-.51,1.27,1.42,2.74,3.79,4.68,5.86,7.1ZM271.44,368.51c-.6.42.04,1.26-1.03,1.6-1.01.32-.84,1.27.19,1.78,1.24.61,2.52,1.13,3.78,1.71.48.22.89.19,1.21-.24.35-.47.54-1.02.16-1.53-1.13-1.52-3.13-1.88-4.3-3.32ZM297.68,312.98c0,.56-.08.8.01.9,2.3,2.54,5.26,4.27,7.84,6.47.47.4.83.07,1.15-.28.4-.43.32-.84-.11-1.16-2.79-2.06-5.31-4.52-8.89-5.92ZM300.07,330.96c.18-.36-.07-.59-.27-.73-2.56-1.82-5.14-3.62-7.72-5.41-.28-.2-.51,0-.71.2-.26.28-.47.62-.31.99.1.23.38.4.61.54,2.43,1.54,4.79,3.16,6.86,5.16.31.29.59.47.92.15.25-.25.41-.59.61-.9ZM430.7,453.19c-1.13-1.35-2.92-1.85-5.1-1.45,1,1.57,1.83,1.81,5.1,1.45ZM428.74,458.22c-.02-.6-.2-1.1-.88-1.18-.93-.12-1.02.55-1.04,1.22-.01.61.2,1.09.93,1.03.63-.05.99-.4.99-1.06ZM335.89,242.61c.13.23.16.33.22.39.33.33.72.56,1.18.57.09,0,.3-.27.27-.33-.2-.43-.57-.69-1.03-.78-.15-.03-.32.07-.64.16ZM417.5,314.23c.04-.35-.2-.48-.46-.52-.1-.02-.24.13-.36.21.17.18.34.37.54.52.03.02.2-.15.28-.21ZM427.66,460.89c.16-.06.32-.13.49-.19-.15-.21-.26-.47-.46-.6-.31-.21-.49.04-.53.32-.05.35.22.44.5.48ZM348.9,479.01c.06-.04.16-.07.18-.13.03-.07.02-.19-.03-.24-.12-.15-.23-.09-.26.16,0,.06.07.14.11.21Z"/>
    <path class="cls-2" d="M343.31,312.5c-4.38-1.92-8.66-4.1-13.21-5.62-7.99-2.66-15.34-6.78-23.05-10.06.12-.21.23-.41.35-.62,4.93,2.28,9.76,4.81,14.8,6.79,7.28,2.86,14.69,5.36,21.53,9.22-.26-.09-.39.01-.42.27Z"/>
    <path class="cls-2" d="M261.6,366.23c.24.06.47.13.71.19-1.83,3.87-3.29,7.91-5.48,11.61-.42-1,.7-1.64.61-2.56.1-.43.59-.81.13-1.29l-.03.07c.98-.08.84-1,1.14-1.57,1.08-2.1,1.31-4.59,2.93-6.45Z"/>
    <path class="cls-2" d="M276.63,344.23c-.04-1.75.78-3.11,1.95-4.8-.05,2.15-1.06,3.46-1.95,4.8Z"/>
    <path class="cls-2" d="M276.43,336.26c-.67.66-.81,1.59-1.25,2.37-.15-.27-.3-.54-.45-.82.2-.9.52-1.71,1.43-2.13.09.19.18.39.27.58Z"/>
    <path class="cls-2" d="M278.52,333.29c.26-.65.11-1.46.71-2.03q.52,1.12-.08,2.46c-.21-.14-.42-.29-.63-.43Z"/>
    <path class="cls-2" d="M256.85,374.79c-.59.08-.39.73-1.02,1.3.62-1.67.26-3.32,1.9-4.15.07.78-1,1.47-.19,2.31,0,0,.03-.07.03-.07-.67-.3-.53.34-.71.61Z"/>
    <path class="cls-2" d="M311.39,287.8c1.63,1.34,3.52,2.24,5.35,3.25,2,1.1,3.97,2.23,5.96,3.35,0,0-.16.01-.16.01l.07.14c-4-1.26-7.5-3.55-11.19-5.44-.14-.44-.99-.85-.03-1.32Z"/>
    <path class="cls-2" d="M457.65,458.14c-.03,3.45-1.85,6.34-2.98,9.44-.5,1.37-1.34,2.62-2.13,3.88,1.81-4.4,2.72-9.14,5.15-13.29l-.04-.03Z"/>
    <path class="cls-2" d="M457.68,458.17c.05-.24.11-.48.16-.72.37.35.19.55-.19.69,0,0,.04.03.04.03Z"/>
    <path class="cls-2" d="M456.43,443.64c.28,5.28-1.23,10.2-3.5,14.94,1.86-4.81,2.52-9.88,3.5-14.94Z"/>
    <path class="cls-2" d="M432.66,354.21c-.19-.38-.38-.76-.58-1.14.19.38.38.76.58,1.14Z"/>
    <path class="cls-2" d="M360.58,449.58c-.35-.37-.69-.75-1.04-1.12-6.77-9.3-11.31-19.75-15.71-30.28-.84-2.01-1.29-4.22-2.85-5.89-.4-.76-.8-1.52-1.19-2.27.61-.99.83-.04,1.03.27,1.66,2.56,2.94,5.33,4.05,8.16,2.87,7.3,6.5,14.24,9.98,21.26,1.36,2.75,3.24,5.14,5.03,7.59.6.81,1.31,1.55,1.65,2.53-.31-.08-.63-.16-.94-.24Z"/>
    <path class="cls-2" d="M356.88,448.35c-2.33-1.38-3.62-3.7-4.97-5.87-2.94-4.72-5.46-9.67-7.13-15-.18-.57-.6-1.13-.15-2.04,3.25,8.18,7.15,15.81,12.48,22.63-.08.09-.15.18-.23.28Z"/>
    <path class="cls-2" d="M334.78,406.45c1.9,2.02,3.42,4.32,4.99,6.58.09.4.19.8.37,1.55-2-2.76-3.81-5.24-5.59-7.72-.11-.16.02-.33.24-.4Z"/>
    <path class="cls-2" d="M322.6,433.15c-1.9-2.07-3.32-4.51-5.05-6.72,2.17,1.87,3.79,4.16,5.05,6.72Z"/>
    <path class="cls-2" d="M325.36,430.35c1.45,1.38,2.58,2.93,2.76,5.02l.03-.03c-1.12-1.55-2.42-3.01-2.79-4.99,0,0,0,0,0,0Z"/>
    <path class="cls-2" d="M322.57,425.92c1.34,1.22,2.21,2.73,2.79,4.43,0,0,0,0,0,0-1.58-1.08-2.46-2.59-2.76-4.46l-.03.03Z"/>
    <path class="cls-2" d="M324.82,437.05c-1.13-1.1-1.74-2.5-2.26-3.94.98,1.19,2.09,2.29,2.26,3.94Z"/>
    <path class="cls-2" d="M328.12,435.37c.74.32,1.04.87.92,1.8-.53-.59-.83-1.14-.89-1.83,0,0-.03.03-.03.03Z"/>
    <path class="cls-2" d="M322.6,425.89c-.7-.14-.94-.59-.91-1.42.61.4.87.84.88,1.45,0,0,.03-.03.03-.03Z"/>
    <path class="cls-2" d="M314.8,494.85c-.51-.38-1.04-.74-1.53-1.15-.62-.52-1.2-1.09-1.72-1.73,1.08.96,2.63,1.38,3.21,2.91,0,0,.04-.03.04-.03Z"/>
    <path class="cls-2" d="M441.12,416.39c.13.47.7,1.05-.3,1.24.1-.41.2-.83.3-1.24Z"/>
    <path class="cls-2" d="M370.37,400.54c-.36.12-.73.24-1.09.36-1.1-.41-2.22-.78-2.93-2.25,1.68.32,2.74,1.36,4.02,1.89Z"/>
    <path class="cls-2" d="M291.48,371.31c.14-.2.28-.4.42-.61,13.11,4.9,24.99,12.16,36.87,19.4,3.83,2.34,7.89,3.46,12.27,3.77-.94.59-2.06.06-3.02.5-3.37,0-6.24-1.39-8.97-3.18-8.11-5.31-16.65-9.86-25.18-14.45-3.98-2.14-8.45-3.2-12.39-5.43Z"/>
    <path class="cls-2" d="M301.96,381.38c.01-.25.02-.51.04-.76.42.18.87.32,1.26.55,6.16,3.7,12.55,6.96,18.87,10.37-.09.32.17.45.33.64.15.17.23.39.35.58-.25.02-.5.03-.75.04-6.7-3.81-13.4-7.62-20.1-11.43Z"/>
    <path class="cls-2" d="M390.93,435.21c-.27.25-.4.47-.51.46-.46-.03-.93-.06-1.36-.2-10.55-3.39-21.19-6.51-31.83-9.64-1.05-.31-2.08-.77-3.3-1.78,12.62,3.57,24.75,7.25,37,11.16Z"/>
    <path class="cls-2" d="M363.1,422.88c-4.48-.14-8.48-1.18-11.14-2.92,3.65,1.2,7.47,1.71,11.14,2.92Z"/>
    <path class="cls-2" d="M358.11,429.3c-.25-.06-.54-.06-.75-.19-.21-.12-.54-.46-.5-.54.25-.47.59-.14.86.02.22.13.4.33.6.49-.07.07-.14.14-.21.22Z"/>
    <path class="cls-2" d="M383.95,430.55c.09.01.19.03.28.04-.15-.03-.3-.06-.45-.1-.01,0-.03-.05-.02-.05.28-.25-.17.03.19.11Z"/>
    <path class="cls-2" d="M402.39,447.66c-7.44,5.62-7,13.04.61,20.28-.78.25-1.22-.28-1.65-.59-5.49-4.02-6.73-12.23-2.65-17.57.89-1.16,1.83-2.35,3.69-2.12Z"/>
    <path class="cls-2" d="M403.83,459.75c-.3-.92-.36-1.8-.09-2.75q.9,1.22.09,2.75Z"/>
    <path class="cls-2" d="M300.3,385.91c-4.15-2.42-8.79-3.8-13-6.1-.84-.46-1.78-.77-2.62-1.86,5.67,2.52,11.28,4.36,16.25,7.57-.21.13-.43.26-.64.38Z"/>
    <path class="cls-2" d="M300.39,418.64c.81-.2,1.13.48,1.57.91,4.01,3.96,7.91,8.03,11.6,12.3,2.24,2.59,4.04,5.48,5.76,8.48-.47-.58-.98-1.13-1.42-1.73-4.69-6.44-9.99-12.35-15.72-17.88-.65-.63-1.44-1.16-1.84-2.04l.05-.03Z"/>
    <path class="cls-2" d="M312.56,424.77c1.91,1.75,3.27,3.91,4.48,6.17-1.76-1.86-3.49-3.75-4.48-6.17Z"/>
    <path class="cls-2" d="M317.01,430.88c.55.46.98,1.01,1.15,1.72-.7-.36-.96-1.02-1.15-1.72Z"/>
    <path class="cls-2" d="M318.12,432.55c.58.44.93,1.03,1.15,1.71-.72-.34-.99-1-1.15-1.71Z"/>
    <path class="cls-2" d="M300.35,418.68c-.54-.19-.93-.54-1.15-1.07.09-.12.19-.24.3-.35.5.34,1.15.57.89,1.39,0,0-.04.03-.04.03Z"/>
    <path class="cls-2" d="M362.59,452.06c.14-1.01-1.16-1.31-1.11-2.27.57.57,1.23,1.08,1.67,1.74.37.54-.36.36-.57.54Z"/>
    <path class="cls-2" d="M281.47,422.59c-2.42-3.4-4.65-6.92-7.34-10.12-.07-.08.05-.32.09-.49,3.16,3.03,5.7,6.49,7.26,10.61Z"/>
    <path class="cls-2" d="M287,414.81c-1.94-2.51-4.47-4.41-6.76-6.56-1.01-.95-1.97-1.95-3.03-3,2.49,1.25,8.43,7.12,9.75,9.59,0,0,.04-.04.04-.04Z"/>
    <path class="cls-2" d="M286.47,433.72c-1.07-2.22-2.16-4.43-3.21-6.67-.34-.72-.97-1.38-.71-2.29,2.17,2.61,3.55,5.56,3.92,8.96Z"/>
    <path class="cls-2" d="M282.57,424.82c-.89-.5-.98-1.41-1.15-2.27.98.46,1.25,1.27,1.15,2.27Z"/>
    <path class="cls-2" d="M282.02,414.21c.35.36.77.68.77,1.51-.67-.45-.86-.91-.74-1.54,0,0-.04.03-.04.03Z"/>
    <path class="cls-2" d="M281.48,399.74c-1.37.12-2.06-.88-2.75-1.87,1.09.34,2.07.86,2.71,1.9l.04-.03Z"/>
    <path class="cls-2" d="M278.09,394.23c.76.35,1.39.84,1.69,1.65l.04-.03c-1.25.14-1.29-.94-1.69-1.66,0,0-.04.04-.04.04Z"/>
    <path class="cls-2" d="M279.78,395.88c.1.13.21.26.31.39-.48.11-.24-.24-.27-.42,0,0-.04.03-.04.03Z"/>
    <path class="cls-2" d="M281.45,399.77c.07.05.19.15.19.15-.1.14-.15.08-.15-.18,0,0-.03.03-.03.03Z"/>
    <path class="cls-2" d="M354.8,224.66c.31-.53.69-.45,1.04-.09.35.36.85.76.11,1.23-.8.03-1.14-.39-1.15-1.15Z"/>
    <path class="cls-2" d="M355.48,214.2c-.68.14-1.02-.18-1.36-.42-.49-.36-1.67-.47-1.04-1.4.4-.58,1.09.11,1.55.46.4.3.9.57.84,1.36Z"/>
    <path class="cls-2" d="M353.04,212.3c-.18.1-.42.34-.6.3-.52-.11-.97-.36-1.19-.93-.15-.39.18-.59.31-.6.69-.03,1.08.41,1.48,1.22Z"/>
  </g>
  <g id="water-color">
    <path class="cls-1" d="M446.77,508.76l.2-.06s.06.18.06.18c.22,1.73-1.12,2.68-2.04,3.75-3.3,3.9-7.03,7.38-10.83,10.76-13.78,12.28-29.5,21.01-47.42,25.62-7.19,1.85-14.53,2.77-21.94,3.24-12.49.79-24.81-.36-36.86-3.6-28.08-7.54-50.38-23.32-66.28-47.73-9.83-15.09-16.35-31.51-18.11-49.61-.31-3.21-.87-6.39-1.37-9.97,1.77,1.02,1.5,3.05,3.26,4.02-1.28-3.74-2.45-7.18-3.59-10.51.44-.49.65-.22.77-.03,1.9,3.28,3.86,6.54,5.26,10.08.64,1.61,1.34,3.27.86,5.1-.25.96.44,1.3,1.15,1.6.61.86,1.22,1.72,1.83,2.58,1.17,2.63,1.76,5.44,2.51,8.2,2.25,8.23,4.91,16.28,8.98,23.84,8.32,15.43,19.49,28.34,33.93,38.28,8.57,5.9,17.86,10.43,27.81,13.64,7.85,2.54,15.73,4.94,24.01,5.38,9.62.52,19.23.29,28.76-1.52,12.47-2.37,24.39-6.07,35-13.33,9.72-6.65,19.31-13.43,26.74-22.77.52-.65,1.05-1.3,1.84-1.73,2.08,1.21,3.23,3.55,5.47,4.57Z"/>
    <path class="cls-1" d="M259.69,364.32c.58.27.94.79.65,1.33-1.08,2.01-1.15,4.44-2.61,6.29-1.63.83-1.27,2.48-1.9,4.15.63-.57.43-1.22,1.02-1.3.19.23.39.46.58.69.09.92-1.02,1.56-.61,2.56.09.18.07.36-.05.52-1.52,1.09-2.64,2.33-2.72,4.41-.03.84-.31,2-1.47,2.55-.29-1.23-.23-2.52.14-3.53,2.18-5.94,3.92-12.07,6.96-17.67Z"/>
    <path class="cls-1" d="M243.05,427.86c1.2-.31,1.74.65,2.52.6.13-4.57-.14-9.2,3.28-13.3.53,1.25.19,2.13-.16,2.88-2.13,4.49-2.85,9.13-1.66,14,.04.15-.08.35-.14.55-1.23-.38-.67-1.98-1.77-2.51-.87-.43-1.74-1.03-2.06-2.23Z"/>
    <path class="cls-1" d="M249,434.27c.18.45.27.87-.4.98-1.13-.15-1.22-1.04-1.2-1.86.12-4.03-.09-8.1.92-11.84,0,3.26-.03,6.73.02,10.2.01.87-.33,1.88.65,2.52Z"/>
    <path class="cls-1" d="M248.55,408.68c-.09.46-.38.6-.82.47-.33-1.64-.05-3.23.44-4.79.28.03.56.06.84.09-.26.85-.56,1.69-.78,2.55-.15.59-.39,1.24.32,1.68Z"/>
    <path class="cls-1" d="M263.59,357.08c.01.89.04,1.77.03,2.66,0,.29-.29.47-.55.44-.27-.03-.45-.3-.37-.58.18-.68.53-1.32.46-2.06.01-.28.15-.44.44-.46Z"/>
    <path class="cls-1" d="M248.99,439.4c.27.45.26.93-.32.94-.5,0-.64-.5-.52-.99.28.02.56.03.84.05Z"/>
    <path class="cls-1" d="M376.38,341.32c.39.11.78.44.69.75-.28,1,.07,1.81.76,2.66-1.41-.02-2.28-.81-3.23-1.35-2.49-1.41-4.94-2.89-7.55-4.09-3.86-1.78-7.43-4.07-10.83-6.62.2-.46-.45-1.85.96-1.03,2.88,1.66,5.99,2.84,8.96,4.29,1.26.61,2.29,1.52,3.26,2.74,1.49,1.87,3.7,3.27,6.31,3.55.19.17.43.29.62.1.22-.22,0-.41-.16-.58,0-.17.07-.31.19-.42Z"/>
    <path class="cls-1" d="M261.6,366.23c1.86-2.61,4.05-4.97,5.44-7.91.48-1.02.29-2.42,1.61-2.99.48,1.84-.92,3.06-1.56,4.51-1.11,2.52-2.74,4.72-4.78,6.58-.24-.06-.47-.13-.71-.19Z"/>
    <path class="cls-1" d="M269.22,353.62c-.32-.92-.17-2.19-1.68-2.2.93-3.43,2.3-6.65,4.29-10.15.07,1.15.11,1.77.14,2.39,0,0,.03-.04.03-.04-1.65,1.7-2.01,3.98-2.71,6.11-.23.69.27,1.22.42,1.82.2.79.55,1.59-.49,2.08Z"/>
    <path class="cls-1" d="M307.39,296.21c-.12.21-.23.41-.35.62-.09.25-.23.49-.25.75-.06.68-.37,1.03-1.05.78-.55-.21-.55-.73-.28-1.13,1.17-1.71,1.34-4.01,3.1-5.37.17.15.34.31.51.46-.42,1.36-1.44,2.46-1.7,3.9Z"/>
    <path class="cls-1" d="M312.45,284.31c.81-.12,1.66-.43,2.3.41-.95-.15-1.72,0-2.15,1.03-.31.72-.8,1.37-1.21,2.05-.96.46-.11.88.03,1.32-.91.1-.9,1.2-1.62,1.5l-.21.06s-.21-.08-.21-.08c.79-2.21,1.57-4.43,3.08-6.29Z"/>
    <path class="cls-1" d="M298.69,311.3l-.24.06s-.18-.16-.18-.17c.22-1.16.87-2.09,1.61-2.95.65-.24,1.42-.06,1.98-.58,1.15.4,2.22.95,3.13,1.9-.22.06-.32.13-.39.11-1.13-.34-2.27-.98-3.4-.97-1.49,0-1.17,2.19-2.52,2.61Z"/>
    <path class="cls-1" d="M267.56,351.4c-.69,2.43-1.54,4.82-1.94,7.7-.77-2.5-.17-4.54.26-6.58.56-.37,1.12-.75,1.68-1.12Z"/>
    <path class="cls-1" d="M343.31,312.5c.03-.26.16-.37.42-.27,1.51.48,2.92,1.18,4.22,2.09.22.24.28.52.18.83-1.68-.75-3.47-1.29-4.81-2.65Z"/>
    <path class="cls-1" d="M304.75,302.58c1.68.37,2.89,1.45,4.51,2.32-2.46.08-3.05-.21-4.51-2.32Z"/>
    <path class="cls-1" d="M326.26,258.82c.24.13.48.25.72.38-.58,1.04-1.17,2.09-1.75,3.13-.3-.07-.59-.13-.89-.2.3-1.3,1.03-2.35,1.92-3.3Z"/>
    <path class="cls-1" d="M302.89,305.06c-.24-.18-.47-.37-.71-.55-.07-1.18.62-2.06,1.21-2.97.16-.25.52-.29.7-.11.16.16.3.63.21.71-.88.79-1.01,1.92-1.41,2.92Z"/>
    <path class="cls-1" d="M273.66,341.96c.1.74-.05,1.44-.34,2.11-.17.39-.21,1.04-.79.91-.7-.15-.31-.92-.53-1.36,0,0-.03.04-.03.04.94-.19.74-1.52,1.7-1.69,0,0,0,0,0,0Z"/>
    <path class="cls-1" d="M314.59,280.51c.26.13.52.25.78.38-.46.7-.91,1.39-1.37,2.09-.24-.08-.48-.15-.71-.23.12-.93.52-1.7,1.31-2.24Z"/>
    <path class="cls-1" d="M264.87,370c.06-1.12.46-1.87,1.11-2.61q.02,1.29-1.11,2.61Z"/>
    <path class="cls-1" d="M281.15,325.86c-.15.89-.43,1.63-.98,2.22.09-1.18.08-1.19.98-2.22Z"/>
    <path class="cls-1" d="M276.43,336.26c-.09-.19-.18-.38-.27-.58.65-.5,1.29-1,1.93-1.5.07.07.12.15.15.24-.04,1.18-1.03,1.4-1.82,1.83Z"/>
    <path class="cls-1" d="M274.73,337.81c.15.27.3.54.45.82.08.8-.35,1.28-.99,1.64l.03.02c.1-.84-.42-1.81.51-2.48Z"/>
    <path class="cls-1" d="M272.46,348.37c-.07.46-.23.93-.71,1.03-.23.05-.31-.36-.26-.61.08-.44.26-.84.78-.88.05,0,.12.3.19.46Z"/>
    <path class="cls-1" d="M309.07,291.04c.28.25.56.5.85.76-.28.17-.55.35-.83.52-.17-.15-.34-.31-.51-.46.07-.33.03-.72.5-.81Z"/>
    <path class="cls-1" d="M268.67,355.28c-.19-.67-.24-1.29.54-1.63.24.68.3,1.31-.54,1.63Z"/>
    <path class="cls-1" d="M278.52,333.29c.21.14.42.28.63.43-.07.54-.45.66-.9.71-.03-.09-.09-.17-.15-.24.04-.34-.04-.75.42-.89Z"/>
    <path class="cls-1" d="M274.2,340.27c-.05.6.06,1.26-.53,1.69,0,0,0,0,0,0,.02-.61.03-1.23.55-1.68,0,0-.03-.02-.03-.02Z"/>
    <path class="cls-1" d="M375.1,339.11c.44-.01.7.15.67.63-.43,0-.65-.2-.67-.63Z"/>
    <path class="cls-1" d="M268.59,374.69c-.18,1.43,1.07,1.38,1.83,1.58,3.26.86,3.22.8,1.72,3.83-5.14,10.4-7.68,21.58-10.13,32.81-1.68,7.7-2.8,15.48-3.08,23.36-.13,3.71.33,7.39.82,11.06,1.12,8.38,3.03,16.54,6.15,24.44,3.46,8.78,8.23,16.77,13.92,24.25,8.12,10.66,18.03,19.29,29.42,26.36,12.5,7.76,25.98,12.6,40.59,13.97,10.3.97,20.5-.06,30.57-2.64,11.73-3,22.7-7.68,32.04-15.39,11.9-9.81,22.52-20.85,30.93-33.95,4.15-6.46,7.49-13.17,9.71-20.49.81-2.66,1.94-5.19,3.11-7.71,2.08-4.47,3.43-9.12,3.76-14.12.9-13.72-.88-27.16-3.9-40.48-1.15-5.07-3.18-9.86-5.35-14.57-1.98-4.29-3.95-8.57-5.36-13.1-.88-2.82-2-5.58-3.64-8.08-.2-.31-.4-.63-.55-.97-2.42-5.54-5.59-10.63-9.15-15.51-3.23-4.42-5.57-9.39-8.08-14.23-1.71-3.3-3.64-6.47-5.79-9.47-5.32-7.41-9.46-15.47-13.15-23.77-4.58-10.32-9.2-20.62-13.64-31-2.14-4.99-3.9-10.14-5.7-15.29,1.06.88,1.52,2.13,2.07,3.31,5.37,11.49,10.65,23.02,16.11,34.46,2.55,5.34,5.19,10.65,7.67,16.03,1.63,3.54,3.62,6.87,5.78,10.12,2.56,3.85,4.99,7.8,7.19,11.88,4.14,7.66,9.18,14.79,13.45,22.37,4.13,7.34,8.12,14.76,10.85,22.78,1.56,4.56,3.55,8.95,5.49,13.35,3.54,8.05,5.31,16.54,6.36,25.21.75,6.16,1.55,12.3,1.57,18.53.01,5.94-.44,11.82-1.54,17.67-1.17,6.26-1.51,12.65-3.48,18.8-4.5,14.02-11.07,26.76-21.25,37.61-8.25,8.79-17.49,16.25-27.77,22.44-5.98,3.6-12.51,5.99-19.17,8.03-9.87,3.02-19.98,4.75-30.3,5-11.34.27-22.2-2.12-32.84-5.96-14.3-5.16-27.3-12.52-38.36-22.92-13.05-12.26-23.31-26.48-29.28-43.62-4.69-13.46-6.24-27.13-4.79-41.28,1.12-10.91,3.06-21.62,6.23-32.11,2.14-7.1,5.07-13.91,7.68-20.84.28-.76.79-1.43,1.19-2.14.13.12.15.25.07.4ZM457.68,458.17c-2.43,4.15-3.34,8.89-5.15,13.29.79-1.26,1.63-2.51,2.13-3.88,1.13-3.1,2.95-5.99,2.98-9.44.38-.14.57-.34.19-.69-.05.24-.11.48-.16.72Z"/>
    <path class="cls-1" d="M270.27,419.15c.38,2.25-.32,4.42-.57,6.61-.82,7.15-.28,14.26.45,21.35,1.72,16.8,9.19,31.06,19.6,44.03,5.89,7.34,12.37,14.03,20.31,19.18,3.58,2.32,7.26,4.44,11.21,6.1,3.16,1.33,6.29,2.71,9.43,4.08,7.64,3.34,15.67,4.91,23.95,5.59,7.81.64,15.56.29,23.26-.92,11.14-1.74,21.25-6.27,30.9-11.92,2.79-1.64,5.49-3.44,8.2-5.22,6.34-4.15,11.61-9.53,16.45-15.24,5.59-6.59,9.97-14.05,13.53-21.92,2.79-6.16,4.93-12.52,5.69-19.35.47-4.3,1.72-8.51,2.39-12.81,1.7-10.89.56-21.55-1.74-32.24-1.93-8.96-5.62-17.18-9.24-25.51-3.09-7.12-6.43-14.15-8.84-21.56-.59-1.82-1.72-3.48-2.59-5.21,0,0,.02.02.02.02-.19-.38-.38-.76-.58-1.14l.02.03c-.03-.27-.18-.61-.07-.8.28-.47.6-.19.83.11,1.63,2.13,3.29,4.25,4.31,6.77,1.35,3.36,3,6.56,4.8,9.69,1.4,2.43,2.09,5.13,3.01,7.75,1.67,4.72,3.67,9.31,5.86,13.79,3.92,8.02,5.66,16.6,6.82,25.34.39,2.93.7,5.88,1.03,8.82.43,3.78.16,7.57.23,11.36.16,8.91-2.09,17.11-5.63,25.22-2.93,6.7-5.63,13.48-9.37,19.79-5.79,9.78-12.68,18.66-21.02,26.41-3.6,3.34-7.2,6.65-11.08,9.67-10.13,7.86-21.63,12.73-34.02,15.7-13.67,3.27-27.28,2.98-40.97-.19-11.28-2.61-21.34-7.72-31.04-13.79-13.8-8.64-24.07-20.63-31.48-34.84-9.31-17.86-13.28-37.02-11.31-57.22.04-.45.22-.88.33-1.32,1.42-.53,1.04-1.98,1.47-2.99,1.35-3.16,2.31-3.79,5.47-3.18ZM456.43,443.64c-.98,5.06-1.64,10.14-3.5,14.94,2.27-4.74,3.79-9.66,3.5-14.94Z"/>
    <path class="cls-1" d="M317.59,426.49c-5.18-7.95-11.49-14.73-19.88-19.38-.14-.12-.28-.23-.43-.34-.08-.45-.19-.9-.22-1.35-.02-.26-.04-.57.51-.81.95.49,2.06,1.06,3.5,1.8-1.35-1.86-4.53-1.77-3.94-5.05,4.13,2.93,8.12,5.75,12.47,8.84-2.29-2.48-4.76-4.01-7.13-5.65-.61-.42-1.24-.8-1.85-1.22q-3.86-2.7-2.49-7.93c6.56,4.36,13.53,7.9,19.77,12.65-.94-1.14-2.19-1.91-3.29-2.85-1.27-1.09-2.73-1.88-4.17-2.72-1.35-.79-2.67-1.65-3.98-2.5-2.4-1.56-4.76-3.18-7.19-4.7-1.03-.65-1.46-1.43-.95-2.52.49-1.05.24-2.18.55-3.6,4.85,1.21,8.58,4.44,12.91,6.74-.19-1.07-1.24-1.27-1.44-2.09,1.16-.17,2.14.38,3.13.83,1.26.57,2.44,1.33,3.75,1.74,3.31,1.02,6.23,2.68,8.99,4.72.65.48,1.29,1.19,2.55,1.13-3.01-3.89-6.71-6.36-10.79-8.38-2.29-1.13-4.87-1.55-7.03-2.96l-.03.03c2.45,0,4.69.86,6.91,1.74,7.02,2.78,11.67,8.53,16.9,13.55.06.05.05.18.07.27-.22.07-.36.25-.24.4,1.79,2.49,3.59,4.96,5.59,7.72-.18-.74-.27-1.15-.37-1.55.59.06.91-.33,1.22-.74,1.55,1.67,2.01,3.88,2.85,5.89,4.4,10.53,8.93,20.98,15.71,30.28-.21.21-.41.42-.62.62-.6-.34-1.21-.67-1.81-1.01-5.33-6.82-9.22-14.45-12.48-22.63-.45.91-.03,1.47.15,2.04,1.67,5.33,4.19,10.28,7.13,15,1.35,2.17,2.64,4.49,4.97,5.87,5.09,5.93,10.61,11.34,17.66,14.95,1.33.68,2.7.92,4.16,1.19,4.73.86,9.47,1.58,14.34,2-.14,1.04-.83.99-1.41,1-3.26.04-6.45-.48-9.61-1.2-.8-.18-1.57-.5-2.72-.37,1.99,1.81,4.33,2.13,6.52,2.82,2.29.72,4.76.52,7.42,1.47-5.25.49-9.81-.66-14.21-2.54-5.22-2.23-10.02-5.17-14.56-8.58-4.74-3.56-8.34-8.13-11.59-13-1.8-2.7-3.61-5.37-5.56-7.97-2.53-3.36-4.18-7.17-5.4-11.19-1.35-4.42-2.57-8.9-5.08-12.86-.15-.23-.33-.44-.52-.69-.59.57.05.92.23,1.29,1.76,3.78,3.34,7.62,4.48,11.63,1.43,5.04,3.7,9.67,6.86,13.85,2.02,2.67,3.42,5.71,5.22,8.52,6.47,10.13,14.93,17.81,26.43,21.87.92.33,1.96.53,2.8,1.33-1.01.36-1.85.06-2.72-.17-7.35-1.96-13.34-6.11-18.92-11.16-8.94-8.1-15.35-17.96-20.75-28.58-.88-1.74-1.31-3.65-1.87-5.51-.63-2.12-1.13-4.28-2.56-6.11.86,2.73,1.54,5.54,2.61,8.18,4.78,11.74,10.79,22.74,19.87,31.79,8.49,8.46,18.29,14.69,30.08,17.51.5.12,1.1.12,1.58.78-1,.65-2,.2-2.86-.05-11.48-3.26-21.89-8.45-30.46-16.95-3.95-3.92-7.45-8.23-11.06-12.46-3.61-4.22-5.68-9.28-7.76-14.34-1.3-3.17-2.48-6.39-3.39-9.69-1.42-5.16-4.09-9.62-7.84-13.94,1.22,1.96,2.28,3.55,3.23,5.2,1.09,1.89,2.18,3.72,2.05,6.13-.1,1.81.72,3.59,1.32,5.36.3-.53-.18-1.21.35-1.68.2-.17.32-.11.39.15.88,3.22,2.1,6.31,3.47,9.35,1.9,4.22,3.41,8.57,4.41,13.11.64,2.9,1.73,5.65,3.27,8.22,1.34,2.22,2.58,4.49,3.84,6.76,3.47,6.27,8.76,10.68,14.7,14.45,1.08.69,2.24,1.28,3.26,2.41-1.03.43-1.6-.3-2.21-.62-7.77-4.19-14.2-9.89-19.73-16.79-3.33-4.16-5.6-8.67-6.97-13.73-1.72-6.34-3.46-12.67-5.24-18.99-.27-.95-.4-2.01-1.53-2.88.71,3.01,1.3,5.79,2.01,8.54,1.3,5.01,2.5,10.06,4.05,15,3.12,9.96,8.32,18.73,15.8,26.07,1.32,1.3,2.71,2.52,3.85,3.99.99,1.27,2.3,2.13,3.69,2.89,4.14,2.26,8.56,3.84,13.34,5.44-.88.52-1.49.24-2.03.11-5.17-1.27-9.87-3.64-14.53-6.14-1.09-.59-1.05-1.83-1.91-2.66-3.41-3.25-7.13-6.18-10.18-9.84-4.25-5.1-7.63-10.7-10.31-16.73-.71-1.59-1.05-3.35-1.52-5.04-.22-.78-.35-1.59-.9-2.37-.39,1.53.63,2.84.03,4.71-1.35-3.31-2.53-6.28-4.07-9.07-1.05-1.91-1.63-4.12-3.46-5.55,0,0,.04.04.04.04-.17-1.65-1.28-2.76-2.26-3.94l.04.05c-1.26-2.56-2.88-4.85-5.05-6.72l.04.05ZM322.57,425.92c-.01-.61-.27-1.06-.88-1.45-.03.83.22,1.28.91,1.42.3,1.87,1.18,3.38,2.76,4.46.37,1.98,1.66,3.43,2.79,4.99.06.68.37,1.24.89,1.83.11-.93-.19-1.48-.92-1.8-.18-2.08-1.31-3.63-2.76-5.02-.58-1.7-1.45-3.22-2.79-4.43Z"/>
    <path class="cls-1" d="M296.24,445.36c.97,1.91,1.25,4.03,1.91,6.04,3.59,10.96,8.71,21.07,17.21,29.05,11.59,10.88,24.82,18.86,40.58,22.26,5.71,1.23,11.44,2.19,17.27,2.4,4.08.14,8.11-.42,12.14-.99,1.47-.21,2.86-1.06,4.4.06.62.45,1.71-.13,2.32-.61,4.98-3.9,11.09-5.4,16.66-8.05.91-.43,1.81-.88,2.72-1.33,0,.26,0,.52.01.78-2.38,1.96-5.19,3.16-7.99,4.3-3.62,1.47-7.09,3.08-10.13,5.62-2.3,1.92-5.16,2.95-8,3.73-13.88,3.83-27.86,4.48-41.9.78-9.53-2.51-18.04-7.02-25.82-13.01-.85-.65-1.62-1.56-2.87-1.51-.59-1.53-2.13-1.95-3.21-2.91.52.64,1.1,1.21,1.72,1.73.49.41,1.02.77,1.53,1.15,2.58,2.42,5.87,3.84,8.61,6,7.72,6.09,16.73,8.86,26.19,10.49,12.79,2.2,25.38,1.12,37.81-2.44.53-.15,1.06-.33,1.58-.52,1.7-.61,3.29-1.45,5.23-1.35,1.04.05,2.14-.51,3.17-.9,2.85-1.09,5.66-2.25,8.66-2.87,2.02-.42,3.73-1.56,5.55-2.42.2.74-1.51.87-.6,1.85-.4.83-1.24,1.08-1.99,1.41-10.29,4.51-20.85,8.17-32,9.91-19.24,3.01-37.16-.35-53.65-10.98-8.06-5.2-15.36-11.3-22.25-17.91-7.08-6.8-11.78-15.08-14.74-24.47-3.11-9.88-6.05-19.85-11.06-29.01-.71-1.3-1.48-2.56-2.15-3.88-.76-1.51-1.62-3.02-1.12-4.96,5.56,6.6,9.57,13.77,11.59,22.02,1.32,5.39,3.22,10.61,4.58,16,1.98,7.81,8.46,17.79,14.2,22.3.04-.87-.53-1.24-.93-1.65-7.05-7.43-11.6-16.17-14.05-26.1-1.33-5.39-2.95-10.71-4.41-16.06-1.65-6.04-4.99-11.12-8.94-15.84-1.56-1.86-1.89-3.84-1.42-6.68,2.84,5.01,6.36,8.93,8.96,13.48.5.88,1.04,1.76,1.64,2.57,2.49,3.36,3.77,7.14,4.37,11.25,1.12,7.72,2.86,15.28,6.14,22.42,1.4,3.04,3.01,5.93,5.2,8.52-1.83-3.7-3.12-7.6-4.6-11.42-1.51-3.9-2.76-7.86-3.39-12-.07-.45-.02-.91-.03-1.36,1.02-1.21.49-2.65.48-3.97-.01-1.69.22-3.29.91-4.82.26-.57.46-1.38,1.21-1.33.9.07.95.98,1.12,1.67.11.44,0,.95.17,1.36.34.8.27,1.88,1.37,2.23Z"/>
    <path class="cls-1" d="M358.74,437.03c-2.59-2.53-3.68-5.77-4.74-9.15-1.18-3.73-2.77-7.36-5.09-10.59-.36-.5-.83-1.01-.72-1.66.22-.36.5-.36.76-.26,9.27,3.51,18.92,5.67,28.48,8.19,5.45,1.44,10.94,2.73,16.36,4.27,3.6,1.02,7.3,1.22,10.95,1.73,4.53.64,8.38,2.75,12.26,4.98-3.97-.84-7.76-2.38-11.78-2.95-4.03-.57-8.1-.82-12.07-1.8-4.03-1-8.01-2.22-12.25-2.06,6.39.9,12.24,3.88,18.67,4.62,3.69.43,7.23,1.57,10.73,2.76,6.93,2.35,13.96,4.29,21.19,5.5.51.08,1.13-.02,1.47.62-.49,1.07-1.39.6-2.14.49-5.87-.85-11.62-2.18-17.28-3.94-5.31-1.65-10.63-3.17-16.22-3.6-.9-.07-1.79-.45-2.66-.74-2.89-.93-5.76-1.95-8.83-2.29,3.51,1.44,6.71,3.57,10.57,4.21,7.33,1.22,14.33,3.66,21.27,6.2,3.93,1.44,7.97,2.35,12.04,3.2.81.17,1.6.33,2.3.74-.14.97-.74.69-1.26.6-2-.34-4.01-.68-6.01-1.03-1.1-.19-1.1-.2-1.94,1.32-1.29-2.56-3.8-3-6.08-3.94-7.43-3.05-15.36-4.01-23.09-5.84-1.01-.24-2.2-.62-3.1.67,5.06,1.63,10.12,2.88,15.94,3.23-3.91,1.18-7.23,1.11-10.65.38-12.26-2.61-23.77-7.55-35.65-11.35-.61-.2-1.24-.34-1.86-.5-.2-.17-.38-.36-.6-.49-.28-.16-.61-.49-.86-.02-.04.07.29.42.5.54.22.12.5.13.75.19,1.4,1.46,3.31,1.99,5.12,2.61,5.24,1.8,10.57,3.35,15.76,5.28,5.63,2.09,11.21,4.32,17.02,5.87.67.18,1.47.21,1.8,1.02-.33.31-.69.29-1.05.26-8.21-.76-16.36-1.74-23.99-5.23-2.18-1-4.44-1.86-6.73-2.57-3.35-1.04-6.33-2.56-8.48-5.44-.32-.43-.69-.87-1.71-1.13.92,1.68,1.62,3.11,2.87,4.2,3.15,2.74,6.12,5.67,8.88,8.78,6.03,6.81,13.57,10.02,22.56,10.1.65,0,1.29.05,1.94.1.6.04,1.12.25,1.07.97-.05.72-.62.85-1.19.83-5.84-.22-11.6-.61-16.85-3.75-4.89-2.92-9.46-6.11-12.97-10.69-.99-1.29-1.94-2.7-3.46-3.5l.04.04ZM390.93,435.21c-12.25-3.91-24.38-7.59-37-11.16,1.22,1.01,2.25,1.47,3.3,1.78,10.63,3.13,21.27,6.25,31.83,9.64.43.14.9.18,1.36.2.12,0,.24-.21.51-.46ZM363.1,422.88c-3.68-1.21-7.5-1.71-11.14-2.92,2.66,1.74,6.66,2.78,11.14,2.92ZM383.95,430.55c-.36-.08.09-.36-.19-.11,0,0,0,.05.02.05.15.04.3.07.45.1-.09-.01-.19-.03-.28-.04Z"/>
    <path class="cls-1" d="M385.42,260.1c.66.48.75,1.26,1,1.94,2.6,6.94,5.61,13.69,8.75,20.4,2.66,5.7,5.04,11.54,7.22,17.44,3.03,8.24,7.15,15.87,12.24,22.97,6.28,8.77,11.16,18.32,16.13,27.83.43.81.89,1.6,1.34,2.4,0,0-.02-.03-.02-.03.19.38.38.76.58,1.14,0,0-.02-.02-.02-.02.76,2.07,1.53,4.14,2.26,6.23,2.65,7.49,5.55,14.88,8.74,22.16.89,2.03,1.98,3.97,2.88,6,5.83,13.15,8.29,26.94,7.99,41.28-.11,5.56-.63,11.06-1.7,16.52-.55,2.8-.89,5.65-1.29,8.48-.67,4.75-2.79,8.99-4.72,13.27-3.59,7.93-8.1,15.37-13.15,22.46-1.93,2.7-4.29,5.08-6.78,7.31-.38.34-.7.91-1.38.61-.63-.25-1.13.26-1.7.31,1.68-2.35,3.93-4.15,5.92-6.21,2.98-3.09,5.52-6.48,7.65-10.19,3.47-6.03,6.48-12.29,9.04-18.74,2.78-7.01,4.22-14.38,5.04-21.85,1.28-11.68.58-23.31-1.59-34.83-1.17-6.19-3.18-12.18-5.56-18.01-3.21-7.88-6.57-15.71-10-23.5-5.04-11.45-11.09-22.39-17.36-33.2-5.16-8.88-11.06-17.35-15.02-26.88-3.41-8.21-6.61-16.49-9.94-24.73-2.32-5.75-4.69-11.48-7.02-17.22-.34-.84-.87-1.65-.75-2.63.89.6,1.22.24,1.22-.7Z"/>
    <path class="cls-1" d="M341.59,405.19c3.48.58,6.61,2.24,10.16,3.32,0-.73-.87-1.03-.63-1.86,6.48,3.01,13.51,3.93,20.42,5.37-1.79-.52-3.57-1.09-5.38-1.54-.83-.21-1.37-.49-1.33-1.43,1.35-.54,2.63-.35,4.04-.02,4.68,1.08,9.4,1.97,14.12,2.9,5.64,1.11,11.08,2.91,16.57,4.54,1.29.38,1.93,1.31,2.54,2.65-9.2-.89-17.78-3.57-26.48-5.73,8.38,2.99,16.93,5.35,25.64,7.19-2.61.45-5.02-.94-7.91-.7,1.43,1.21,2.92,1.38,4.33,1.5,1.82.16,3.62.82,5.51.33.86-.22,1.29.43,1.49,1.35-7.18.11-14.11-1.1-21.03-2.58,4.14,1.27,8.2,2.78,12.57,3.09,2.77.19,5.53.45,8.3.69.88.08,1.66.28,1.71,1.63-3.41-.27-6.74-.92-10.66-1.62,4.15,1.85,7.93,2.82,12.14,3.34-.99,1.37-1.95.92-2.77.86-6.48-.49-12.76-2.06-19.06-3.55-12.05-2.84-24.09-5.68-35.93-9.31-1.09-.34-2.25-.58-2.86-1.54-1.87-2.94-4.13-5.64-5.51-8.88Z"/>
    <path class="cls-1" d="M299.5,417.25c-.53-.75-1.04-1.51-1.58-2.25-1.61-2.19-1.64-2.39-.77-5.74,4.42,5.17,10.09,8.93,13.99,14.44.36.5.69,1.12,1.47,1.11l-.04-.04c.99,2.42,2.72,4.31,4.48,6.17l-.04-.06c.19.7.46,1.36,1.15,1.72l-.04-.05c.16.72.42,1.37,1.15,1.71l-.03-.04c.26,1.99,1.45,3.58,2.35,5.28,3.01,5.65,5.45,11.51,7.19,17.68,1.37,4.83,3.86,9.18,6.28,13.55.25.46.8.79.59,1.74-1.57-1.15-2.65-2.55-3.69-3.98-3.18-4.36-5.37-9.27-7.74-14.08-4.68-9.51-10.59-18.2-17.32-26.36-1.61-1.96-3.79-3.22-5.81-4.69-.45-.33-.9-.66-1.39-.91-3.05-1.53-3.43-4.2-3.21-7.44,1.18.82,1.61,2.07,2.7,2.6.22.53.6.88,1.15,1.07.39.88,1.18,1.41,1.84,2.04,5.73,5.53,11.03,11.44,15.72,17.88.44.6.94,1.15,1.42,1.73-1.72-3-3.52-5.9-5.76-8.48-3.7-4.26-7.59-8.33-11.6-12.3-.43-.43-.75-1.11-1.57-.9.26-.82-.39-1.06-.89-1.39Z"/>
    <path class="cls-1" d="M339.79,410.02c-.21-.17-.5-.29-.63-.5-2.8-4.77-7.01-8.25-10.93-11.99-1.47-1.4-3.15-2.54-5.03-3.36-.64-.28-1.13-.59-1.14-1.36.25-.01.5-.03.75-.04-.11-.2-.2-.42-.35-.58-.17-.19-.42-.32-.33-.64.27-.05.58-.23.79-.14,4.43,1.85,8.49,4.27,11.87,7.74.11.24.16.57.34.72,4.62,3.64,7.51,8.6,10.35,13.6,3.16,5.56,6.05,11.27,8.1,17.33,2.09,6.17,5.56,11.46,9.57,16.47,2.14,2.67,4.16,5.4,6.88,7.59,3.84,3.1,8.12,5.13,12.94,6.02,2.73.51,5.43,1.21,8.23,1.2.28,0,.56.02.83.09.55.14,1.11.34,1,1.07-.09.65-.68.55-1.09.54-1.57-.04-3.16,0-4.71-.24-2.74-.41-5.46-.98-8.18-1.53-2.02-.41-3.86-1.29-5.61-2.35-2.69-1.64-5.29-3.43-7.7-5.45-.98-.83-2.03-1.51-3.11-2.19l-.04.05c.21-.17.93,0,.57-.54-.44-.66-1.11-1.16-1.67-1.74l.04.04c-.34-.98-1.05-1.72-1.65-2.53-1.8-2.45-3.67-4.84-5.03-7.59-3.48-7.01-7.11-13.95-9.98-21.26-1.11-2.83-2.38-5.6-4.05-8.16-.2-.31-.41-1.26-1.03-.27Z"/>
    <path class="cls-1" d="M340.93,517.97c-.48.53-1.04.25-1.53.09-15.85-5.05-30.15-12.72-41.85-24.79-11.55-11.91-18.49-26.22-22.09-42.29-.89-3.97-1.79-7.95-2.68-11.92-.17-.78-.56-1.56,0-2.52.98,1.17,1.2,2.55,1.55,3.85,1.73,6.34,3.22,12.75,5.48,18.93,3.68,10.06,8.12,19.71,15.49,27.69,8.1,8.78,17.25,16.2,27.83,21.87,5.83,3.12,11.92,5.49,18.19,7.49.52.17,1.11.16,1.49.64-.63.3-1.74-.35-1.87.94Z"/>
    <path class="cls-1" d="M351.73,517.06c-3.93-.09-7.68-1.16-11.32-2.41-9.05-3.11-17.84-7-25.44-12.8-10.86-8.29-20.74-17.6-27.16-30.03-3.34-6.47-5.53-13.33-7.36-20.32-1.51-5.76-3.52-11.29-6.55-16.44-1.07-1.82-1.9-3.77-1.57-6,1.09-.07.78.73.97,1.14.66,1.43,1.16,2.93,1.9,4.32,4.32,8.13,7.37,16.77,9.99,25.55,3.26,10.91,8.77,20.33,17.07,28.13,6.42,6.03,12.91,11.96,20.55,16.45,9.03,5.31,18.76,8.72,29.01,10.7.54.1,1.12.09,1.52.55-.54.4-.58,1.48-1.63,1.17Z"/>
    <path class="cls-1" d="M312.61,424.8c-2.85-4.02-6.43-7.37-9.87-10.86-.84-.86-1.72-1.69-2.55-2.55-.43-.44-1.16-.94-.65-1.6.55-.72,1.17-.07,1.65.3,4.26,3.27,8.43,6.62,11.79,10.88,1.48,1.88,2.84,3.87,4.62,5.51,0,0-.04-.05-.04-.05,1.73,2.21,3.15,4.65,5.05,6.72l-.04-.05c.52,1.45,1.13,2.85,2.26,3.94,0,0-.04-.04-.04-.04,1.32,2.95,2.65,5.89,3.95,8.85,2.05,4.66,3.97,9.35,5.49,14.23,1.22,3.9,3.49,7.36,5.84,10.69,3.36,4.77,6.98,9.35,11.13,13.47,2.89,2.88,6.02,5.49,9.63,7.46.49.26.95.56,1.41.88.1.07.08.3.19.77-1.83-.85-3.39-1.75-4.91-2.77-6.86-4.6-12.23-10.72-17.35-17.09-4.91-6.11-8.68-12.86-11.35-20.25-2.31-6.37-5.63-12.27-8.84-18.21-.17-.31-.49-.54-.74-.81,0,0,.03.04.03.04-.22-.68-.57-1.27-1.15-1.71,0,0,.04.05.04.05-.17-.71-.6-1.26-1.15-1.72,0,0,.04.06.04.06-1.22-2.26-2.57-4.41-4.48-6.17l.04.04Z"/>
    <path class="cls-1" d="M354.97,493.02c-4.29-2.13-8.11-4.85-11.62-7.99-2.48-2.22-4.91-4.51-7.49-6.62-6.22-5.09-10.36-11.79-14.16-18.71-4.86-8.85-9.86-17.61-15.8-25.8-.7-.97-1.43-1.96-1.95-3.03-1.49-3.05-3.49-5.66-6.1-7.82-.26-.21-.59-.41-.48-1.09,2.68,1.57,5.37,3.05,7.31,5.36,6.55,7.81,12.98,15.73,16.94,25.26,1.99,4.79,3.95,9.57,6.32,14.19,1.76,3.42,3.83,6.59,6.73,9.09,5.19,4.47,9.94,9.45,15.44,13.55,1.61,1.2,3.23,2.4,4.84,3.61Z"/>
    <path class="cls-1" d="M282.02,414.21c-2.2-2.61-4.41-5.22-6.6-7.84-.53-.63-1.35-1.29-1.2-2.11.26-1.47.77-2.9,1.32-4.3.21-.52.81-.29,1.14.08.55.62,1.07,1.27,1.59,1.93,2.91,3.73,6.4,6.9,9.88,10.07l-.05-.04c.54.58.59,1.28.54,2.04-.08,1.32-.83,1.14-1.68.82-1.32-2.47-7.26-8.34-9.75-9.59,1.06,1.05,2.02,2.05,3.03,3,2.29,2.15,4.82,4.05,6.76,6.56,1.44,1.53,1.26,3.42,1.04,5.25-.2,1.64-.39,3.27-.37,5.45-2.57-3.37-4.06-6.9-6.86-9.5,1.24,1.85,2.45,3.72,3.74,5.54,2.62,3.67,3.13,7.86,2.89,12.17-.07,1.2-.65-.26-1.01-.04l.04.05c-.37-3.4-1.75-6.35-3.92-8.96l.03.05c.1-1-.17-1.82-1.15-2.27l.04.05c-1.56-4.12-4.1-7.58-7.26-10.61l.04.03c-.85-1.81-.69-3.71-.48-5.62.74-.31.9.35,1.24.73,1.76,1.99,3.51,4,5.29,5.97.47.52.86,1.24,1.76,1.08-.12.63.06,1.09.74,1.54,0-.83-.42-1.15-.77-1.51Z"/>
    <path class="cls-1" d="M342.67,491.79c-.79.36-1.09.17-1.38-.07-7.35-6.11-14.24-12.67-19.58-20.66-1.64-2.46-3-5.1-4.09-7.87-2.89-7.36-7.07-14.03-11.09-20.78-3.03-5.09-5.57-10.45-8.87-15.38-.4-.59-.88-1.23-.41-2.21,1.41.94,2.61,2.11,3.48,3.44,3.55,5.41,7.66,10.44,10.71,16.19,3,5.65,5.68,11.42,7.74,17.48,2.11,6.2,5.38,11.74,9.79,16.61,4.22,4.65,8.4,9.34,13.7,13.26Z"/>
    <path class="cls-1" d="M288.14,412.03c-.19-1.22-1.24-1.79-1.99-2.57-2.56-2.66-5.35-5.12-7.56-8.1-.77-1.03-1.42-2.16-2-3.31-.71-1.42-.57-1.55,1.37-1.62-.27-.6-.66-1.16-.76-1.76-.14-.79.53-.46.93-.48.4.72.44,1.8,1.69,1.66.03.18-.21.53.27.42-.1-.13-.21-.26-.31-.39-.3-.82-.92-1.31-1.69-1.65-.55-1.08-1.01-2.16-.41-3.43,1.21.07,1.8,1.01,2.44,1.71,2.27,2.51,5.05,4.32,7.9,6.04q3.16,1.9,2.17,5.89c-2.66-2.37-5.15-4.78-8.06-6.67,2.62,3.13,6.64,5.14,8.07,9.46-1.38.39-1.5-.58-2.09-.76-.4.22-.09.45.05.58,1.35,1.24,1.18,2.82,1,4.4-.07.63-.6.57-1.06.54,0,0,.05.04.05.04ZM281.48,399.74c0,.26.06.33.15.18,0,0-.12-.1-.19-.15-.64-1.05-1.62-1.57-2.71-1.9.68,1,1.37,1.99,2.75,1.88Z"/>
    <path class="cls-1" d="M279.91,384.76c1.9.68,3.77,1.41,5.37,2.69-.19.81.54.86.97,1.1,1.92,1.09,3.9,2.09,5.78,3.24,1.64,1,1.77,3.37.35,4.6-.59.51-1,.03-1.45-.23-2.14-1.26-4.27-2.54-6.43-3.79-.77-.45-1.59-.8-2.51-.98,1.76,1.1,3.52,2.19,5.29,3.29.86.53,1.75,1.03,2.58,1.6.75.51,1.84,1.16,1.23,2.14-.73,1.17-1.66-.01-2.35-.37-3.63-1.89-6.61-4.66-9.62-7.39-.58-.52-1.17-1.12-.77-1.88.67-1.29.48-2.89,1.54-4.01Z"/>
    <path class="cls-1" d="M444.97,461.95c-.61-.19-1.21-.16-1.81.06.73-2.75,1.44-5.49,2.18-8.24,2.54-9.52,3.35-19.2,2.82-29.02-.07-1.28-.28-2.57.04-3.85.97.19,1.06-.82,1.6-1.2,1.05,5.42.78,10.89.48,16.33-.43,7.6-1.84,15.06-3.87,22.39-.34,1.22-.46,2.56-1.43,3.54Z"/>
    <path class="cls-1" d="M342.51,446.61c1.33,2.09,2.76,4.13,3.97,6.29,4.44,7.95,10.78,14.04,18.35,18.94,2.95,1.91,5.99,3.67,9.02,5.45,1.68.99,3.49,1.69,5.34,2.29,1.84.6,3.75.84,5.67,1.24-2.11.27-4.19.35-6.27-.25-2.86-.83-5.51-2.14-8.12-3.52-9.99-5.28-18.39-12.37-24.74-21.77-1.75-2.58-3.02-5.41-3.79-8.43.19-.08.39-.16.58-.23Z"/>
    <path class="cls-1" d="M430.01,480.44c6.52-11.95,10.86-24.68,13.46-38.01,1.11-5.67.88-11.44.6-17.17-.12-2.31-.24-4.62-.15-7.18,1.25,2.76,1.27,5.53,1.44,8.23.65,10.01-.72,19.72-4.03,29.22-2.71,7.78-5.1,15.66-9.14,22.9-.53.96-.82,2.07-1.72,2.81-.16-.27-.31-.54-.47-.81Z"/>
    <path class="cls-1" d="M394.18,446.31c-5.22.31-10.4.05-15.56-.46-4.2-.41-7.72-2.45-10.87-5.15-1.26-1.08-2.48-2.2-3.59-3.56,3.35.72,6.49,2.02,9.58,3.42,3.3,1.49,6.72,2.58,10.21,3.53,3.38.93,6.92,1.07,10.24,2.21Z"/>
    <path class="cls-1" d="M441.12,416.39c-.1-.61-.06-1.16.57-1.49.92.14.82.87.83,1.5.04,2.31.07,4.63.08,6.94.02,3.42-.09,6.84.04,10.26.38,9.53-1.92,18.52-5.4,27.25-1.84,4.61-3.87,9.17-6.68,13.32-.18-.14-.36-.28-.53-.42,2.62-5.69,5.73-11.15,7.79-17.1,2.46-7.12,3.99-14.37,3.85-21.96-.09-5.06-1.22-10.06-.75-15.15.03-.31-.26-.66-.4-.99-.18-.39-.12-.71.29-.92,1-.2.44-.77.3-1.24Z"/>
    <path class="cls-1" d="M389.94,280.28c-.53-.34-1.05-.72-1.74-.63-.12-.14-.3-.26-.35-.42-3.13-9.53-7.73-18.55-10.01-28.38-.48-2.07-.97-4.13-.84-6.27.14-2.28-.85-4.31-1.43-6.43-.12-.44-.26-.89,0-1.6.97.71,1.14,1.77,1.55,2.66.47,1,.92,2.01,1.34,3.03.42,1.01,1.12,1.91,1.26,3.04-.25.17-.49.34-.74.51-.39-.2-.25-.91-1.1-.88.15,1.53.38,3.02.76,4.52,1.75,6.93,4.52,13.45,7.49,19.92,1.61,3.51,2.97,7.13,3.81,10.93Z"/>
    <path class="cls-1" d="M301.36,442.72c1.05.5,1.48,1.23,1.88,1.93,3.04,5.38,6.52,10.47,8.85,16.28,2.7,6.72,6.97,12.57,11.59,18.14.34.41.84.72.91,1.33-1.82-1.08-3.98-3.36-5.72-5.97-3.69-5.53-7.48-11-10.19-17.12-.3-.67-.65-1.34-1.08-1.93-2.76-3.75-4.62-7.95-6.23-12.66Z"/>
    <path class="cls-1" d="M286.42,433.68c.18.71.29,1.41-.1,2.27-1.29-1.01-1.84-2.43-2.56-3.65-3.06-5.17-6.4-10.16-9.96-14.98-1.29-1.74-.18-3.34-.7-4.94-.12-.37.8-.05,1.14-.36,0,0-.04-.03-.04-.03-.03.17-.15.41-.09.49,2.69,3.2,4.92,6.73,7.34,10.12l-.04-.05c.17.87.25,1.77,1.15,2.27,0,0-.03-.05-.03-.05-.26.91.37,1.57.71,2.29,1.05,2.23,2.14,4.45,3.21,6.67l-.04-.05Z"/>
    <path class="cls-1" d="M364.48,445.18c1.44,1.29,2.85,2.62,4.33,3.86,6.37,5.32,13.7,8.22,22.01,8.56.28.01.55.01.83.01.71,0,1.35.2,1.4.99.05.91-.53,1.25-1.42,1.26-1.77.02-3.5-.25-5.21-.61-7.25-1.51-13.96-4.14-19.35-9.48-1.25-1.24-2.48-2.47-3.23-4.09.21-.17.43-.34.64-.51Z"/>
    <path class="cls-1" d="M310.43,453.38c-.75-.13-.92-.49-1.09-.8-2.23-4.05-4.67-7.95-7.47-11.64-1-1.32-1.85-2.76-2.65-4.22-1.14-2.06-1.24-2.97-.95-5.52.16.05.43.06.48.17,2.88,6,7.15,11.19,10.03,17.19.71,1.48,1.57,2.9,1.65,4.81Z"/>
    <path class="cls-1" d="M390.02,407.83c.77-1.15.32-1.82-.83-2.32-1.56-.68-3.27-1.09-5.02-2.61,2.56.15,4.36,1.3,6.35,1.54.69.08,1.39.61,2.02-.13,1.77.12,3.31.87,4.98,1.63-.62.43-.83,1-.52,1.15,1.07.52.69,1.73,1.86,2.77-3.41-.67-6.18-1.09-8.85-2.04Z"/>
    <path class="cls-1" d="M399.78,414.38c-.35-.07-.75-.05-1.05-.21-4.91-2.77-10.32-4.06-15.73-5.38-.94-.23-2-.29-2.7-1.13.38-.17.51-.41.2-.76-.06-.3-.13-.6-.2-.9,5.39,1.61,10.78,3.27,16.29,4.45,1.5.32,2.96.62,2.54,2.76-.07.34.41.79.64,1.18Z"/>
    <path class="cls-1" d="M370.98,444.59c7.03,4.11,15.02,3.78,22.59,5.25-8.2,1.06-16.03.52-22.59-5.25Z"/>
    <path class="cls-1" d="M412.89,494.16c.07-.22.13-.45.44-.38.6.03,1.91-.38.86.93-2.09,2.61-4.5,4.96-7.54,6.45-3.48,1.71-7.07,3.21-10.61,4.8-.34.15-.71.2-1.12-.19,1.66-1.8,3.79-2.84,5.96-3.81,3.54-1.59,7.19-2.98,10.17-5.57.72-.63,1.89-.93,1.84-2.21Z"/>
    <path class="cls-1" d="M347.94,387.73c2.82,2.64,6.26,4.11,9.86,5.31,2.09.7,4.15,1.52,6.18,2.37.86.36,1.86.73,1.99,2.38-4.91-3.04-10.36-3.95-15.06-6.63-1.28-.73-2.56-1.45-3.23-2.86-.09-.27-.02-.46.26-.57Z"/>
    <path class="cls-1" d="M301.96,381.38c-5.19-1.63-10.07-3.97-14.88-6.49-.89-.47-1.73-1.06-2.75-1.25.19-.29.38-.57.58-.85,1.38.3,2.54,1.1,3.75,1.76,4.3,2.35,8.89,4.05,13.34,6.07-.01.25-.02.51-.04.76Z"/>
    <path class="cls-1" d="M345.59,252.72c1.54.37,2.78,1.33,4.13,2.07,3.45,1.89,6.95,3.62,10.84,4.4.05.37.1.74.16,1.1-3.07-.31-5.77-1.7-8.47-3.02-2.7-1.32-5.31-2.8-7.96-4.21.44-.12.87-.23,1.31-.35Z"/>
    <path class="cls-1" d="M294.54,388.18c-3.82-1.71-7.73-3.23-11.19-5.69,4.4,1.1,8.38,3.2,12.45,5.09-.29.47-.76.55-1.25.6Z"/>
    <path class="cls-1" d="M424.56,447.3c2.06.45,4.05,1.18,6.17,1.37.49.05.91.25.93.8.01.38-.25.81-.63.75-2.23-.36-4.61-.1-6.61-1.48-.27-.19-.38-.6-.57-.9l.7-.54Z"/>
    <path class="cls-1" d="M440.09,382.43c-.49.57-.89-1.72-1.41-.05-1.14-1.85-2.1-3.77-2.62-5.89.37-.23.74-.45,1.11-.68,1.64,1.91,2.29,4.26,2.92,6.62Z"/>
    <path class="cls-1" d="M333.18,248.83c.49.2.97.43,1.47.61,1.44.51,1.68,1.45,1.01,2.73-.99-.59-2.13-.23-3.18-.57-1.38-.44-1.58-.86-.7-2,.37-.47.86-.64,1.4-.77Z"/>
    <path class="cls-1" d="M347.81,235.5c3.35,1.91,6.6,3.97,9.39,6.7-3.48-1.94-7.04-3.73-10.16-6.25.26-.15.52-.3.77-.45Z"/>
    <path class="cls-1" d="M329.82,334.6c-3.06-1.16-6.09-2.38-8.8-4.26.08-.27.29-.33.53-.34,2.88,1.29,5.87,2.36,8.55,4.06-.1.18-.19.36-.28.54Z"/>
    <path class="cls-1" d="M337.75,262.19c2,.83,4.01,1.64,6,2.49,1.02.44,2.06.68,3.18.62.52.09.56.53.66.92-1.15.49-2.15-.21-3.15-.49-2.09-.59-4.13-1.39-6.19-2.11-.54-.19-.95-.52-1.16-1.07.22-.12.44-.24.66-.36Z"/>
    <path class="cls-1" d="M370.37,400.54c2.34.28,4.57.82,6.45,2.35-.1.23-.19.46-.29.7-2.43-.86-5-1.36-7.26-2.68.36-.12.73-.24,1.09-.36Z"/>
    <path class="cls-1" d="M370.35,233.39c-.31,0-.63.02-.94.02-.55-2.18-.73-4.42-.88-6.65,0-.05.12-.1.46-.37.12,2.51,1.53,4.56,1.36,6.99Z"/>
    <path class="cls-1" d="M359.94,439.68c1.78,1.61,3.15,3.57,4.53,5.5-.21.17-.42.34-.64.51-1.64-1.71-3.1-3.57-4.37-5.57.16-.15.31-.3.47-.44Z"/>
    <path class="cls-1" d="M430.7,453.19c-3.27.36-4.1.12-5.1-1.45,2.19-.4,3.97.1,5.1,1.45Z"/>
    <path class="cls-1" d="M287.29,368.76c1.68.31,3.2.99,4.6,1.94-.14.2-.28.4-.42.61-1.6-.43-3.18-.88-4.36-2.15-.02-.17.04-.3.18-.4Z"/>
    <path class="cls-1" d="M356.76,253.8c1.33.54,2.65,1.09,3.98,1.63-.31.28-.62.56-.93.84-1.38-.51-2.75-1.03-3.88-2.01.28-.15.55-.31.83-.46Z"/>
    <path class="cls-1" d="M327.03,279.45c1.49.38,2.91.91,4.13,1.88-.09.15-.19.3-.28.45-1.45-.65-2.96-1.18-4.29-2.08.04-.26.21-.3.43-.26Z"/>
    <path class="cls-1" d="M428.74,458.22c0,.67-.36,1.01-.98,1.06-.73.06-.94-.42-.93-1.03.01-.67.11-1.34,1.04-1.22.67.08.86.58.87,1.18Z"/>
    <path class="cls-1" d="M360.73,204.57c-.32-.05-.64-.11-.95-.16-.2-.99-.13-1.93.47-3.03.92,1.05.6,2.14.49,3.19Z"/>
    <path class="cls-1" d="M340.37,398.63c-1.15-.31-2.1-.94-3.44-2.01,1.68.23,2.84.31,3.74,1.24-.1.26-.2.51-.3.77Z"/>
    <path class="cls-1" d="M358.71,437c-.29,1.22.94,1.73,1.24,2.68-.16.15-.31.3-.47.44-.73-.56-1.14-1.35-1.58-2.12-.64-1.14.5-.7.85-.96,0,0-.04-.04-.04-.04Z"/>
    <path class="cls-1" d="M292.53,355.38c-.41.93-.72,1.91-1.47,2.64-.18-.22-.37-.44-.55-.66.17-.93.58-1.73,1.24-2.39.26.14.52.28.78.42Z"/>
    <path class="cls-1" d="M360.45,406.61c-.06-.24-.13-.49-.19-.73,1.26.16,2.32.79,3.69,1.51-1.59.57-2.55-.06-3.5-.78Z"/>
    <path class="cls-1" d="M297.71,407.11c.23.28.49.53.69.83.39.58,1.8.96.88,1.8-.67.62-1.35-.58-1.95-1.01-.67-.48-.46-1.28-.06-1.95.15.1.29.22.43.33Z"/>
    <path class="cls-1" d="M362.63,452.01c-1.22-.13-1.83-1.11-2.59-1.87.18-.19.36-.38.54-.56.31.08.63.16.94.24l-.04-.04c-.06.97,1.25,1.27,1.11,2.27l.04-.05Z"/>
    <path class="cls-1" d="M449.32,414.81c-.74-1.05-.66-2.22-.47-3.4.64,1.07.64,2.22.47,3.4Z"/>
    <path class="cls-1" d="M439.39,419.45c.33,0,.66.01,1,.02.15.54.21,1.32-.36,1.36-.94.07-.72-.77-.63-1.38Z"/>
    <path class="cls-1" d="M357.8,516.44c-1.28.25-2.53.25-3.69-.46,1.26-.09,2.52-.22,3.69.46Z"/>
    <path class="cls-1" d="M338.28,241.02c.51.12.49.5.43.89-.48,0-.96,0-1.45,0-.34.02-.74.11-.73-.42,0-.25.14-.44.49-.42.42.03.84-.04,1.26-.06Z"/>
    <path class="cls-1" d="M345.41,517.61c-.89.22-1.68,0-2.4-.54.86-.1,1.7-.08,2.4.54Z"/>
    <path class="cls-1" d="M335.89,242.61c.32-.08.49-.19.64-.16.46.09.83.36,1.03.78.03.06-.18.34-.27.33-.47-.01-.86-.24-1.18-.57-.06-.06-.09-.16-.22-.39Z"/>
    <path class="cls-1" d="M351.08,518.65c-.88.21-1.7.08-2.46-.43.86-.09,1.72-.15,2.46.43Z"/>
    <path class="cls-1" d="M347.77,518.09c-.88.21-1.69.08-2.4-.49.85-.1,1.69-.12,2.4.49Z"/>
    <path class="cls-1" d="M360.04,450.14c-.47-.25-.87-.58-1.12-1.06.21-.21.41-.41.62-.62.35.37.69.75,1.04,1.12-.18.19-.36.38-.54.56Z"/>
    <path class="cls-1" d="M417.5,314.23c-.08.06-.26.23-.28.21-.2-.15-.36-.34-.54-.52.12-.07.25-.23.36-.21.26.04.5.17.46.52Z"/>
    <path class="cls-1" d="M427.66,460.89c-.28-.04-.55-.13-.5-.48.04-.28.21-.53.53-.32.2.14.31.4.46.6-.16.06-.32.13-.49.19Z"/>
    <path class="cls-1" d="M286.83,367.54c-.02.31-.03.62-.06.92-.44-.34-.43-.64.06-.92Z"/>
    <path class="cls-1" d="M387.37,407.08c.29-.19.52-.24.59.2-.29.18-.48.1-.59-.2Z"/>
    <path class="cls-1" d="M348.9,479.01c-.04-.07-.11-.14-.11-.21.03-.25.14-.31.26-.16.04.05.05.17.03.24-.02.06-.12.08-.18.13Z"/>
    <path class="cls-1" d="M423.86,447.84c-.14-.21-.43-.54-.38-.61.36-.48.73-.19,1.08.07-.23.18-.47.36-.7.54Z"/>
    <path class="cls-1" d="M294.87,389.85c.05-.27.1-.53.15-.8.36.34.33.61-.15.8Z"/>
    <path class="cls-1" d="M435.55,375.41c.28.05.41.17.23.45-.29-.04-.34-.2-.23-.45Z"/>
    <path class="cls-1" d="M379.94,249.27c.08.09.17.17.24.26,0,0-.08.09-.13.13,0,0-.19-.16-.19-.16l.08-.23Z"/>
    <path class="cls-1" d="M447.82,417.51c.41.19.48.42.08.71-.03-.24-.06-.47-.08-.71Z"/>
    <polygon class="cls-1" points="345.53 519.38 345.73 519.27 345.85 519.47 345.65 519.58 345.53 519.38"/>
    <path class="cls-1" d="M319.02,326.71c1.2.52,2.4,1.04,3.64,1.57q-1.56.28-3.64-1.57Z"/>
    <path class="cls-1" d="M317.77,325.89c-.11.11-.22.3-.34.3-.39.01-.73-.14-.68-.6,0-.09.3-.2.47-.2.3,0,.49.2.55.5Z"/>
    <path class="cls-1" d="M348.26,398.55c2.49.89,4.78,2.15,7.26,3.61-1.76.26-4.73-1.11-7.53-3.29.09-.11.18-.22.27-.33Z"/>
    <path class="cls-1" d="M338.01,394.37c.96-.43,2.08.09,3.02-.5,1.04-.42,1.83.14,2.65.65-1.92.38-3.81.63-5.67-.15Z"/>
    <path class="cls-1" d="M367.55,405.97c-1.38.09-2.75.17-4-.78q1.75-.59,4.13.62l-.13.16Z"/>
    <path class="cls-1" d="M347.99,398.88c-.33-.15-.69-.25-.97-.46-.19-.14-.45-.5-.39-.62.23-.44.62-.24.9-.03.28.21.49.52.73.78-.1.1-.19.21-.27.33Z"/>
    <path class="cls-1" d="M367.68,405.81c.18,0,.37-.05.53,0,.27.09.81-.08.62.5-.04.12-.48.19-.7.13-.22-.06-.39-.31-.59-.48,0,0,.13-.16.13-.16Z"/>
    <path class="cls-1" d="M404.75,452.62c-.06.49-.33.55-.58.63-2.4.77-3.23,2.49-3.15,4.9.03.82.47,2.39-.53,2.35-1.34-.06-.72-1.63-.58-2.46.41-2.49.96-5,4.01-5.66.27-.06.55-.11.84.24Z"/>
    <path class="cls-1" d="M404.95,463.49c-.42.86-1.01.82-1.53.78-.65-.06-1.41-.32-1.2-1.11.22-.81.85-.23,1.32-.08.42.14.86.25,1.41.41Z"/>
    <path class="cls-1" d="M310.93,390.86c-1.92-.05-3.63-.59-4.97-2.05,1.85.21,3.57.72,4.94,2.08,0,0,.03-.03.03-.03Z"/>
    <path class="cls-1" d="M300.3,385.91c.21-.13.42-.26.64-.38,1.33.53,2.38,1.46,3.47,2.34-.09.13-.18.26-.29.37-1.49-.42-2.79-1.16-3.83-2.33Z"/>
    <path class="cls-1" d="M304.41,387.86c.33.15,1.06.05.76.63-.24.45-.75.12-1.04-.26.1-.12.2-.24.28-.37Z"/>
    <path class="cls-1" d="M309.86,311.88c-1.22-.32-1.96-.52-2.53-1.15q1.08.03,2.53,1.15Z"/>
    <path class="cls-1" d="M322.61,294.56l-.07-.14s.16-.02.16-.01c.09,0,.21-.06.27-.02.29.2.7.26.79.67,0,.03-.11.13-.17.14-.49.05-.91-.03-.98-.63Z"/>
    <path class="cls-1" d="M338.81,242.35c0-.16-.04-.32-.12-.46.08.02.17.02.24.05.27.08.54.17.82.25-.31.05-.63.11-.94.16Z"/>
  </g>
  <g id="water-star1-stroke">
    <path class="cls-2" d="M193.51,233.28c-.07-.89.42-1.51,1.1-2.06,1.11-.9,2.42-1.32,3.76-1.71,6.12-1.8,12.24-3.61,18.35-5.46,2.57-.78,5.05-1.81,7.47-2.95,3.82-1.8,6.31-4.61,7.23-8.88,2.2-10.23,4.3-20.47,6.08-30.78.27-1.55.63-3.08.99-4.61.39-1.63,1.17-2.97,3.05-3.14,1.41-.13,2.6.9,3.14,3,.84,3.22,1.52,6.48,2.2,9.74,1.57,7.52,3.42,14.98,4.63,22.57,1.11,6.95,4.73,11.49,11.62,13.73,5.63,1.83,11.38,3.24,16.95,5.21,2.18.77,4.37,1.51,6.53,2.31.87.32,1.66.8,2.16,1.65,1.07,1.8.6,3.7-1.27,4.66-.82.42-1.71.72-2.59.96-7.85,2.14-15.5,4.95-23.32,7.17-5.3,1.51-8.19,4.61-9.38,10.03-2.32,10.58-4.37,21.2-6.34,31.85-.37,2-.76,4-1.25,5.98-.35,1.4-1.06,2.61-2.71,2.78-1.34.14-2.58-.82-3.23-2.57-1.07-2.89-1.22-5.98-1.7-8.99-1.35-8.6-2.74-17.18-4.53-25.7-.49-2.35-1.18-4.66-1.8-6.99-.66-2.48-2.17-4.21-4.54-5.26-4.24-1.89-8.71-3.09-13.15-4.35-5.34-1.52-10.7-2.94-16.04-4.44-2.55-.72-3.48-1.77-3.42-3.73ZM208.26,233.55c1.08.91,2.41.92,3.62,1.15,5.94,1.14,11.65,2.92,17.03,5.71,3.43,1.77,6,4.29,7.2,8.05.31.97.67,1.92.98,2.89,1.8,5.58,2.3,11.41,3.14,17.17.2,1.39.24,2.82.87,4.14,1.02-.38.97-1.09,1.08-1.69.34-1.91.63-3.84.98-5.75.89-4.73,1.69-9.47,3.29-14.03,1.89-5.37,5.04-9.56,10.47-11.92,5.27-2.29,10.63-4.24,16.21-5.62.51-.13,1.16,0,1.28-.77-.31-.59-.95-.52-1.44-.65-5.92-1.59-11.51-4.03-17.08-6.51-4.56-2.02-7.71-5.35-9.37-10.05-.49-1.39-.91-2.82-1.2-4.27-1.21-5.99-1.99-12.04-2.76-18.1-.09-.73.28-1.73-1.02-2.14-.25,1.59-.51,3.12-.74,4.66-.88,6.14-1.79,12.27-3.31,18.28-1.4,5.52-4.52,9.57-9.85,11.95-5.59,2.5-11.26,4.7-17.14,6.38-.75.22-1.63.22-2.24,1.1Z"/>
  </g>
  <g id="water-star1-color">
    <path class="cls-1" d="M208.26,233.55c.62-.88,1.49-.88,2.24-1.1,5.88-1.68,11.56-3.89,17.14-6.38,5.33-2.38,8.45-6.43,9.85-11.95,1.52-6.02,2.43-12.15,3.31-18.28.22-1.54.48-3.08.74-4.66,1.3.42.92,1.41,1.02,2.14.77,6.06,1.55,12.11,2.76,18.1.29,1.45.71,2.88,1.2,4.27,1.67,4.69,4.82,8.03,9.37,10.05,5.58,2.48,11.17,4.92,17.08,6.51.5.13,1.13.06,1.44.65-.12.77-.77.64-1.28.77-5.57,1.38-10.94,3.34-16.21,5.62-5.43,2.35-8.57,6.54-10.47,11.92-1.61,4.56-2.41,9.3-3.29,14.03-.36,1.91-.64,3.83-.98,5.75-.11.6-.06,1.31-1.08,1.69-.63-1.32-.66-2.74-.87-4.14-.85-5.76-1.34-11.59-3.14-17.17-.31-.97-.67-1.92-.98-2.89-1.19-3.76-3.77-6.28-7.2-8.05-5.38-2.78-11.1-4.57-17.03-5.71-1.21-.23-2.54-.24-3.62-1.15Z"/>
  </g>
  <g id="water-star2-stroke">
    <path class="cls-2" d="M323.28,165.43c-.85-.34-1.75-.6-2.62-.87-5.73-1.8-11.54-3.3-17.01-5.91-3.75-1.79-5.97-4.42-6.7-8.52-1.38-7.74-2.93-15.46-4.39-23.19-.26-1.37-.52-2.73-1.04-4.02-.37-.91-.94-1.59-2.06-1.68-1.39.11-2.07,1.08-2.31,2.33-.35,1.82-.64,3.65-.84,5.49-.76,7.19-2.16,14.28-3.55,21.36-.74,3.77-2.89,6.34-6.28,7.94-1.42.67-2.87,1.27-4.34,1.84-4.15,1.6-8.45,2.72-12.73,3.87-1.07.29-2.13.62-3.17,1.01-1.26.47-1.89,1.47-1.95,2.78-.06,1.4,1.04,1.86,2.09,2.25.78.29,1.6.47,2.41.66,5.13,1.23,10.18,2.71,15.23,4.26,5.34,1.65,8.4,4.91,9.17,10.56,1.1,8.07,2.51,16.1,3.79,24.14.23,1.47.5,2.94,1.17,4.27.76,1.5,2.1,1.57,3.02.19.35-.53.59-1.16.74-1.78.45-1.89.9-3.78,1.23-5.69,1.3-7.57,2.71-15.12,4.24-22.65.79-3.89,3.02-6.38,6.73-7.78,5.29-2,10.7-3.56,16.17-4.95.98-.25,2-.45,2.93-.84,1.03-.44,2.01-1.06,2.07-2.37.06-1.41-.79-2.22-1.99-2.7ZM311.88,168.52c-3.51.9-6.78,2.4-10.02,4-5.3,2.62-8.32,6.91-9.26,12.68-.76,4.65-1.45,9.32-2.17,13.97-.07.43,0,.91-.49,1.3-.68-1.1-.59-2.31-.61-3.49-.09-4.64-.77-9.2-1.82-13.72-1-4.28-3.3-7.52-7.08-9.83-3.74-2.29-7.62-4.15-11.96-4.98-.81-.15-1.61-.39-2.4-.59.09-.94.83-.89,1.41-1.09,3.06-1.05,6.12-2.11,9.16-3.19,1.75-.62,3.32-1.61,4.86-2.64,3-2.02,4.83-4.78,5.48-8.34,1.02-5.64,1.54-11.35,2.52-17.07,1.11,3.13,1.29,6.46,1.93,9.69.47,2.36.81,4.74,1.31,7.09,1.01,4.74,3.71,8.22,8.1,10.28,4.09,1.92,8.21,3.78,12.65,4.93-.38.76-1.03.85-1.62,1Z"/>
  </g>
  <g id="water-star2-color">
    <path class="cls-1" d="M289.51,135.53c1.11,3.13,1.29,6.46,1.93,9.69.47,2.36.81,4.74,1.31,7.09,1.01,4.74,3.71,8.22,8.1,10.28,4.09,1.92,8.21,3.78,12.65,4.93-.38.76-1.03.85-1.62,1-3.51.9-6.78,2.4-10.02,4-5.3,2.62-8.32,6.91-9.26,12.68-.76,4.65-1.45,9.32-2.17,13.97-.07.43,0,.91-.49,1.3-.68-1.1-.59-2.31-.61-3.49-.09-4.64-.77-9.2-1.82-13.72-1-4.28-3.3-7.52-7.08-9.83-3.74-2.29-7.62-4.15-11.96-4.98-.81-.15-1.61-.39-2.4-.59.09-.94.83-.89,1.41-1.09,3.06-1.05,6.12-2.11,9.16-3.19,1.75-.62,3.32-1.61,4.86-2.64,3-2.02,4.83-4.78,5.48-8.34,1.02-5.64,1.54-11.35,2.52-17.07Z"/>
  </g>
  <g id="water-star3-stroke">
    <path class="cls-2" d="M490.49,245.1c.12,1.86-1.1,2.39-2.38,2.74-3.12.85-6.26,1.66-9.4,2.42-3.51.85-6.96,1.87-10.43,2.86-3.94,1.13-6.28,3.61-7.29,7.56-1.49,5.83-2.65,11.73-3.85,17.63-.48,2.36-1.01,4.7-1.56,7.04-.19.8-.46,1.6-.81,2.35-.4.85-.93,1.61-2.07,1.54-1.15-.07-1.53-.86-1.83-1.79-.76-2.4-1.08-4.89-1.44-7.35-.98-6.7-2.69-13.24-4.03-19.86-.62-3.04-2.48-5.11-5.22-6.44-2-.97-4.11-1.69-6.24-2.3-4.09-1.16-8.2-2.27-12.3-3.41-.8-.22-1.63-.43-2.36-.79-2.42-1.21-2.53-3.72-.3-5.28.86-.6,1.86-.82,2.83-1.11,5.06-1.5,10.03-3.23,14.97-5.07.78-.29,1.54-.62,2.31-.94,3.03-1.29,4.85-3.54,5.6-6.77,1.55-6.68,2.95-13.38,3.98-20.16.22-1.46.46-2.93.74-4.38.14-.73.32-1.45.58-2.14.45-1.24.99-2.61,2.5-2.65,1.5-.04,2.19,1.22,2.6,2.51.39,1.23.73,2.48,1.02,3.74,1.44,6.22,3.1,12.4,4.22,18.68,1.18,6.63,4.73,10.74,11.14,12.75,5.11,1.6,10.1,3.59,15.14,5.42.87.32,1.72.69,2.53,1.12.86.47,1.42,1.18,1.35,2.09ZM477.68,245.07c-.18-.85-.68-.87-1.11-1-3.46-1.06-6.72-2.59-10.01-4.06-5.98-2.67-9.35-7.31-10.5-13.69-.72-4-1.51-7.99-2.29-11.98-.18-.93-.29-1.92-1.06-2.92-.98,1.5-.97,2.99-1.18,4.4-.7,4.66-1.2,9.35-2.16,13.98-.86,4.18-3.2,7.2-6.95,9.17-2.22,1.17-4.54,2.08-6.92,2.82-1.76.55-3.54,1.07-5.3,1.63-.47.15-1.15.03-1.23.79.29.66.94.52,1.43.67,4.89,1.49,9.52,3.5,13.83,6.3,2.87,1.87,4.71,4.38,5.66,7.6,1.24,4.17,2.34,8.37,2.77,12.72.06.58-.06,1.36.91,1.43.5-1.02.57-2.14.7-3.23.34-2.76.99-5.46,1.69-8.14,1.46-5.59,4.6-9.76,9.9-12.32,3.77-1.82,7.72-3.05,11.8-4.16Z"/>
  </g>
  <g id="water-star3-color">
    <path class="cls-1" d="M477.68,245.07c-4.08,1.11-8.03,2.34-11.8,4.16-5.3,2.56-8.44,6.73-9.9,12.32-.7,2.68-1.35,5.38-1.69,8.14-.13,1.09-.2,2.21-.7,3.23-.97-.08-.85-.86-.91-1.43-.44-4.35-1.54-8.55-2.77-12.72-.96-3.23-2.8-5.73-5.66-7.6-4.3-2.8-8.94-4.81-13.83-6.3-.5-.15-1.14-.01-1.43-.67.08-.75.76-.64,1.23-.79,1.76-.56,3.53-1.08,5.3-1.63,2.39-.74,4.71-1.65,6.92-2.82,3.75-1.97,6.09-4.99,6.95-9.17.96-4.62,1.46-9.31,2.16-13.98.21-1.41.2-2.9,1.18-4.4.77,1.01.87,1.99,1.06,2.92.78,3.99,1.57,7.98,2.29,11.98,1.15,6.38,4.51,11.03,10.5,13.69,3.29,1.47,6.56,3,10.01,4.06.43.13.93.15,1.11,1Z"/>
  </g>
</svg>