<?xml version="1.0" encoding="UTF-8"?>
<svg xmlns="http://www.w3.org/2000/svg" version="1.1" viewBox="0 0 684 684">
  <defs>
    <style>
      .cls-1 {
        fill: #5c9ec9;
      }

      .cls-1, .cls-2 {
        stroke-width: 0px;
      }

      .cls-2 {
        fill: #1e2a3e;
      }

    </style>
  </defs>
  <g id="_1977-stroke" data-name="1977-stroke">
    <g>
      <path class="cls-2" d="M231.44,461.13c-5.87,0-11.74,0-17.61,0-.73,0-1.47.03-2.2-.04-2.49-.21-3.29-1.3-2.41-3.6,1.43-3.77,2.96-7.5,4.54-11.2,10.14-23.85,19.89-47.87,30.36-71.58,1.18-2.68,2.27-5.4,3.38-8.11,1.21-2.94.87-3.38-2.24-3.19-5.13.33-10.25.39-15.39-.09-5.36-.5-10.41-2.1-15.32-4.14-22.49-9.35-36.71-25.98-42.38-49.55-3.7-15.36-1.8-30.54,4.61-44.91,10-22.42,27-36.8,50.93-42.7,6.46-1.59,13.08-1.67,19.69-1.39,8.12.35,16.08,1.7,23.44,5.27,16.28,7.89,28.77,19.62,36.38,36.31,5.73,12.58,7.97,25.66,6.47,39.38-.91,8.26-3.49,16.09-6.22,23.88-6.28,17.88-12.87,35.65-19.68,53.33-6.42,16.66-13.46,33.08-20.55,49.47-4.21,9.75-8.53,19.46-12.8,29.18-.18.42-.46.81-.57,1.25-.55,2.1-2.05,2.51-3.99,2.49-6.14-.06-12.28-.02-18.43-.02,0-.01,0-.03,0-.04ZM268.16,306.43c1.13-2.61,1.86-5.36,2.59-8.1.99-3.74.75-7.45-.59-11.07-1.09-2.92-2.36-5.77-3.88-8.49-2.46-4.41-5.66-8.22-10.48-10.11-10.47-4.13-20.62-4.01-29.86,3.23-8.7,6.82-12.09,15.83-10.37,26.7.96,6.04,4.1,10.9,8.83,14.75,2.5,2.03,5.18,3.75,8.09,5.15,9.51,4.57,18.48,3.3,27.03-2.47,3.6-2.43,6.92-5.16,8.56-9.39l.17-.04-.08-.14ZM188.8,327.3c.49,1.26,1.41,2.22,2.19,3.28,1.05,2.63,3.05,4.52,5.1,6.33,2.06,1.82,4.18,3.58,6.27,5.36,5.07,4.33,10.6,7.9,17.09,9.65,4.86,1.31,9.8,2.27,14.79,3,4.07.59,8.1,1.23,12.13-.1.09-.03.19-.06.24-.12.04-.04,0-.14.01-.22-.29-.64-1.49-.39-1.4-1.41.88-.86,2.36-.04,3.3-1.16-.66-.45-1.31-.32-1.89-.42-.64-.11-1.5-.21-1.48-.94.02-.92.96-.66,1.53-.61,1.59.15,3.01-.31,4.5-.9-.78-.64-1.69-.14-2.44-.47-.6-.26-1.31-.56-1.2-1.28.08-.59.8-.62,1.35-.7.96-.15,2.11.26,3-.9-.85-.14-1.49-.2-2.1-.36-.46-.12-.81-.45-.7-1,.09-.47.51-.46.86-.5,1.15-.11,2.4.18,3.43-.83-.47-.54-1.49-.37-1.71-1.37.7-1.12,2.4-1.09,3.16-2.25-.5-.83-1.44-1.3-1.29-2.41.94-.64,2.22-.73,3.13-1.62-.75-.64-1.8.21-2.54-.71,1.6-1.09,3.75-.99,5.15-2.4.06-.03.14-.05.19-.09.03-.02.02-.09.04-.13-.06.08-.13.17-.19.25-1.45-.38-2.86.52-4.81.28,2.9-1.31,5.68-1.73,7.78-3.67-.77-.64-1.58.77-2.24-.23.88-.96,2.09-1.43,3.16-2.1.39-.24.98-.77.72-1-1.48-1.3.22-1.38.68-1.84.44-.45,1.04-.74,1.28-1.37l.11-.12-.09.14c-.36.04-.81-.04-1.06.14-4.79,3.65-10.72,4.61-16.1,6.85-1.35.56-2.82.77-4.31.72-5.1-.19-10.03-1.51-14.57-3.55-7.89-3.54-14-9.26-17.82-17.19-1.19-2.46-2.4-4.91-3.6-7.37-1.46-4.53-1.72-9.16-.95-13.84,1.2-7.26,3.46-14.11,8.93-19.34,10.43-9.95,22.84-13.05,36.75-9.68,5.9,1.43,11.45,3.86,15.53,8.71-.03.31.08.54.41.6.55,1.16,1.29,2.2,2.1,3.19,3.6,4.33,5.58,9.35,6.32,14.9-.23,1.01.04,2,.15,3,.34,3.01.65,6.04-.36,8.99-1.77,5.16-2.11,10.58-3.05,15.89-.22,1.23-.18,2.45.41,3.48,1.08,1.87.84,3.65.09,5.5-.62,1.52-1.17,3.08-1.85,4.58-2.59,5.67-5.26,11.29-7.62,17.06-4.4,10.76-8.95,21.47-13.48,32.18-2.17,5.15-4.5,10.23-6.62,15.4-2.23,5.42-4.2,10.95-6.46,16.35-5.7,13.6-11.44,27.18-16.78,40.93-.32.82-.93,1.63-.53,2.57.43.32.9.28,1.35.26,7.14-.18,14.29-.34,21.43-.56,1.18-.04,2.36-.29,3.54-.46.62-.09,1-.44,1.02-1.08.1-3.42,2.05-6.21,3.15-9.29.23-.64.91-1.2.32-2.18-1.08,1.69-2.12,3.27-2.79,5.06-.43,1.14-1.02,1.7-2.25.97-.26-.16-.65-.4-1.04.02.04.22.05.48.13.73.2.62,1.28.97.57,1.86-.46.58-.9,1.18-1.67,1.37-.44.11-.9.2-1.35.2-.85,0-1.17-.39-.75-1.23.49-.98.91-1.99,1.42-2.95.92-1.73.95-1.76,2.89-1.13.7.23,1.08,0,1.3-.54.27-.68-.08-1.02-.79-1.03-.27,0-.55,0-.82-.02-.48-.03-1.05-.18-.92-.72.16-.68.57-1.44,1.46-1.24.57.13,1.07.57,1.6.88.81-.61,1.1-1.46,1.25-2.39l-.03.05c1.27-1.49,1.73-3.4,2.7-5.05.37-.63.59-1.42,1.1-1.89,3-2.73,4.6-6.31,6.13-9.93,1.14-2.7,2.19-5.44,3.39-8.11,3.91-8.68,7.85-17.34,11.82-25.99,2.33-5.09,3.88-10.48,5.94-15.67,3.75-9.45,7.66-18.84,11.38-28.3,1.54-3.9,3.3-7.73,4.25-11.85.32-.95.63-1.9.95-2.86,3.12-9.27,6.01-18.59,6.82-28.42.59-.78.59-1.61.19-2.47.02-.41.04-.82.06-1.23.46-1.54,1.97-2.77,1.34-4.63.03-.38.05-.76.08-1.14.44-3.06,0-6.04-.88-8.97-.2-1.73-.47-3.45-.99-5.12-2.49-8.01-5.71-15.69-10.76-22.44-9.45-12.62-21.22-22.01-37-25.36-16.44-3.5-32.1-1.26-46.59,7.44-12.94,7.77-21.72,19.17-27.63,32.9-.94,2.19-1.6,4.48-2.16,6.8-3.1,12.93-2.02,25.66,1.99,38.21,1.42,4.45,3.22,8.75,6.24,12.42l-.04-.04Z"/>
      <path class="cls-2" d="M408.77,266.32c-3.03-.4-5.97-.24-8.88-.03-9.16.66-18.33.39-27.5.64-4.94.13-4.1-.32-4.09,4.12.02,8.8.1,17.61.16,26.41.02,3.1.01,3.13-3.18,3.42-10.16.91-20.34.55-30.51.58-2.47,0-4.95.04-7.42.1-2.27.06-2.71-.28-2.78-2.65-.14-4.22-.22-8.43-.29-12.65-.31-19.07-.03-38.15-.08-57.22,0-1.37.03-2.73-.26-4.1-.39-1.87.66-3.18,2.61-3.29,2.01-.11,4.03-.07,6.05-.07,38.15,0,76.29,0,114.44-.02,2.93,0,5.85.1,8.78-.33,2.62-.38,4.19,1.14,4.05,3.87-.13,2.56-.49,5.11-.74,7.66-.67,6.84-1.4,13.68-1.97,20.53-.65,7.9-2.48,15.55-4.67,23.13-4.11,14.26-7.34,28.75-11.06,43.11-3.93,15.16-7.74,30.35-11.69,45.51-7.13,27.39-14.21,54.79-20.92,82.29-.96,3.92-1.81,7.85-2.44,11.84-.52,3.29-1.36,4.02-4.74,4.04-3.02.02-6.05-.05-9.07-.23-3.94-.24-7.87-.15-11.82-.01-6.6.23-13.2.31-19.8.4-2.25.03-2.22-.03-2.22-2.33.01-3.88.74-7.65,1.73-11.38,6.54-24.7,12.87-49.47,19.66-74.1,5.26-19.08,10.47-38.17,15.19-57.39,3.95-16.11,8.41-32.08,12.79-48.07.31-1.14.79-2.25.66-3.77ZM394.65,348.72c-.3.21-.41.48-.24.82-.07.25-.14.49-.21.74-.59.76-.66,1.69-.89,2.57-1.59,6.11-3.18,12.23-4.77,18.33-1.41,5.4-3.12,10.74-4.2,16.21-3.08,15.54-6.84,30.91-10.88,46.23-1.68,6.37-3.76,12.63-5,19.12-.31,1.65-.3,1.75,1.37,1.74,9.16-.07,18.32.21,27.48-.36,1.34-.08,1.98-.52,2.21-1.84,2.14-12.37,5.67-24.41,8.54-36.61,2.47-10.49,5.37-20.9,8.42-31.26,6.58-22.39,12.76-44.9,18.26-67.58.15-.62.34-1.24.12-1.89.45-1.53.89-3.06,1.34-4.59.27-.2.32-.46.18-.76,1.22-5.26,2.5-10.5,3.66-15.78,1.44-6.53,3.91-12.77,5.43-19.28,1.2-5.16,3.15-10.18,3.43-15.52.41-7.97,1.38-15.86,2.69-23.72.17-1.02.41-2.09-.05-3.07-.94.04-1.28.64-1.72,1.07-5.31,5.31-10.61,10.62-15.9,15.96-5.61,5.66-11.32,11.21-17.44,16.31-.7.59-1.01,1.24-1.22,2.04-.8,3.1-1.64,6.19-2.41,9.3-2.78,11.09-5.55,22.19-8.32,33.29-.54.52-.64,1.15-.46,1.85-.16.66-.32,1.32-.48,1.98-.27.19-.31.43-.15.71-3,10.61-5.45,21.37-8.2,32.04-.16.64-.82,1.31-.11,2.02l.04-.09c-.18-.18-.36-.17-.52.03ZM349.6,255.22c.05-.06.14-.13.13-.18-.02-.13-.08-.25-.13-.37-.17-.58-.68-.59-1.14-.69-.54-1.21-1.54-2.02-2.45-2.92-4.89-4.82-9.69-9.73-13.95-15.14-.34-.43-.38-1.27-1.31-1.14.16,3.67.39,7.33.46,10.98.29,14.93.52,29.86.78,44.79.05,2.59.06,2.62,2.78,2.66,5.31.07,10.62.15,15.94.17,2.75.01,5.49-.13,8.24-.12,1.2,0,1.55-.46,1.54-1.63-.1-8.42.31-16.86-.68-25.26.5-1.76-.67-2.39-1.97-2.94-1.64-1.8-3.28-3.6-4.92-5.41-.22-.59-.75-.53-1.22-.6-.43-1.02-.77-2.13-2.14-2.27,0,0,.03.08.03.08ZM424.69,249.51c7.52-6.42,15.3-12.51,23.01-18.68.45-.36,1.16-.61,1.09-1.29-38.38,0-76.73,0-115.07,0-.05,0-.12.11-.16.18-.19.31.28.11-.23.32,2.75,2.24,5.43,4.43,8.11,6.62.1.47.38.77.86.86,1.21.86,1.94,2.29,3.39,2.88l-.06-.06c2.97,3.55,6.21,6.83,9.69,9.88.05.04.18,0,.27,0-.15.75.39,1.17.81,1.64,1.16,1.29,2.41,2.51,3.49,3.86,1.59,1.97,3.39,2.77,6.08,2.7,12.52-.29,25.05,0,37.57-.3,3.27-.08,6.56-.64,9.83.22.79.21,1.38-.39,1.94-.84,3.18-2.6,6.39-5.17,9.37-8Z"/>
      <path class="cls-2" d="M538.37,221.49c21.09,0,42.18,0,63.27,0,.46,0,.92-.02,1.38,0,2.43.12,3.33.96,3.28,3.39-.06,2.93-.23,5.87-.47,8.79-.68,8.13-.88,16.29-1.9,24.4-1.07,8.49-3.29,16.71-5.41,24.95-7.09,27.5-14.57,54.89-21.46,82.44-6.38,25.5-12.78,51-19.22,76.48-1.44,5.69-2.91,11.36-3.77,17.17-.11.72-.32,1.43-.48,2.15-.25,1.14-.97,1.71-2.13,1.77-.64.03-1.28.1-1.92.11-13.11.07-26.22.14-39.34-.08-.37,0-.73.01-1.1-.01-2.39-.18-2.6-.44-2.68-2.81-.11-3.54.92-6.89,1.82-10.24,9.54-35.75,18.66-71.61,27.81-107.47,5.3-20.77,10.96-41.45,16.72-62.1,1.06-3.79,2.01-7.62,2.95-11.44.63-2.56.54-2.69-2.05-2.68-6.51.02-13.02.1-19.53.17-5.68.06-11.37.14-17.05.22-2.25.03-2.27.05-2.31,2.26-.18,9.17.12,18.34.39,27.5.03.92.08,1.83.05,2.75-.07,2.07-.5,2.51-2.62,2.68-.82.07-1.65.05-2.47.05-12.01.02-24.03.04-36.04.05-2.63,0-4.31-1.68-4.08-4.27.91-10.07.37-20.16.31-30.24-.1-14.12-.21-28.24-.3-42.36-.02-2.57.81-3.46,3.43-3.5,4.22-.07,8.44-.05,12.65-.05,17.42,0,34.85,0,52.27,0v-.09ZM503.47,263.72c.18-.59.15-1.11-.52-1.4-.38-.42-.36-.97-.47-1.47-.2-1.19-1.18-1.53-2.09-1.94-.4-.64-.81-1.29-1.21-1.93-.16-.82-.86-1.04-1.49-1.35-.53-.92-1.43-1.44-2.22-2.08l-.7-.58c-3.71-3.8-7.4-7.62-11.13-11.4-2.36-2.39-4.84-4.65-6.21-7.92-.64.7-.39,1.36-.38,1.95.4,18.61.85,37.22,1.21,55.83.03,1.62.77,1.72,2.02,1.72,8.44,0,16.87.05,25.31.06.78,0,1.64.22,2.44-.45-.58-1.81-.67-3.72-.6-5.64.09-2.57.2-5.13.28-7.7.08-2.84.16-5.68.19-8.52.02-1.57-.2-3.15-.88-4.54-.17-.36-.5-3.28-2.13-.73-.16.24-.68.05-.83-.38-.19-.52-.38-1.03-.57-1.55ZM502.58,250.29c1.88,2.47,3.94,4.79,6.19,6.94.93.89,1.81,1.26,3.12,1.23,14.58-.24,29.16-.35,43.74-.65,1.7-.03,3.38,1.27,5.04.1,1.49-1.06,2.92-2.2,4.38-3.32.29-.22.57-.47.84-.7,8.79-7.5,17.81-14.72,26.98-21.75.98-.75,2.05-1.44,2.87-2.56-5.15-.65-113.1-.29-115.51.37.33,1.05,1.27,1.52,2.04,2.13,2.29,1.83,4.53,3.74,6.94,5.41,2.37,1.63,3.89,4.13,6.3,5.69.09.29.26.49.57.55.12,1.23,1.03,1.51,2.03,1.66.01.18.02.35.04.53.78,1.44,2.27,2.16,3.37,3.28.19.53.55.89,1.07,1.09ZM558.24,284.03c-.05.28-.1.55-.14.83-.22.6-.5,1.18-.65,1.79-1.51,6.04-2.92,12.11-4.5,18.14-6.79,25.87-14.01,51.63-19.47,77.84-1.83,8.8-4.38,17.41-6.39,26.16-3.37,14.64-6.97,29.23-11.39,43.6-.18.58-.54,1.19-.12,2.06,3.1,0,6.29.01,9.49,0,6.33-.03,12.65-.1,18.98-.09,2.09,0,3.13-.45,3.07-2.79-.03-1.24.48-2.5.77-3.75,1.82-7.76,4.27-15.36,6.08-23.1,2.43-10.45,5.32-20.75,8.26-31.05,3.04-10.65,6.24-21.27,8.85-32.03,3.07-12.64,6.15-25.27,9.67-37.79.84-2.98,1.88-5.92,2.16-9.04,3.56-13.45,6.67-27,10.31-40.43,2.98-10.98,4.55-22.23,4.96-33.62.1-2.78.41-5.55.63-8.34-.99-.03-1.35.59-1.8.98-3.47,2.99-6.65,6.29-9.97,9.45-7.09,6.76-14.16,13.55-21.63,19.9-1.69,1.43-2.7,3.09-3.09,5.29-.92,5.14-2.51,10.12-3.79,15.17-.32.21-.4.5-.27.86Z"/>
      <path class="cls-2" d="M153.29,342.33c.14,35.94.33,71.88.96,107.82.04,2.47.29,4.94.4,7.41.05,1.19.14,2.39-.15,3.56-.44,1.74-1.08,2.29-2.87,2.37-.91.04-1.83-.07-2.75-.08-11.83,0-23.66-.04-35.48,0-4.21.02-5.42-1.02-5.48-5.29-.25-17.79-.44-35.57-.73-53.36-.39-24.39-1.1-48.77-.77-73.16.19-13.94-.03-27.87-.04-41.8,0-1.83.11-3.67.18-5.5.09-2.41-.14-2.71-2.63-2.57-2.28.13-4.56.45-6.84.69-3.1.33-6.18.79-9.21,1.49-2.35.54-4.74.49-7.12.4-2.33-.09-3.25-1.2-2.96-3.53.24-1.93-.03-3.85-.03-5.77,0-10.54.02-21.09-.07-31.63-.01-1.64.78-2.3,2.04-2.81,3.31-1.35,6.63-2.66,9.92-4.02,8.73-3.61,17.12-7.92,25.17-12.85,2.44-1.49,4.91-2.21,7.77-2.16,5.96.11,11.92,0,17.88.02,2.57,0,5.13-.16,7.69-.37,3.27-.28,4.73,1.26,4.61,4.51-.11,3.11-.21,6.23-.2,9.35.06,20.45-.08,40.9.29,61.34.27,15.31.32,30.62.4,45.93ZM113.6,279.84c-.33,1.36-.35,2.73-.07,4.11.02,5.94.05,11.88.07,17.82-.37.98-.22,2-.2,3,.15,10.08.09,20.16.35,30.24.49,19.05.43,38.12,1.15,57.17.45,11.81.11,23.64.57,35.46.32,8.15.39,16.3.59,24.46.06,2.41.07,2.46,2.48,2.46,6.51,0,13.02-.03,19.53-.05,1.93,0,3.85,0,5.77-.06,2.03-.07,2.1-.11,2.08-1.98-.05-3.67-.13-7.33-.31-10.99-.12-2.47-.18-4.92.01-7.4.18-2.23.63-4.53-.29-6.74.03-3.24.05-6.48.08-9.71.59-1.88.55-3.75,0-5.63-.02-.92-.04-1.83-.04-2.75-.22-34.08.74-68.15.03-102.23-.31-15.11.05-30.23-.45-45.34-.3-8.97-.21-17.95.83-26.9.03-.28.26-.74-.4-.84-1.57.94-2.63,2.42-3.68,3.91-2.37,3.37-4.51,6.89-7.04,10.15-5.67,7.31-11.3,14.65-16.97,21.95-2.28,2.93-4.39,5.9-4.07,9.89ZM144.44,229.31c-7.77.08-14.99.03-22.19.58-.87.07-1.54.53-2.27.91-4.69,2.47-9.38,4.95-14.08,7.4-4.22,2.2-8.52,4.21-13.12,5.52-1.6.46-2.99,1.32-4.39,2.21-1.44.92-2.02,2.02-2.01,3.82.08,8.06-.02,16.11-.05,24.17,0,.53-.19,1.11.32,1.55.72.18,1.44,0,2.15-.14,3.05-.61,6.1-1.23,9.14-1.85,1.97-.4,3.95-.75,5.91-1.23,1.93-.47,3.52-1.38,4.38-3.37.39-.89,1.14-1.66,1.81-2.4,3.88-4.28,7.3-8.92,10.72-13.57,4.65-6.3,10.06-11.85,16.28-16.62,2.53-1.94,4.91-4.07,7.39-6.99Z"/>
      <path class="cls-2" d="M231.87,439.65c-.55,1.52-1.2,2.95-2.83,3.67-.41.18-.69.76-.47,1.17.36.64.65.06,1.01-.17,1.27-.83.88,1.06,1.87,1.08-.32-1.5-.19-2.57,1.24-3.78,1.64-1.39,2.44-3.76,3.61-5.7.42-.69.7-1.5,1.54-1.84l-.03-.03c.31,1.93-1.08,3.21-1.83,4.73-1.04,2.12-2.52,4.03-2.77,6.49-.05.5-.61,1.07.13,1.37.61.25,1.05-.19,1.18-.8,1-4.55,3.79-8.29,5.57-12.49.98-2.3,1.9-4.67,3.52-7.26.3,1.79-.16,2.91-.57,3.93-1.37,3.46-2.6,6.98-4.52,10.23-.6,1.02-1.19,2.41-1.34,3.89-.16,1.54-1.69,2.77-2.12,4.4-.3,1.14-1.03,1.49-2.07,1.1-2.42-.91-4.86-1.02-7.34-.35-.15.04-.35-.06-.75-.14.28-2.77,2.04-4.95,3.03-7.42.97-2.41,2.06-4.78,3.11-7.21.4.44,1.47,1.1,1.18,1.13-1.81.21-.96,1.94-1.75,2.78-1.04,1.1.34,1.08,1.15.98.08.07.17.14.25.22ZM229.79,447.47c-.24-.93-.83-1.31-1.75-1.24-.15.01-.42.2-.41.29.05,1.03,1.11.64,1.6,1.09.06.06.31-.08.57-.15ZM232.47,447.45c-.29,0-.48.16-.48.44,0,.28.17.47.48.37.14-.05.3-.17.35-.29.1-.28-.07-.45-.34-.51Z"/>
      <path class="cls-2" d="M236.34,448.87c3.62-8.14,7.37-15.6,10.12-23.5.94.3.64.85.48,1.34-1.63,4.93-3.26,9.85-4.9,14.77-.12.35-.38.69-.37,1.03.04,1.21-1.92.67-1.65,1.8.25,1.02.03,1.74-.6,2.47-.39.45-.64,1.03.07,1.32.53.22.74-.39.94-.78,3.05-6.05,6.08-12.1,7.77-18.71.08-.32.07-.75.59-.81.78.35.3.89.16,1.35-.99,3.2-2.11,6.37-2.97,9.61-.78,2.92-2.36,5.46-3.48,8.22-.58,1.43-1.39,2.03-2.88,1.92-.9-.07-1.81-.01-3.28-.01Z"/>
      <path class="cls-2" d="M237.84,434.08c.05-2.89,1.82-5.23,2.41-7.91.79-.01.93.5.73.89-1,2.02-1.65,4.18-2.38,6.3-.1.29-.52.46-.8.69,0,0,.03.03.03.03Z"/>
      <path class="cls-2" d="M249.32,437.28c-.38-.02-.97-.06-.88-.39.23-.9.06-2.04,1.16-2.54.48-.22.9,0,1.17.38.32.45.2.85-.39.97-.72.16-1.24.25-.52,1.18.41.54-.36.25-.53.39Z"/>
      <path class="cls-2" d="M250.5,438.96c-.69.53-1.49.63-2.32.62-.51,0-.9-.15-.94-.72-.04-.53.27-.96.74-.97.97-.02,2.06-.14,2.49,1.12,0,0,.03-.05.03-.05Z"/>
      <path class="cls-2" d="M231.62,439.43c.17-1,.6-1.78,1.8-2.29-.03,1.36-.65,2.02-1.55,2.51-.08-.07-.16-.15-.25-.22Z"/>
      <path class="cls-2" d="M237.08,430.36c.06.51-.19.88-.66.95-.33.05-.7-.16-.66-.61.04-.49.35-.77.83-.83.33-.04.42.23.49.49Z"/>
      <path class="cls-2" d="M234.78,434.92c-.3-.74-.22-1.25.2-1.66.07-.07.4-.03.45.06.41.69.1,1.17-.65,1.6Z"/>
      <path class="cls-2" d="M250.21,422.82c.34.53.31,1.04-.08,1.5-.07.08-.4.07-.45,0-.45-.7-.19-1.18.53-1.5Z"/>
      <path class="cls-2" d="M234.41,436.09c-.06.13-.12.27-.18.4-.06-.05-.18-.12-.18-.15.04-.14.11-.28.18-.41.06.05.12.11.18.16Z"/>
      <path class="cls-2" d="M382.56,447.28c-.36-.07-.9.63-1.06-.16-.08-.41.11-.9.27-1.32,1.72-4.31,2.96-8.77,4.17-13.25.26-.98.46-1.94.57-2.93.06-.54.18-1.18.96-.94.51.16.68.72.43,1.12-1.13,1.84-.59,4.16-1.8,5.95-.46.68-.1,1.43-.25,2.14-.71.54-.78,1.08,0,1.63.06.25.13.3.17.15,0-.02-.13-.08-.2-.12,0-.56,0-1.12,0-1.69,2.5-1.76,2.38-4.73,3.22-7.22,1.47-4.42,2.73-8.91,4.09-13.37.08-.25.18-.54.72-.42-.07,2.5-.62,4.99-1.23,7.39-1.24,4.85-2.8,9.62-4.23,14.42-.05.17-.19.32-.23.5-.18.7-.52,1.62.39,1.88,1.04.29,1.02-.78,1.17-1.44,1.19-5.35,2.35-10.72,4.45-15.81.95-2.32,1.97-4.61,2.84-7.63.61,1.57.22,2.44-.04,3.33-1.66,5.7-3.74,11.29-5.02,17.1-.71,3.21-1.6,6.38-2.65,9.51-.39,1.17-.97,1.95-2.54,1.64-.06-1.17.81-1.98,1.13-2.95.17-.52.52-.97.67-1.49.18-.64.21-1.37-.69-1.46-.67-.07-.85.43-.9,1.07-.23,2.9-1.5,5.24-4,6.81-1.18.74-2.44,1.28-3.87,1.22-.23,0-.54-.17-.66-.35-.25-.41.09-.72.41-.87,1.36-.65,3.04-.8,3.7-2.48q1.33-1.57.99-3.36c-.4,1.34-1.01,2.25-.95,3.39ZM385.06,441.11c-.96.32-.83,1.05-.71,1.76.04.24.2.3.46.16.34-.57.65-1.18.25-1.92Z"/>
      <path class="cls-2" d="M399.72,416.87c.61,1.17.34,2.29-.01,3.41-.87,2.78-1.74,5.57-2.59,8.36-.29.96-.52,1.93-.74,2.91-.06.27.1.52.37.65.3.14.61,0,.71-.24.6-1.49,1.72-2.78,1.86-4.42.05-.58-.14-1.18.62-1.14,1.02.04.72.85.59,1.44-.33,1.52-.6,3.06-1.06,4.53-1.37,4.38-1.8,8.94-2.73,13.4-.84,4.05.07,3.52-4.38,3.99-1.63.17-3.29.06-4.93.03-.46,0-.96-.22-1-.74-.05-.56.43-.87.89-.77,2.34.48,2.75-1.19,3.21-2.81,1.38-4.83,2.78-9.64,4.11-14.48.75-2.74,1.72-5.39,2.88-7.98.89-1.99,1.15-4.17,2.21-6.15ZM393.09,446.95c.87-.57.94-1.24,1.26-1.76q.96-1.49-1.14-2.06c-.33,1.21-.42,2.41-.12,3.82ZM396.39,440.94c-.95-1.04-1.55-1.84-.42-2.72.21-.16.01-.5-.22-.67-.33-.25-.76-.28-.95.06-.3.55-.5,1.16-.66,1.77-.42,1.64-.26,1.77,2.25,1.56ZM397.41,434.18c-.24-.78-.9-1.01-1.63-1.04-.43-.02-.64.39-.55.74.23.9,1.12.71,1.76.89.23.07.41-.26.42-.59Z"/>
      <path class="cls-2" d="M379.23,439.57c1.64-1.86,2.97-3.88,3.34-6.4.04-.26.12-.55.27-.76.2-.29.46-.58.9-.43.31.1.4.37.39.63-.01.72.04,1.48-.13,2.17-.97,3.89-1.89,7.79-3.3,11.55-.85,2.27-1.43,2.58-4.14,2.31.44-3.17,2-6,2.69-9.1l-.03.03Z"/>
      <path class="cls-2" d="M379.26,439.54c-.87-.04-.96.66-1.21,1.23-1.07,2.4-1.32,5.09-2.82,7.37-.29.44.39,1.42-.95,1.26-.85-.1-1.25-.45-.96-1.2,1.23-3.12,1.46-6.6,3.52-9.42,1.32-1.81,2.48-3.72,3.9-5.87.49,1.77-.32,2.92-.86,4.07-.39.84-.84,1.61-.65,2.58,0,0,.03-.03.03-.03Z"/>
      <path class="cls-2" d="M390.64,417.9c.06,1.85.32,3.27-.82,4.96-.05-1.86-.38-3.28.82-4.96Z"/>
      <path class="cls-2" d="M384.11,431.11c-.52-1.71-.01-2.57.98-3.59.21,1.41-.25,2.27-.98,3.59Z"/>
      <path class="cls-2" d="M388.05,427.2c-.45-.08-.5-.42-.48-.78.03-.41.32-.64.69-.64.37,0,.69.24.65.65-.04.48-.32.79-.86.77Z"/>
      <path class="cls-2" d="M402.15,422.65c-.01.43-.19.75-.61.72-.36-.03-.64-.31-.64-.72,0-.3.23-.48.51-.52.41-.06.68.12.74.53Z"/>
      <path class="cls-2" d="M400.16,424.34c.42,0,.73.32.9.74.1.25-.06.54-.34.59-.54.09-.8-.31-.97-.72-.09-.24,0-.51.41-.61Z"/>
      <path class="cls-2" d="M384.17,423.28c-.31-.05-.45-.27-.44-.55,0-.28.15-.53.46-.54.32,0,.44.26.43.54,0,.27-.13.5-.44.55Z"/>
      <path class="cls-2" d="M386.18,425.9c-.09.34-.26.66-.64.66-.28,0-.46-.26-.43-.54.04-.36.24-.65.65-.64.3,0,.45.21.43.52Z"/>
      <path class="cls-2" d="M387.52,419.89c.31.05.46.25.44.55-.02.37-.06.76-.54.78-.31,0-.44-.26-.43-.55.02-.36.04-.73.53-.78Z"/>
      <path class="cls-2" d="M386.84,423.47c-.05.29-.2.52-.5.49-.3-.02-.43-.31-.32-.55.1-.21.33-.49.53-.5.29-.02.31.3.3.56Z"/>
      <path class="cls-2" d="M382.96,424.57c.27.06.47.21.52.49.04.27-.07.51-.36.52-.29.02-.47-.18-.49-.47-.02-.25.04-.48.34-.55Z"/>
      <path class="cls-2" d="M384.35,421.21c-.2-.07-.42-.08-.46-.18-.12-.26.02-.47.27-.56.24-.08.56-.08.59.2.02.17-.27.37-.41.54Z"/>
      <path class="cls-2" d="M389.07,424.62c-.12-.1-.33-.19-.35-.31-.07-.33.14-.52.45-.51.13,0,.32.17.35.3.09.34-.14.48-.45.52Z"/>
      <path class="cls-2" d="M402.79,419.86c-.11.26-.31.41-.57.31-.26-.09-.36-.35-.25-.6.05-.11.27-.21.41-.2.27.01.46.17.41.5Z"/>
      <path class="cls-2" d="M376.42,255.22c3.34.55,6.71.07,10.06.21,1.36.06,2.72,0,4.09.14-3.73-.19-7.37.95-11.12.69-1.05-.07-2.2-.33-3.15.48-1.35,0-2.7-.01-4.06-.02-3.24-.98-6.53-.43-9.81-.31-.45-.24-1.18-.42-.38-1.05.24-.19.7-.1,1.06-.1,4.43-.02,8.87-.03,13.3-.04Z"/>
      <path class="cls-2" d="M530.04,445.63c-.96.61-1.08,1.63-1.15,2.59-.09,1.2-.87,1.15-1.72,1.15-1.14,0-.99-.76-.95-1.49.05-.95.7-1.92-.04-2.86l-.03.04c.89-.24,1.02-.93,1.04-1.71.14-5.61,2-10.9,3.2-16.33-.2,5.9-2.24,11.62-1.82,17.59,1.59-4.7,1.53-9.76,3.19-14.99.46,1.76-.78,2.97.09,4.16,1.27-.42.42-2.69,2.41-2.53.02,1.31-1.21,2.27-1.05,3.61.02.18-.26.47-.47.59-1.7.95-1.71.94-1.62,3.5.95-.39.35-1.36.78-1.87.29-.08.53,0,.7.26.72,1.08-.03,2.13-.11,3.17-.16,2.08-.81,4.11-.84,6.22l.04-.06c-.88.63-.36,2.2-1.87,2.61-.33-1.3.4-2.5.19-3.7,1.48-2.45,1.79-4.01,1.06-5.95-.79,2.03-1.24,3.94-1.02,5.97Z"/>
      <path class="cls-2" d="M543.24,448.92c.02-.58-.09-1.2-.7-1.35-.77-.18-.84.46-.84,1.03-.01,1.28-.92.81-1.56.78-.78-.04-1.5-.22-1.33-1.27.22-1.41.3-2.88,1.17-4.1.31-.43.52-.84.02-1.13-.63-.35-1.03.05-1.19.66-.39,1.5-.76,3-1.12,4.51-.11.43-.06.93-.51,1.21-.34.21-.74.22-1.05.04-.18-.1-.33-.45-.31-.67.04-.45.18-.9.34-1.33,1.18-3.27,2.24-6.57,3.06-9.95.53-2.18,1.99-3.99,2.12-6.28.89.13.82.67.72,1.06-.78,2.79-1.58,5.57-2.42,8.33-.27.89-.18,1.42.89,1.46,1.25.05,1.54.37.91,1.7-.65,1.38-1.39,2.88-1.3,4.93,1.43-1.31,1.86-2.76,2.42-4.13.27-.65.22-1.52,1.25-1.54l-.02-.02c.03.36.04.85.41.93.72.15.73-.64,1.05-1.01.37-.42.15-.91-.37-1.03-1.1-.25-.99-.79-.49-1.54.31-.46.19-1.44,1.14-1.09.72.27,1.11.87.85,1.74-.73,2.4-1.43,4.81-2.13,7.22-.15.51-.55.67-1,.8l.03.03ZM543.89,444.61q-.87.99-.59,1.99c.63-.23.33-.93.67-1.32.16-.18.2-.48-.08-.67Z"/>
      <path class="cls-2" d="M526.18,445.02c-.99,1.06-.44,2.82-1.75,3.98-.63-1.1.11-1.9.13-2.73.01-.51.53-.96.29-1.56-.24-.6-.4-1.24-1.23-1.26-.67-.02-1,.41-1.2.94-.66,1.78-1.29,3.57-1.96,5.43-1.17-.44-.82-1.27-.65-1.86.91-3.26,1.94-6.48,2.84-9.74.36-1.33,1.69-.13,2.22-1.05-.1,1.79-.82,3.51-.12,5.64.66-1.89.47-3.72,1.83-5.46.64,2.88-.63,5.27-.43,7.72,0,0,.03-.04.03-.04Z"/>
      <path class="cls-2" d="M539.92,430.21c.23,1.56-.83,2.76-1.18,4.17-1.18,4.68-2.53,9.32-3.81,13.97-.09.35-.12.73-.81.88-.59-.59-.38-1.42-.21-2.14.38-1.6.7-3.24,1.33-4.75,1.51-3.61,2.15-7.5,3.55-11.14.24-.63.61-.85,1.16-.97l-.03-.02Z"/>
      <path class="cls-2" d="M531.64,446.75c1.32-2.44,1.75-5.12,2.27-7.8.6-3.08,1.04-6.24,2.81-8.97.3,2.03-.32,4-.93,5.74-1.53,4.39-1.24,9.27-3.67,13.71-.81-1.02-.44-1.91-.44-2.74,0,0-.04.06-.04.06Z"/>
      <path class="cls-2" d="M527.78,426.81c.76,3.16-.32,6.13-.71,9.16-.05.4-.32.7-.71.67-.53-.04-.81-.45-.75-.95.06-.54.23-1.07.38-1.59.73-2.39,1.51-4.77,1.79-7.28Z"/>
      <path class="cls-2" d="M543.66,434.71c.19.66-.39.96-.66,1.41-.29.48-.51,1.02.02,1.45.3.24,1.4-.36.9.64-.3.61-1.18.08-1.78-.02-.55-.1-.6-.61-.4-1.09.35-.84.7-1.68,1.09-2.51.06-.12.31-.22.46-.21.13.01.24.2.37.32Z"/>
      <path class="cls-2" d="M521.76,449.25c.37-2.07,1.07-3.25,1.72-4.97.52,2.37.38,2.75-1.72,4.97Z"/>
      <path class="cls-2" d="M545.63,438.11c.01-.13,0-.25.04-.3.39-.42.3-1.35,1.17-1.24.36.05.61.47.46.85-.31.77-.83,1.14-1.67.69Z"/>
      <path class="cls-2" d="M535.87,426.42c-.14,1.16-.58,2.22-1.46,3.83.41-1.72.67-2.8.93-3.89.18.02.35.04.53.06Z"/>
      <path class="cls-2" d="M548.21,432.29c-.65.53-1.25.87-1.89.18-.07-.07,0-.38.1-.49.75-.79,1.19,0,1.78.31Z"/>
      <path class="cls-2" d="M541.43,439.5c1,.13,1.51.34,1.5.99-.01.59-.56.58-.99.59-.51.02-.87-.27-.89-.76-.02-.48.23-.85.39-.82Z"/>
      <path class="cls-2" d="M544.13,431.59c.31,0,.54.17.58.45.09.61-.18,1.04-.79,1.17-.11.02-.36-.15-.39-.27-.12-.58.06-1.05.6-1.34Z"/>
      <path class="cls-2" d="M539.95,430.24c.04-.8-.99-1.67.3-2.48.5.94,0,1.69-.33,2.45,0,0,.03.02.03.02Z"/>
      <path class="cls-2" d="M546.7,425.93c-.08.35-.2.72-.64.66-.29-.04-.39-.33-.35-.61.04-.28.2-.52.5-.55.31-.02.48.18.49.49Z"/>
      <path class="cls-2" d="M533.51,423.38c.36.58.41,1.43-.19,1.48-.83.06-.33-.73-.24-1.17.03-.12.26-.19.42-.31Z"/>
      <path class="cls-2" d="M542.24,429.77c-.13-.21-.34-.42-.36-.65-.04-.48.16-.89.71-.92.3-.01.5.26.42.54-.11.4-.23.84-.77,1.03Z"/>
      <path class="cls-2" d="M544.64,423.75c-.17.16-.35.48-.53.47-.3,0-.29-.35-.25-.6.05-.29.23-.5.54-.37.11.05.15.28.25.49Z"/>
      <path class="cls-2" d="M540.81,425.94c-.26-.18-.29-.43-.18-.69.11-.27.34-.41.6-.26.1.06.16.31.14.45-.05.28-.26.45-.56.5Z"/>
      <path class="cls-2" d="M548.65,426.53c-.07-.13-.23-.29-.2-.42.05-.28.26-.51.56-.48.09,0,.23.31.21.45-.03.28-.19.52-.57.45Z"/>
      <path class="cls-2" d="M544.74,429.91c-.21-.1-.3-.36-.16-.6.12-.21.39-.51.56-.49.27.03.29.39.22.64-.07.26-.16.54-.61.44Z"/>
      <path class="cls-2" d="M547.8,430.05c-.35.02-.57-.1-.54-.42.02-.3.27-.43.54-.35.15.04.32.18.38.32.17.41-.21.37-.37.44Z"/>
      <path class="cls-2" d="M547.57,435.14c-.03.2-.19.43-.51.39-.31-.04-.42-.29-.39-.58.04-.31.27-.51.55-.5.31.02.37.3.34.68Z"/>
      <path class="cls-2" d="M545.4,435.15c.01.09.03.18.03.27,0,.35.07.78-.3.94-.28.12-.52-.17-.54-.45-.03-.56.29-.79.84-.73l-.03-.03Z"/>
      <path class="cls-2" d="M542.38,422.61c-.07.28-.24.48-.53.42-.09-.02-.2-.28-.19-.43,0-.28.16-.52.48-.41.11.04.16.27.24.41Z"/>
      <path class="cls-2" d="M546.83,423.96c-.05-.16-.17-.34-.12-.46.04-.1.27-.13.41-.2.05.15.19.34.14.44-.06.12-.28.15-.42.22Z"/>
      <path class="cls-2" d="M538.23,424.95c-.09.14-.17.29-.26.43-.08-.15-.21-.31-.21-.46,0-.15.16-.29.24-.43.08.15.15.31.23.46Z"/>
      <path class="cls-2" d="M543.47,425.61c.09.1.23.19.26.31.06.25,0,.5-.28.61-.03.01-.14-.11-.16-.19-.07-.26-.08-.51.18-.73Z"/>
      <polygon class="cls-2" points="543.78 442.88 543.87 442.74 543.76 442.86 543.78 442.88"/>
      <path class="cls-2" d="M543.2,448.89c-.07.09-.15.18-.22.26.01-.05.01-.12.04-.15.06-.04.14-.06.21-.09,0,0-.03-.03-.03-.03Z"/>
      <path class="cls-2" d="M545.43,435.17c.03-.06.05-.12.08-.18-.03.05-.07.1-.1.15,0,0,.03.03.03.03Z"/>
      <path class="cls-2" d="M122.48,451.3c-.99-1.29-.76-2.32-.76-3.25,0-1.84-.14-3.65-.42-5.46-.06-.39-.23-.76-.65-.7-.4.06-.45.39-.42.82.16,2.64-.04,5.27-.4,8.2-.89-2.14-.85-18.49-.09-21.05.81,3.52.76,7.08.66,10.73,1-.94.99-.94.91-4.62-.04-1.65,0-3.29,0-5,1.2,1.98,2.01,14.93,1.18,20.33Z"/>
      <path class="cls-2" d="M135.72,448c1.39-5.08.09-10.22.48-15.36.42.67.72,1.36.76,2.16.19,4.11.76,8.19.53,12.32-.05.84-.2,1.62-.55,2.39-.3.65-.68,1.02-1.46.97-.88-.06-1.01-.7-1.15-1.31-.32-1.35,0-2.71,0-4.06-.02-3.81,0-7.62,0-11.12,1.48,4.32.78,9.24,1.41,14.02Z"/>
      <path class="cls-2" d="M132.27,434.13c1.07,5.19.91,10.46.89,15.71,0,.48-.13.98-.69.99-.54,0-.71-.47-.75-.96-.02-.27-.04-.55-.04-.82,0-4.99,0-9.98,0-14.97.2.01.4.03.6.04Z"/>
      <path class="cls-2" d="M127.91,432.76c.7,1.35.77,2.61.78,3.87.04,4.11.07,8.22.09,12.33,0,.45-.01.92-.12,1.36-.05.23-.3.55-.5.58-.41.06-.64-.24-.69-.65-.03-.27-.16-.58-.07-.81.98-2.64.25-5.36.35-8.04.1-2.72-.11-5.45-.18-8.18,0-.07.1-.14.34-.45Z"/>
      <path class="cls-2" d="M130.43,450.72c-.74-5.55-.13-11.15-.62-16.72,1.59,5.51,1.04,11.12.62,16.72Z"/>
      <path class="cls-2" d="M125.81,432.17c1.05,3.15,1.08,13.08,0,14.68.25-4.92-.24-9.82,0-14.68Z"/>
      <path class="cls-2" d="M124.12,432.61c.59,4.88,1.24,9.76.28,14.66-.56-4.88-.42-9.77-.28-14.66Z"/>
      <path class="cls-2" d="M139.18,445.33c.73,1.75.65,3.4-.4,4.96-.7-1.71-.24-3.35.4-4.96Z"/>
      <path class="cls-2" d="M141.1,445.3c.82-.02.97.42.88.71-.37,1.12-.43,2.18.02,3.32.17.42.07,1.2-.74,1.11-.6-.06-.65-.62-.47-1.05.57-1.32.08-2.78.31-4.09Z"/>
      <path class="cls-2" d="M139.24,444.13c-.8-1.59-.24-3.17-.21-4.76,1.03,1.55.4,3.18.21,4.76Z"/>
      <path class="cls-2" d="M126.55,448.15c-.17.66-.23,1.01-.36,1.34-.23.56-.35,1.28-1.16,1.27-.47,0-.5-.46-.55-.8-.1-.77-.02-1.46.96-1.6.26-.04.51-.1,1.11-.21Z"/>
      <path class="cls-2" d="M143.29,446.15c-.04-.75-.08-1.5-.12-2.46q.65,1.02.12,2.46Z"/>
      <path class="cls-2" d="M141.33,441.21c.59,1.13.59,1.84.42,3.01-.94-1.07-.87-1.78-.42-3.01Z"/>
      <path class="cls-2" d="M143.63,435.94c.28.08.42.3.41.56-.01.37-.19.69-.61.61-.12-.02-.2-.44-.21-.68-.01-.24.06-.51.41-.49Z"/>
      <path class="cls-2" d="M141.91,440.03c-.17.24-.4.36-.65.18-.24-.17-.29-.46-.18-.73.13-.3.39-.34.63-.16.23.17.34.42.2.71Z"/>
      <path class="cls-2" d="M94.48,256.35c-1.4-.15-2.69.05-3.68,1.19-.04.15-.12.27-.23.36-.37-.04-.74-.09-1.11-.13.75-1.36,1.96-2.01,3.43-2.33,2.78-.61,5.55-1.27,8.33-1.9-.03.21-.06.42-.09.63-2.14.98-4.29,1.92-6.66,2.18Z"/>
      <path class="cls-2" d="M91.52,251.37c.45.19,1.26.32.32.92-.55.35-1.16.55-.97,1.38-.9.21-1.5-.17-1.94-.92.58-1.06,1.84-.73,2.58-1.38Z"/>
      <path class="cls-2" d="M102.47,246.94c.46.16.95.26,1.25.71,0,0-.03.01-.03.01-.39-.05-.65.18-.89.44-.23,0-.46.01-.69.02-.1-.24-.21-.48-.32-.72.13-.29.39-.41.68-.46Z"/>
      <path class="cls-2" d="M90.86,253.53c.17.24.1.42-.14.56-.13-.23-.08-.42.14-.56Z"/>
      <path class="cls-2" d="M107.63,258.1c-3.07.73-5.48,1.85-8.18,2.26,1.31-1.05,4.32-1.91,8.18-2.26Z"/>
    </g>
  </g>
  <g id="_1977-color" data-name="1977-color">
    <path class="cls-1" d="M259.26,332.24c-1.4,1.41-3.55,1.31-5.15,2.4.74.91,1.79.06,2.54.71-.91.89-2.19.97-3.13,1.62-.15,1.12.79,1.59,1.29,2.41-.75,1.15-2.46,1.13-3.16,2.25.21,1.01,1.23.83,1.71,1.37-1.03,1.02-2.27.72-3.43.83-.34.03-.77.02-.86.5-.1.55.24.88.7,1,.61.16,1.25.22,2.1.36-.88,1.15-2.04.75-3,.9-.55.09-1.27.11-1.35.7-.1.72.6,1.02,1.2,1.28.75.33,1.66-.18,2.44.47-1.49.59-2.91,1.05-4.5.9-.56-.05-1.51-.31-1.53.61-.02.73.84.83,1.48.94.59.1,1.23-.03,1.89.42-.94,1.12-2.42.29-3.3,1.16-.08,1.03,1.12.77,1.4,1.41,0,.08.03.18,0,.22-.06.06-.16.09-.24.12-4.04,1.33-8.06.69-12.13.1-4.99-.73-9.93-1.69-14.79-3-6.49-1.75-12.02-5.31-17.09-9.65-2.09-1.79-4.21-3.54-6.27-5.36-2.05-1.82-4.05-3.7-5.1-6.33-.6-1.18-.41-2.89-2.19-3.28,0,0,.04.04.04.04.17-.79-.25-1.4-.58-2.06-3.2-6.3-5.98-12.74-6.37-19.95-.09-1.64-.33-3.27-.49-4.91-.69-6.86-.48-13.69.88-20.46.14-.68.14-1.47,1.19-2-.29,3.13-.65,6.09-.82,9.06-.51,8.73.21,17.35,2.69,25.76.6,2.04,1.23,4.19,3.03,5.64-.02.17-.07.35-.04.51.04.21.14.41.22.61.27-.2.13-.44.05-.65-.06-.16-.18-.29-.27-.43-.41-1.12-.86-2.22-1.22-3.35-2.26-7.15-2.86-14.53-2.96-21.97-.08-6.36.63-12.63,2.43-18.74,1.25-4.23,2.85-8.33,5.57-11.88.61-.8,1.16-1.79,2.65-1.73-4.25,5.49-6.6,11.74-7.97,18.37-1.37,6.57-2.05,13.19-1.28,19.92.76,6.72,2.14,13.24,5.1,19.36.13-2.25-.26-4.41-.83-6.52-2.16-8.05-2.57-16.24-2.27-24.53.19-5.18,1.17-10.17,2.97-15.02,1.84-4.96,4.37-9.45,8.44-12.99,7.68-6.67,16.01-12.12,25.75-15.43,7.28-2.47,14.62-3.12,22.18-2.21,6.76.82,12.61,4.24,18.85,6.57.81.3,1.63.74,1.78,1.63-.33.51-.61.34-.83.22-4.46-2.38-9.24-4.02-13.98-5.63-7.07-2.4-14.41-2.47-21.72-1.05-3.86.75-7.72,1.7-11.23,3.52-5.45,2.83-10.54,6.26-15.54,9.83-6.61,4.72-10.77,11.05-13.2,18.73-2.31,7.31-2.25,14.8-2.13,22.32.09,5.4,1.73,10.44,3.53,15.44.12.33.32.65.86.37-.42-2.86-.71-5.78-1.3-8.63-1.51-7.27-1.47-14.54-.54-21.87,1.22-9.67,5.07-17.89,12.61-24.25,4.84-4.08,9.73-8.03,15.74-10.39,3.37-1.32,6.87-1.92,10.35-2.64,6.7-1.39,13.45-1.47,20.2-.17,5.8,1.12,11.19,3.37,16.5,5.86.96.45,2.05.92,2.17,2.25-.15.12-.29.24-.44.35-1.22-.22-2.03-1.18-3.09-1.7-10.58-5.15-21.64-7.41-33.34-5.35-2.12.37-4.24.81-6.35,1.22-3.56.7-7.09,1.99-10.18,3.97-3.46,2.22-6.89,4.51-9.98,7.29-8.66,7.79-13.42,17.33-12.95,29.11.23,5.86.7,11.71,1.35,17.54.34,3.1,1.08,6.23,3.98,8.64-.65-2.54-1.77-4.59-2.1-6.86-1.01-6.81-1.77-13.64-1.56-20.53.33-11.01,4.57-20.25,12.86-27.57,4.91-4.34,10.37-7.81,16.54-10.08.75-.28,1.86-.94,2.23-.16.55,1.16-.98,1.19-1.59,1.72-.33.3-.78.48-1.2.65-4.5,1.91-8.49,4.67-12.49,7.45-7.45,5.18-11.99,12.26-13.97,21.01-1.47,6.52-1.23,13.11-.3,19.69.43,3.08.83,6.18,1.91,9.13.71,1.94.93,2.25,2.6,3.69-1.42-2.76-2.53-5.39-2.78-8.24-.65-7.4-1.06-14.83-.05-22.23.94-6.92,3.72-13.03,8.86-17.88,4.94-4.66,10.09-8.97,16.4-11.84,5.44-2.48,11.08-3.74,16.96-3.91,4.2-.12,8.42.3,12.56,1.2,5.69,1.23,11.2,2.83,15.52,7.08.15.15.5.1.76.14l-.04-.05c-.21,1.69.8,2.93,1.67,4.15.89,1.25,2.03,2.31,2.96,3.54,1.8,2.4,3.91,4.66,4.29,7.84-.7-.03-.84-.65-1.07-1.1-1.55-3.06-3.59-5.73-6.19-7.97-1.14-.99-1.84-2.26-2.31-3.67-.42-1.26-1.24-2.14-2.33-2.93-5.53-3.99-11.82-5.7-18.48-6.21-4.28-.33-8.56-.02-12.85.47-6.71.77-12.09,4.28-17.49,7.85,1.65-.23,3.02-1.08,4.4-1.94,4.96-3.08,10.14-5.36,16.2-5.24,5.42.11,10.79.62,16.1,1.53,4.54.78,8.81,2.43,12.3,5.65.58.54,1.19,1.04.94,2.52-3.89-3.43-8.04-5.52-12.8-6.26,2.1,1.25,4.29,2.34,6.44,3.47,2.18,1.15,4.41,2.24,6.19,4,1.89,1.87,3.77,3.74,5.92,5.31,1.43,1.05,2.43,2.41,3.38,3.9,1.43,2.25,1.87,4.92,3.29,7.15-.03.45-.14.91-.09,1.35.43,3.91.21,7.86.71,11.78.36,2.81.15,5.67-.43,8.48-1.27,6.12-1.79,12.38-3.39,18.44,1.47-3.3,2.19-6.77,2.6-10.34.25-2.18.46-4.41,1.1-6.49,1.33-4.33,1.15-8.67.66-13.05-.12-1.07-.45-2.14-.06-3.27.83.43.87,1.23.96,1.9,1.02,7.43,2.07,14.85.95,22.4-.38,2.57-1.06,5.18-.64,8.4,1.04-4.2,1.38-7.93,1.99-11.61.83-5.03.73-10.02-.11-15.03-.38-2.26-.65-4.53-1.07-6.78-.44-2.37-1.55-4.42-3.21-6.16.11-1.19-.42-2.26-.71-3.37-.29-1.09-1.22-1.99-.92-3.24.91-.12.95.68,1.21,1.2.99,1.96,1.84,4,2.97,5.88,1.46,2.42,2.18,5.02,2.47,7.78.09.82.22,1.63.35,2.44,1.1,6.92,1.41,13.84-.19,20.74-.64,2.76-1.15,5.55-1.71,8.32,2.24-5.07,2.61-10.6,4.13-15.84.72,10.93-4.39,20.54-7.08,30.84,1.04-.4,1.02-1.23,1.24-1.86,1.24-3.54,2.23-7.19,3.68-10.64,1.98-4.7,2.97-9.63,3.67-14.6.55-3.89.68-7.9-.33-11.75-1.79-6.81-3.23-13.72-5.5-20.4-.24-.71-.76-1.39-.19-2.4,1.54,2.42,2.41,4.9,3.06,7.47.76,3.02,1.23,6.13,2.22,9.07,2.46,7.32,2.53,14.74,1.38,22.25-1.51,9.85-5.29,19.04-8.59,28.34-2.72,7.68-6.23,15.05-9.57,22.48-.45,1-.96,1.99-.93,3.13-.68.61-.96,1.34-.93,2.59.55-1.07,1.03-1.75.9-2.62,1.18-.98,1.49-2.46,2.09-3.76,3.18-6.9,6.07-13.92,8.77-21.03,4-10.53,8.19-20.99,10.14-32.15,1.15-6.55,1.61-13.1-1.27-19.41-.23-.49-.35-1.04-.51-1.56-1.55-5.18-3.33-10.27-5.7-15.15-.21-.44-.71-.88-.08-1.59,1.27,1.28,1.76,2.95,2.51,4.47,2.76,5.62,3.66,11.89,6.25,17.57.22.48.26,1.06.3,1.6.83,11.39-.33,22.49-4.73,33.13-.72,1.74-1.4,3.52-1.59,5.43,2.8-6.28,4.88-12.76,6.39-19.5,1.22-5.42,1.55-10.85,1.71-16.34.03-.99-.12-1.99-.4-2.98-.66-2.27-1.36-4.57-1.81-6.85-.63-3.2-1.68-6.15-2.98-9.08-.99-2.24-2.21-4.41-2.53-6.9,0,0-.04.04-.04.04.28.22.69.39.82.68,2.04,4.36,4.43,8.57,5.41,13.36.38,1.87.88,3.72,1.39,5.56.78,2.8,1.34,5.66.83,8.63-.17.96-.05,2,.09,2.99.27,2.01.27,3.99-.06,5.99-.28,1.7-.53,3.41-.79,5.12-.48.48-.42,1.01-.14,1.57.03-.53.06-1.07.1-1.6,1.1-1.34.64-3.38,1.96-4.64.44.3.42.68.35,1-.95,4.65-1.35,9.41-3.14,13.87-2.69,6.7-5.02,13.53-7.87,20.17-3.97,9.24-7.1,18.83-11.78,27.77-.21.39-.26.87-.38,1.31-.13.21-.64.34-.13.66.03-.23.06-.47.08-.7.97-.23,1.09-1.16,1.46-1.84,2.71-5.01,4.68-10.33,6.75-15.62,5.82-14.9,12.41-29.51,16.77-44.96.14-.5.17-1.12.87-1.31.51.66.29,1.39.14,2.08-.45,2.06-.8,4.15-1.47,6.14-3.72,11.01-7,22.16-11.54,32.89-1.12,2.64-2.23,5.33-2.68,8.21,2.28-5.3,4.46-10.63,6.47-16.02,2.01-5.4,3.83-10.87,5.75-16.3,1.89-5.35,3.34-10.87,5.85-16.56.84,2.35.14,4.01-.31,5.62-1.39,4.93-2.92,9.81-4.4,14.71-.23.76-.81,1.5-.02,2.26-.95,4.12-2.72,7.95-4.25,11.85-3.73,9.46-7.64,18.85-11.38,28.3-2.06,5.19-3.6,10.58-5.94,15.67-3.97,8.65-7.91,17.32-11.82,25.99-1.2,2.67-2.25,5.41-3.39,8.11-1.53,3.63-3.12,7.2-6.13,9.93-.51.47-.73,1.26-1.1,1.89-.97,1.65-1.44,3.56-2.7,5.05-.43-1.26-1.52-1.14-2.49-1.12-.47.01-.79.44-.74.97.05.57.44.71.94.72.83,0,1.63-.08,2.32-.62-.15.93-.44,1.78-1.25,2.39-.53-.3-1.03-.75-1.6-.88-.89-.2-1.3.57-1.46,1.24-.13.54.44.69.92.72.27.02.55.02.82.02.7,0,1.06.35.79,1.03-.22.55-.6.77-1.3.54-1.94-.63-1.98-.6-2.89,1.13-.51.96-.93,1.97-1.42,2.95-.42.84-.1,1.22.75,1.23.45,0,.91-.09,1.35-.2.76-.19,1.21-.79,1.67-1.37.71-.89-.37-1.24-.57-1.86-.08-.25-.09-.51-.13-.73.38-.43.77-.18,1.04-.02,1.23.73,1.82.18,2.25-.97.67-1.79,1.71-3.38,2.79-5.06.59.98-.09,1.54-.32,2.18-1.1,3.08-3.05,5.87-3.15,9.29-.02.64-.4.99-1.02,1.08-1.18.17-2.35.42-3.54.46-7.14.22-14.29.38-21.43.56-.45.01-.92.05-1.35-.26-.4-.94.21-1.75.53-2.57,5.34-13.75,11.08-27.33,16.78-40.93,2.26-5.4,4.23-10.93,6.46-16.35,2.12-5.17,4.45-10.25,6.62-15.4,4.52-10.71,9.07-21.42,13.48-32.18,2.36-5.77,5.04-11.39,7.62-17.06.68-1.5,1.23-3.06,1.85-4.58.75-1.85.99-3.63-.09-5.5-.6-1.03-.63-2.26-.41-3.48.93-5.31,1.28-10.73,3.05-15.89,1.01-2.94.7-5.97.36-8.99-.11-1-.38-1.98-.15-3,.83-.97.42-2.1.28-3.13-.21-1.53-.74-3.01-.93-4.54-.61-4.98-3.52-8.19-7.77-10.42-.34-.06-.44-.29-.41-.6.52-1.35-.59-1.91-1.31-2.63-2.9-2.9-6.53-4.67-10.15-6.43-5.17-2.5-10.64-3.02-16.31-2.49-4.73.44-9.13,1.94-13.37,3.86-5.97,2.71-11.34,6.35-15.32,11.69-6.2,8.33-7.92,17.68-6.26,27.82.27,1.62,1,2.22,2.45,2.32,1.2,2.46,2.41,4.91,3.6,7.37,3.82,7.93,9.93,13.65,17.82,17.19,4.54,2.04,9.47,3.37,14.57,3.55,1.49.05,2.97-.16,4.31-.72,5.38-2.24,11.31-3.2,16.1-6.85.25-.19.7-.1,1.06-.14l-.02-.02c-.25.63-.85.92-1.29,1.37-.46.47-2.16.55-.68,1.84.26.23-.33.76-.72,1-1.08.67-2.28,1.13-3.16,2.1.66.99,1.47-.41,2.24.23-2.1,1.94-4.88,2.36-7.78,3.67,1.95.24,3.36-.66,4.81-.28l-.03-.03ZM202.03,308.06c0-.78.15-1.6-.53-2.22,0-.63.03-1.26,0-1.88-.26-5.78-.83-11.56-.56-17.36.1-.12.27-.23.3-.37.04-.21-.02-.44-.03-.66-.07.19-.15.38-.19.57-.04.16-.02.33-.03.5-.72.62-.61,1.51-.61,2.29-.02,4.47-.05,8.94.07,13.4.03,1.19.09,2.53,1.05,3.52-.21.83-.23,1.62.56,2.19-.23,1.59.56,2.74,1.62,3.77-.57-1.24-.62-2.71-1.65-3.74ZM237.84,434.08c-.84.34-1.13,1.14-1.54,1.84-1.17,1.94-1.97,4.31-3.61,5.7-1.43,1.21-1.56,2.28-1.24,3.78-.99-.02-.6-1.91-1.87-1.08-.36.23-.65.81-1.01.17-.22-.4.06-.99.47-1.17,1.63-.72,2.28-2.14,2.83-3.67.9-.49,1.52-1.15,1.55-2.51-1.2.51-1.63,1.29-1.8,2.29-.81.09-2.19.12-1.15-.98.79-.84-.06-2.57,1.75-2.78.29-.03-.78-.69-1.18-1.13-1.05,2.43-2.14,4.79-3.11,7.21-.99,2.46-2.74,4.65-3.03,7.42.4.08.59.19.75.14,2.49-.67,4.93-.55,7.34.35,1.05.39,1.77.04,2.07-1.1.43-1.62,1.96-2.85,2.12-4.4.15-1.48.74-2.87,1.34-3.89,1.92-3.26,3.15-6.77,4.52-10.23.41-1.03.87-2.14.57-3.93-1.62,2.6-2.54,4.96-3.52,7.26-1.79,4.19-4.58,7.94-5.57,12.49-.13.61-.57,1.05-1.18.8-.75-.3-.18-.87-.13-1.37.26-2.46,1.73-4.38,2.77-6.49.75-1.52,2.14-2.8,1.83-4.73.27-.23.7-.4.8-.69.73-2.12,1.37-4.28,2.38-6.3.19-.39.05-.9-.73-.89-.59,2.68-2.36,5.02-2.41,7.91ZM238.34,254.15c-2.41-.25-4.72.15-6.97.96-3.37,1.22-6.58,2.77-9.66,4.6-7.03,4.18-13.35,9.05-16.6,16.95-1.14,2.79-2.77,5.46-2.91,8.52-.3,6.42-.11,12.83,1.19,19.15.52,2.55,1.38,4.95,3.46,6.7.52.44.67,1.08.86,1.35-1.07-4.15-2.33-8.54-3.3-13-1.06-4.86-1.46-9.82-.44-14.73,1.19-5.72,3.85-10.83,7.19-15.6,1.27-1.82,2.84-3.37,4.65-4.64,6.87-4.8,14.13-8.77,22.53-10.29ZM236.34,448.87c1.47,0,2.38-.06,3.28.01,1.49.12,2.3-.49,2.88-1.92,1.12-2.75,2.69-5.3,3.48-8.22.87-3.24,1.98-6.41,2.97-9.61.14-.46.62-1-.16-1.35-.52.06-.5.49-.59.81-1.68,6.61-4.72,12.67-7.77,18.71-.2.39-.4,1-.94.78-.71-.29-.46-.87-.07-1.32.62-.73.85-1.45.6-2.47-.27-1.13,1.68-.59,1.65-1.8-.01-.34.25-.68.37-1.03,1.64-4.92,3.27-9.85,4.9-14.77.16-.49.46-1.04-.48-1.34-2.76,7.9-6.5,15.36-10.12,23.5ZM276.62,343.22c-4.93,10.17-9.98,20.26-13.71,30.93,4.5-10.35,9.74-20.37,13.71-30.93ZM199.1,295.74c.44-3.48.1-6.41.53-9.33.43-2.91,1.02-5.75,2.16-8.46,1.13-2.7,2.46-5.3,4.11-7.73,1.59-2.32,3.65-4.25,5.42-6.41-10.7,7.81-13.44,18.75-12.23,31.93ZM278.73,326.72c1.19-2.91,3.44-21.41,3.42-27.39-1.6,9.3-2.24,18.41-3.42,27.39ZM249.32,437.28c.17-.14.95.14.53-.39-.71-.92-.2-1.02.52-1.18.59-.13.71-.52.39-.97-.27-.37-.69-.6-1.17-.38-1.1.5-.93,1.64-1.16,2.54-.09.33.5.37.88.39ZM237.08,430.36c-.07-.26-.16-.53-.49-.49-.48.06-.79.35-.83.83-.04.45.33.66.66.61.47-.07.72-.44.66-.95ZM234.78,434.92c.76-.43,1.06-.91.65-1.6-.05-.09-.38-.13-.45-.06-.42.41-.5.92-.2,1.66ZM250.21,422.82c-.72.32-.99.79-.53,1.5.05.07.38.08.45,0,.39-.46.42-.97.08-1.5ZM293.79,317.02c-.02-.07-.05-.15-.07-.22-.05.11-.13.23-.13.34,0,.11.08.23.12.34.03-.15.06-.31.08-.46ZM193.69,314.99c-.05-.07-.13-.21-.15-.2-.2.08-.26.24-.17.44.04.08.1.15.15.22.06-.15.12-.3.17-.46ZM234.41,436.09l-.18-.16c-.06.14-.14.27-.18.41,0,.03.11.1.18.15.06-.13.12-.27.18-.4Z"/>
    <path class="cls-1" d="M306.62,291.48c-.71-.2-1.44-.35-1.56-1.28-.26-2.09-.52-4.17-.8-6.26-.16-1.19.63-1.32,1.48-1.44.88,2.93,1.32,5.91.88,8.97Z"/>
    <path class="cls-1" d="M305.2,297.24c-.65-1.04,0-2.15-.2-3.22-.25-1.25.79-1.2,1.54-1.4.63,1.85-.88,3.09-1.34,4.63Z"/>
    <path class="cls-1" d="M304.95,300.95c-.23-.85-.31-1.68.19-2.47.4.86.4,1.69-.19,2.47Z"/>
    <polygon class="cls-1" points="265.89 322.37 265.99 322.23 265.87 322.35 265.89 322.37"/>
    <polygon class="cls-1" points="268.07 306.62 268.01 306.47 268.16 306.43 268.24 306.57 268.07 306.62"/>
    <path class="cls-1" d="M259.3,332.27c.06-.08.13-.17.19-.25-.01.05,0,.11-.04.13-.05.04-.12.06-.19.09,0,0,.03.03.03.03Z"/>
    <path class="cls-1" d="M434.86,314.94c.22.65.03,1.27-.12,1.89-5.51,22.68-11.69,45.19-18.26,67.58-3.04,10.36-5.95,20.77-8.42,31.26-2.87,12.2-6.4,24.24-8.54,36.61-.23,1.32-.87,1.75-2.21,1.84-9.16.57-18.32.29-27.48.36-1.67.01-1.69-.09-1.37-1.74,1.24-6.48,3.32-12.75,5-19.12,4.04-15.31,7.8-30.68,10.88-46.23,1.08-5.47,2.79-10.81,4.2-16.21,1.6-6.11,3.19-12.22,4.77-18.33.23-.88.3-1.81.89-2.57,1.36.11.85-.93.97-1.59,0,0-.04.09-.04.09,1.87-3.7,2.65-7.76,3.66-11.71,2.67-10.46,5.78-20.77,9.58-30.88.18-.47.19-1.09,1.03-.97.25,1.97-1.38,3.61-.98,5.58-.85.35-.66,1.02-.53,1.67-.73.3-.78.78-.43,1.45.5-.46.43-.97.39-1.48.65-.41.62-1.03.53-1.68.79-.35.4-1.65,1.44-1.81-2.6,17.63-7.95,34.64-11.76,52.01.66-1.2,1.07-2.47,1.4-3.77,1.82-7.29,3.59-14.58,5.98-21.72.99-2.96,1.62-6.01,2.27-9.06.99-4.65,1.4-9.41,2.76-14.01,2.65-8.94,4.48-18.11,7.64-26.9.51-1.42.6-3.02,1.79-4.19-.94,6.12-3.02,11.95-4.45,17.94-1.44,6.03-3.26,11.97-3.88,18.2,3.23-11.67,6.45-23.34,9.72-35.18.56,1.04.17,1.89.03,2.75-.66,3.89-2.06,7.6-2.97,11.41-3.25,13.53-7.12,26.9-10.7,40.34-3.05,11.42-5.91,22.88-9.3,34.2-.25.84-.33,1.72-.49,2.58.6-.65.8-1.35,1.03-2.03,2.95-8.87,4.87-18.03,7.84-26.9,1.1-3.28,1.94-6.66,2.46-10.13.37-2.5.51-5.12,1.75-7.45,1.12-2.12,1.82-4.4,2.44-6.7,1.08-3.97,2.26-7.93,3.16-11.94,2.06-9.1,5.08-17.95,6.74-27.16.96-5.3,2.68-10.46,4.47-15.56.87-2.47,1.54-5.04,2.84-7.46.48.69.21,1.2.05,1.69-.81,2.53-1.67,5.04-2.47,7.57-2.45,7.78-4.11,15.76-5.99,23.68-.88,3.74-1.86,7.46-2.68,11.22-1.37,6.35-2.91,12.67-4.57,18.95-.6,2.27-1.13,4.62-2.44,6.66-1.06,1.64-1.62,3.45-1.86,5.37,0,0-.1.05-.1.05l.07-.05c.74-1.64,1.79-3.18,2.49-4.75,2.07-4.66,3.61-9.56,4.76-14.55,1.01-4.35,1.59-8.83,2.88-13.09,2.46-8.14,4.75-16.33,6.81-24.58.29-1.15.58-2.29,1-3.93.19,1.46.12,2.37-.06,3.27-1.17,5.74-2.59,11.42-3.83,17.14-1.26,5.8-3.87,11.23-4.3,17.26-.13,1.82-.45,3.81-1.36,5.55-.18.35-.73.74-.02,1.06.68.31,1.18.2,1.46-.64.75-2.27,1.2-4.6,1.69-6.93.11-.53.19-1.08.38-1.59.07-.19.42-.39.63-.37.21.02.53.28.56.47.16.91.11,1.82-.12,2.72-.32,1.24-.43,2.5-.37,4.02,1.24-1.34.92-3.12,1.91-4.31.94.64.86,1.39.63,2.25-.89,3.34-1.67,6.71-2.61,10.04-1.42,5.01-3.22,9.91-3.63,15.31,1.1-4.02,2.06-7.93,3.25-11.76,1.2-3.84,1.81-7.93,4.4-11.27-.49,6.1-2.24,11.92-3.72,17.79-1.53,6.03-3.77,11.86-5.31,17.9-1.49,5.82-3.19,11.58-4.79,17.37,1.53-3.46,2.62-7.04,3.66-10.64,3.83-13.18,7.64-26.37,11.47-39.56.19-.65.02-1.75,1.03-1.63.66.08,1.08.91,1,1.75-.03.35-.16.73.3,1.14.02-2.05,1.59-3.61,1.26-5.68-.07-.44.38-.81.9-.84.51-.03.87.22,1.03.72.21.68.09,1.5.86,1.92ZM379.23,439.57c-.19-.96.26-1.74.65-2.58.54-1.15,1.35-2.3.86-4.07-1.42,2.14-2.58,4.06-3.9,5.87-2.06,2.82-2.28,6.31-3.52,9.42-.3.75.11,1.1.96,1.2,1.34.16.66-.83.95-1.26,1.49-2.28,1.75-4.98,2.82-7.37.25-.57.35-1.28,1.21-1.23-.69,3.09-2.26,5.93-2.69,9.1,2.71.27,3.29-.04,4.14-2.31,1.41-3.76,2.33-7.66,3.3-11.55.17-.69.12-1.44.13-2.17,0-.26-.08-.53-.39-.63-.44-.15-.7.14-.9.43-.15.21-.23.5-.27.76-.37,2.52-1.7,4.54-3.34,6.4ZM385.81,437.88l.04.03c.15-.7-.22-1.45.25-2.14,1.22-1.79.68-4.12,1.8-5.95.25-.4.08-.97-.43-1.12-.78-.24-.9.39-.96.94-.11,1-.31,1.96-.57,2.93-1.2,4.48-2.45,8.93-4.17,13.25-.17.42-.35.91-.27,1.32.16.79.7.08,1.06.16l-.04-.03c-.66,1.68-2.35,1.83-3.7,2.48-.32.15-.66.45-.41.87.11.19.43.34.66.35,1.43.06,2.7-.48,3.87-1.22,2.5-1.57,3.76-3.91,4-6.81.05-.64.23-1.14.9-1.07.89.09.87.82.69,1.46-.15.52-.5.98-.67,1.49-.32.98-1.2,1.78-1.13,2.95,1.58.31,2.15-.47,2.54-1.64,1.05-3.13,1.94-6.29,2.65-9.51,1.29-5.82,3.36-11.4,5.02-17.1.26-.89.66-1.76.04-3.33-.86,3.02-1.88,5.31-2.84,7.63-2.1,5.09-3.26,10.45-4.45,15.81-.15.66-.13,1.73-1.17,1.44-.9-.25-.56-1.18-.39-1.88.04-.17.18-.32.23-.5,1.43-4.8,3-9.57,4.23-14.42.61-2.4,1.16-4.89,1.23-7.39-.55-.12-.65.17-.72.42-1.36,4.46-2.62,8.95-4.09,13.37-.83,2.49-.72,5.46-3.21,7.22ZM399.72,416.87c-1.06,1.98-1.33,4.16-2.21,6.15-1.15,2.58-2.12,5.24-2.88,7.98-1.33,4.84-2.73,9.66-4.11,14.48-.46,1.62-.87,3.29-3.21,2.81-.47-.1-.94.22-.89.77.05.52.55.73,1,.74,1.64.03,3.3.14,4.93-.03,4.45-.47,3.54.06,4.38-3.99.93-4.46,1.36-9.02,2.73-13.4.46-1.48.73-3.02,1.06-4.53.13-.59.43-1.4-.59-1.44-.76-.03-.57.56-.62,1.14-.14,1.63-1.26,2.93-1.86,4.42-.09.23-.41.37-.71.24-.27-.12-.43-.37-.37-.65.22-.98.45-1.95.74-2.91.85-2.79,1.72-5.57,2.59-8.36.35-1.12.62-2.23.01-3.41ZM392.75,370.73c3.68-16.78,9.94-32.9,12.65-49.92-4.4,16.6-9.74,32.95-12.65,49.92ZM416.79,341.4c-1.72,6.5-3.43,12.95-5.15,19.41,2.32-5.65,4.2-11.44,6.15-17.2.38-1.12,0-1.69-1.01-2.21ZM390.64,417.9c-1.2,1.69-.88,3.11-.82,4.96,1.15-1.69.89-3.11.82-4.96ZM384.11,431.11c.73-1.32,1.19-2.19.98-3.59-.99,1.03-1.5,1.88-.98,3.59ZM388.05,427.2c.54.02.81-.29.86-.77.04-.41-.28-.65-.65-.65-.36,0-.66.23-.69.64-.02.36.04.7.48.78ZM402.15,422.65c-.06-.41-.33-.59-.74-.53-.28.04-.51.22-.51.52,0,.41.28.69.64.72.42.04.59-.29.61-.72ZM400.16,424.34c-.4.1-.5.37-.41.61.16.42.43.81.97.72.29-.05.45-.34.34-.59-.17-.42-.48-.73-.9-.74ZM384.17,423.28c.32-.04.44-.27.45-.55,0-.28-.11-.54-.43-.54-.31,0-.45.26-.46.54,0,.28.13.5.44.55ZM386.18,425.9c.02-.31-.13-.52-.43-.52-.4,0-.61.28-.65.64-.03.28.15.54.43.54.39,0,.55-.32.64-.66ZM387.52,419.89c-.49.05-.52.42-.53.78-.01.29.11.56.43.55.48-.01.52-.41.54-.78.02-.31-.13-.5-.44-.55ZM386.84,423.47c.01-.25,0-.58-.3-.56-.19.02-.43.29-.53.5-.11.24.02.52.32.55.3.02.46-.2.5-.49ZM382.97,424.57c-.3.07-.37.29-.34.55.02.29.21.49.49.47.29-.02.41-.25.36-.52-.04-.28-.25-.43-.52-.49ZM384.35,421.21c.14-.17.43-.37.41-.54-.03-.27-.36-.28-.59-.2-.26.09-.4.3-.27.56.05.09.26.11.46.18ZM389.07,424.62c.31-.04.53-.18.45-.52-.03-.13-.23-.29-.35-.3-.31-.01-.52.18-.45.51.03.12.23.21.35.31ZM417.55,340.1c.07-.18.2-.35.18-.5-.03-.25.21-.78-.26-.66-.19.05-.31.78.08,1.16ZM402.79,419.86c.05-.32-.14-.48-.41-.5-.14,0-.36.09-.41.2-.11.25,0,.51.25.6.26.1.47-.05.57-.31ZM430.2,320.99c.06-.34.16-.6.14-.85-.03-.26-.21-.3-.29-.1-.07.16-.11.35-.1.52.01.13.13.24.25.44Z"/>
    <path class="cls-1" d="M341.45,236.67c.93-.43,1.89-.59,2.92-.59,17.42.04,34.85-.12,52.27.13,9.99.14,19.99.24,29.98.39,1.91.03,3.79.1,5.66.57-.21.76-.76,1.06-1.29.94-3.44-.77-6.92-.43-10.38-.54-25.67-.81-51.35-.44-77.02-.32-.45,0-.92-.11-1.28.28-.49-.09-.76-.39-.86-.86Z"/>
    <path class="cls-1" d="M349.56,255.14c.36,7.32.61,14.63.57,21.96-.02,3.76,0,7.51-.43,11.25-.05.45-.08.91-.19,1.35-.06.26-.3.41-.6.45-.38.04-.53-.26-.54-.48-.06-.82-.08-1.65-.06-2.47.19-6.32.6-12.63.45-18.95-.11-4.76-.21-9.52-.31-14.28.46.1.97.11,1.14.68-.16.18-.66.37,0,.56l-.03-.08Z"/>
    <path class="cls-1" d="M359.81,266.36c-.96-.13-.96.48-.98,1.19-.09,3.66-.18,7.33-.32,10.99-.13,3.57-.31,7.14-.47,10.71-.02.54.05,1.11-.39,1.55-.8.1-.91-.5-.92-1.03-.03-1.65-.05-3.3.05-4.95.4-6.5.75-13,.35-19.51-.05-.78-.06-1.46.7-1.9,1.3.55,2.47,1.19,1.97,2.94Z"/>
    <path class="cls-1" d="M352.92,258.01c-.28.1-.46.32-.43.6.81,9.04.5,18.1.4,27.15-.01,1.27-.26,2.55-.43,3.82-.06.45-.16.93-.79.89-.63-.04-.71-.55-.7-.98.04-2.29-.03-4.59.23-6.86.9-7.85.67-15.71.4-23.58-.02-.54.06-1.09.09-1.63.47.07,1.01,0,1.22.6Z"/>
    <path class="cls-1" d="M404.53,310.18c.21.7.1,1.33-.46,1.85-.19-.7-.09-1.33.46-1.85Z"/>
    <path class="cls-1" d="M436.2,310.35c-.23-.32-.11-.56.18-.76.14.3.1.56-.18.76Z"/>
    <path class="cls-1" d="M403.59,314.01c.17.28.1.51-.15.71-.16-.28-.12-.52.15-.71Z"/>
    <path class="cls-1" d="M394.65,348.72c.14.34.11.63-.24.82-.17-.35-.06-.61.24-.82Z"/>
    <path class="cls-1" d="M582.9,314.78c-.28,3.12-1.32,6.06-2.16,9.04-3.51,12.52-6.6,25.15-9.67,37.79-2.61,10.76-5.81,21.38-8.85,32.03-2.94,10.3-5.82,20.6-8.26,31.05-1.8,7.74-4.26,15.35-6.08,23.1-.29,1.25-.8,2.51-.77,3.75.06,2.34-.98,2.79-3.07,2.79-6.33,0-12.65.06-18.98.09-3.2.01-6.4,0-9.49,0-.42-.87-.06-1.47.12-2.06,4.42-14.37,8.02-28.95,11.39-43.6,2.01-8.75,4.56-17.36,6.39-26.16,5.45-26.2,12.68-51.97,19.47-77.84,1.58-6.02,2.99-12.09,4.5-18.14.15-.61.43-1.2.65-1.79.86.47,1.05-.32,1.52-.86-.2,3.94-1.15,7.62-2.02,11.33-1.85,7.84-3.1,15.81-5.41,23.55-.91,3.07-2.05,6.07-2.79,9.2-2.13,8.91-3.72,17.94-6.06,26.8-.76,2.89-1.84,5.7-2.06,8.73,1.51-5.36,3.46-10.59,4.54-16.06,2.77-14.03,6.75-27.76,10.73-41.48,2.85-9.85,6.06-19.6,9.07-29.4,1.6-5.19,2.85-10.49,5.36-15.38-.79,1.11-.09,2.44-.78,3.66-1.11,2-1.59,4.28-2.28,6.46-1.78,5.58-2.43,11.47-4.76,16.9-.36.85-.92,1.87-.1,2.85.2.24.23.49,0,.72-1.83,1.77-2.08,4.23-2.71,6.48-2.25,8.01-4.25,16.1-6.59,24.09-2.24,7.66-4.12,15.4-5.73,23.2-.44,2.11-.97,4.24-.76,6.43.59-1.94,1.01-3.9,1.43-5.86,2.32-10.65,5.1-21.19,8.04-31.69.42-1.49.84-3.01,2.03-4.14.24.22.48.44.73.65-2.45,9.85-4.86,19.71-7.35,29.55-1.59,6.3-3.38,12.56-2.86,19.17-.63.29-.69.71-.21,1.37.07-.55.12-.98.18-1.4,1.42-3.74,3.15-7.4,4.19-11.25,3.62-13.31,7.74-26.48,11.39-39.79,1.42-5.18,3.63-10.16,4.28-15.55.07-.61.52-.93,1.11-1.03l-.04-.03c-.06.54-.09,1.09-.2,1.63-1.26,6.29-3.14,12.43-4.66,18.65-3.14,12.8-6.45,25.55-9.97,38.25-1.93,6.97-3.77,13.96-5.32,21.02.22-.39.42-.79.53-1.21,3.93-14.4,7.85-28.8,11.79-43.19,1.88-6.88,3.66-13.8,5.84-20.6.21.18.43.36.64.54-.7,5.45-2.03,10.77-3.25,16.12-.68,2.97-1.35,5.95-2.03,8.93.49-.43.72-.93.85-1.45,2.48-9.93,5.13-19.82,7.36-29.81,1.73-7.76,2.96-15.63,5.58-23.18.97-2.82,1.66-5.74,3.24-8.38v2.37l.04-.06c-.91.4-.84,1.33-1.06,2.07-.76,2.54-1.39,5.13-2.23,7.65-2.77,8.37-4,17.1-5.81,25.69-1.3,6.17-2.31,12.4-3.93,18.5-.85,3.21-1.57,6.46-2.35,9.69,2.72-7.99,4.87-16.12,6.51-24.37.32-1.63,1.01-3.13,1.37-4.73.07-.33.34-.69.76-.6.37.08.58.41.71.78.13.38-.06.69-.17,1.04-.31,1.02-.7,2.04-.8,3.09-.55,5.58-2.02,10.96-3.52,16.34-.39,1.39-.68,2.81-1.02,4.21,2.31-6.11,4.01-12.38,5.57-18.96,1.5,1.23,1.15,2.46.91,3.57-1.24,5.73-2.64,11.41-4.37,17.01-3.05,9.88-6.63,19.61-8.84,29.74-.52,2.37-1.03,4.74-1.55,7.12,1.43-3.68,2.36-7.48,3.43-11.24,1.1-3.88,2.43-7.69,3.45-11.58,1-3.81,2.22-7.55,3.34-11.33,1.14-3.86,2.27-7.73,3.38-11.6,1.07-3.7,1.49-7.58,3.14-11.64,1.1,2.04.54,3.59.24,5.01-1.88,8.87-4.03,17.67-6.59,26.37-1.13,3.83-2.1,7.72-3.14,11.58.28-.02.34-.09.36-.18,3.61-12.68,7.22-25.36,10.81-38.04.3-1.06,1.56-3.21,2.39-4,.23-.22.11-.69.49-.81.38.86-.46,2.07.79,2.69ZM545.43,435.17c-.55-.06-.87.17-.84.73.02.28.26.57.54.45.37-.16.3-.59.3-.94,0-.09-.02-.18-.03-.27.03-.05.07-.1.1-.15l-.08.18ZM539.95,430.24c-.55.13-.91.34-1.16.97-1.4,3.64-2.04,7.53-3.55,11.14-.63,1.51-.96,3.15-1.33,4.75-.17.72-.38,1.54.21,2.14.69-.15.72-.53.81-.88,1.28-4.65,2.63-9.29,3.81-13.97.35-1.41,1.41-2.61,1.18-4.17.34-.76.83-1.52.33-2.45-1.3.81-.26,1.68-.3,2.48ZM543.78,442.88c-1.03.02-.98.89-1.25,1.54-.56,1.37-.99,2.82-2.42,4.13-.08-2.05.65-3.54,1.3-4.93.63-1.33.33-1.65-.91-1.7-1.07-.04-1.15-.57-.89-1.46.84-2.77,1.64-5.55,2.42-8.33.11-.38.17-.93-.72-1.06-.14,2.29-1.6,4.1-2.12,6.28-.81,3.38-1.88,6.68-3.06,9.95-.15.43-.29.88-.34,1.33-.02.22.13.57.31.67.31.18.71.17,1.05-.04.45-.28.4-.78.51-1.21.36-1.51.73-3.01,1.12-4.51.16-.61.56-1.02,1.19-.66.51.29.3.7-.02,1.13-.88,1.21-.95,2.68-1.17,4.1-.16,1.05.55,1.23,1.33,1.27.65.03,1.55.51,1.56-.78,0-.57.07-1.21.84-1.03.61.14.71.76.7,1.35-.07.03-.15.04-.21.09-.03.02-.03.1-.04.15.07-.09.15-.18.22-.26.44-.13.85-.3,1-.8.71-2.41,1.4-4.82,2.13-7.22.26-.87-.12-1.47-.85-1.74-.95-.35-.83.63-1.14,1.09-.5.75-.6,1.28.49,1.54.51.12.74.6.37,1.03-.32.36-.33,1.16-1.05,1.01-.37-.08-.38-.56-.41-.93l.12-.12-.09.14ZM531.68,446.69c0,.83-.38,1.72.44,2.74,2.43-4.44,2.14-9.32,3.67-13.71.61-1.74,1.23-3.71.93-5.74-1.77,2.73-2.21,5.88-2.81,8.97-.52,2.68-.95,5.36-2.27,7.8.03-2.11.68-4.14.84-6.22.08-1.05.83-2.1.11-3.17-.17-.25-.4-.34-.69-.26-.44.51.17,1.48-.78,1.87-.09-2.56-.09-2.55,1.62-3.5.21-.12.49-.41.47-.59-.16-1.34,1.07-2.3,1.05-3.61-1.98-.16-1.13,2.11-2.41,2.53-.87-1.19.37-2.4-.09-4.16-1.66,5.23-1.6,10.29-3.19,14.99-.42-5.97,1.62-11.69,1.82-17.59-1.19,5.43-3.05,10.71-3.2,16.33-.02.78-.15,1.47-1.04,1.71-.2-2.45,1.07-4.84.43-7.72-1.35,1.74-1.17,3.57-1.83,5.46-.7-2.13.02-3.85.12-5.64-.52.92-1.85-.28-2.22,1.05-.9,3.26-1.93,6.48-2.84,9.74-.17.59-.52,1.42.65,1.86.67-1.86,1.3-3.65,1.96-5.43.2-.53.53-.96,1.2-.94.83.02.99.66,1.23,1.26.24.6-.28,1.05-.29,1.56-.02.83-.76,1.63-.13,2.73,1.31-1.16.76-2.92,1.75-3.98.73.94.09,1.91.04,2.86-.04.74-.19,1.5.95,1.49.85,0,1.62.05,1.72-1.15.07-.97.19-1.99,1.15-2.59l-.04-.03c.21,1.2-.52,2.41-.19,3.7,1.51-.41.99-1.98,1.87-2.61ZM527.78,426.81c-.28,2.51-1.06,4.89-1.79,7.28-.16.52-.32,1.05-.38,1.59-.06.51.22.91.75.95.4.03.66-.27.71-.67.39-3.03,1.47-6,.71-9.16ZM543.66,434.71c-.13-.12-.24-.31-.37-.32-.15-.02-.4.09-.46.21-.39.83-.74,1.67-1.09,2.51-.2.48-.15.99.4,1.09.59.1,1.47.63,1.78.02.49-1-.61-.4-.9-.64-.53-.43-.31-.97-.02-1.45.27-.45.86-.75.66-1.41ZM521.76,449.25c2.1-2.22,2.23-2.59,1.72-4.97-.64,1.72-1.35,2.9-1.72,4.97ZM545.63,438.11c.84.45,1.36.08,1.67-.69.15-.38-.09-.8-.46-.85-.87-.11-.78.82-1.17,1.24-.05.05-.03.18-.04.3ZM535.87,426.42c-.18-.02-.35-.04-.53-.06-.26,1.09-.52,2.17-.93,3.89.88-1.61,1.32-2.67,1.46-3.83ZM548.21,432.29c-.59-.31-1.03-1.09-1.78-.31-.1.11-.17.42-.1.49.64.68,1.24.35,1.89-.18ZM541.43,439.5c-.16-.03-.41.33-.39.82.02.49.38.78.89.76.43-.02.98,0,.99-.59.02-.64-.5-.86-1.5-.99ZM544.13,431.59c-.53.29-.72.77-.6,1.34.03.12.28.3.39.27.61-.13.88-.56.79-1.17-.04-.28-.27-.44-.58-.45ZM546.7,425.93c-.01-.32-.19-.52-.49-.49-.3.02-.46.26-.5.55-.04.28.06.57.35.61.44.05.56-.31.64-.66ZM533.51,423.38c-.17.12-.4.19-.42.31-.09.44-.59,1.23.24,1.17.6-.05.55-.9.19-1.48ZM542.24,429.77c.54-.19.66-.63.77-1.03.07-.28-.13-.55-.42-.54-.55.03-.75.44-.71.92.02.23.24.43.36.65ZM544.64,423.75c-.1-.21-.13-.44-.25-.49-.31-.13-.49.08-.54.37-.04.24-.05.59.25.6.18,0,.36-.31.53-.47ZM540.81,425.94c.29-.05.5-.22.56-.5.03-.14-.03-.39-.14-.45-.27-.16-.5,0-.6.26-.1.26-.07.51.18.69ZM548.65,426.53c.37.07.53-.16.57-.45.02-.15-.12-.45-.21-.45-.3-.03-.51.2-.56.48-.02.13.14.3.2.42ZM544.74,429.91c.45.1.54-.18.61-.44.07-.26.05-.61-.22-.64-.17-.02-.44.27-.56.49-.14.24-.05.5.16.6ZM547.8,430.05c.17-.08.54-.03.37-.44-.06-.14-.23-.28-.38-.32-.28-.08-.52.04-.54.35-.02.31.19.44.54.42ZM547.57,435.14c.04-.38-.03-.66-.34-.68-.28-.02-.51.19-.55.5-.04.29.08.54.39.58.32.04.48-.19.51-.39ZM542.38,422.61c-.08-.14-.12-.37-.24-.41-.32-.11-.48.12-.48.41,0,.15.1.41.19.43.29.06.46-.15.53-.42ZM546.83,423.96c.15-.07.36-.1.42-.22.05-.1-.08-.29-.14-.44-.14.06-.37.09-.41.2-.05.12.07.3.12.46ZM538.23,424.95c-.08-.15-.15-.31-.23-.46-.09.14-.24.29-.24.43,0,.15.13.31.21.46.09-.14.17-.29.26-.43ZM543.47,425.61c-.26.22-.25.47-.18.73.02.08.14.2.16.19.28-.11.33-.36.28-.61-.03-.12-.17-.21-.26-.31Z"/>
    <path class="cls-1" d="M498.1,245.39c.69-.37,1.44-.22,2.16-.2,23.1.63,46.19.13,69.29.02.96,0,1.97-.24,2.85.23,0,.54-.19.86-.57.94-.54.1-1.09.14-1.64.16-5.13.16-10.28.68-15.38.39-10.53-.58-21.06-.19-31.58-.26-5.56-.04-11.11.81-16.68.27-2.81-.27-5.69-.02-8.42-1.02-.01-.18-.03-.35-.04-.53Z"/>
    <path class="cls-1" d="M495.5,243.19c6.32-.18,12.63-.47,18.95-.52,14.39-.11,28.79,0,43.18-.42,5.31-.16,10.63-.14,15.94-.18.78,0,1.6-.2,2.38.17-.36,1.21-1.32.95-2.08.98-3.2.15-6.41.31-9.62.33-20.72.15-41.44.26-62.17.37-2.01.01-4.03.33-6.02-.19-.31-.05-.48-.26-.57-.55Z"/>
    <path class="cls-1" d="M501.51,249.21c8.89-.05,17.77-.05,26.66-.18,12.91-.19,25.83-.58,38.74-.46.81,0,1.64-.19,2.49.17.06.84-.55,1-1.16,1.11-.36.07-.73.06-1.09.06-20.7-.08-41.4.74-62.1.53-.82,0-1.64-.1-2.46-.15-.52-.2-.88-.56-1.07-1.09Z"/>
    <path class="cls-1" d="M499.18,256.99c-.88.39-.43,1.11-.34,1.66,1.82,10,1.52,20.04.51,30.09-.03.27-.03.55-.07.82-.09.58-.3,1.08-1.02.98-.54-.08-.76-.49-.75-.98,0-.82.06-1.64.11-2.46.28-4.93.6-9.86.84-14.8.25-5.13-.06-10.24-.89-15.31-.07-.43.08-.89.13-1.34.62.31,1.33.53,1.49,1.35Z"/>
    <path class="cls-1" d="M502.49,260.85c-.94.34-.52,1.1-.37,1.61.57,1.97.54,3.97.54,5.98,0,6.94-.02,13.89-.08,20.83,0,.63.4,1.73-.69,1.72-1.07,0-.66-1.13-.66-1.74,0-6.49-.02-12.97.11-19.46.07-3.67-.88-7.23-.95-10.88.92.41,1.9.75,2.09,1.94Z"/>
    <path class="cls-1" d="M495.47,253.56c.22,5.11.39,10.22.68,15.32.06,1.16.03,2.38.58,3.49.24.5.14.88-.45,1-.54.11-.86-.17-.98-.68-.06-.26-.09-.54-.1-.81-.19-6.3-.74-12.59-.41-18.9.23.19.46.39.7.58Z"/>
    <path class="cls-1" d="M503.47,263.72c-.55-.32-.58-.84-.52-1.39.66.28.69.8.52,1.39Z"/>
    <path class="cls-1" d="M558.52,283.17c.16.37.09.65-.27.86-.13-.36-.05-.64.27-.86Z"/>
    <path class="cls-1" d="M145.32,427.33c.92,2.21.47,4.51.29,6.74-.2,2.48-.14,4.93-.01,7.4.18,3.66.26,7.33.31,10.99.02,1.87-.05,1.91-2.08,1.98-1.92.07-3.85.05-5.77.06-6.51.02-13.02.06-19.53.05-2.41,0-2.42-.05-2.48-2.46-.19-8.15-.27-16.31-.59-24.46-.46-11.82-.12-23.65-.57-35.46-.73-19.05-.67-38.12-1.15-57.17-.26-10.08-.19-20.16-.35-30.24-.02-1-.17-2.02.2-3,.92.28,1.14-.26,1.12-1-.07-3.21.4-6.4.56-9.6.2-3.75.33-7.51.57-11.25.07-1.14.06-2.36.85-3.35-.01,2.74-.41,5.44-.41,8.15.02,17.04-.4,34.07.35,51.11.51,11.63.52,23.28.73,34.92.04,2,.18,3.98.82,5.91.03-.08.07-.14.07-.21.2-19.43-.26-38.86-.84-58.28,0-.26.11-.52.19-.77.03-.08.11-.15.19-.19.33-.17.08.32.27-.01.5.26.4.76.43,1.18.5,7.96.99,15.92,1,23.89.02,8.89.41,17.78.72,26.66.09,2.49.43,4.96.65,7.44.85-1.1.7-2.26.74-3.39.35-10.27-.06-20.54-.13-30.8-.01-1.74-.13-3.48-.17-5.22-.15-6.41-.76-12.81-.64-19.23.01-.68-.28-1.51.72-1.81.52.26.43.74.45,1.17.4,9.24,1.1,18.48.87,27.74-.22,8.9.45,17.77.75,26.65,0,.29-.1.66.29.87.32-1,.22-2.01.2-3.01-.29-16.31.09-32.63-.5-48.95-.44-12.08-.03-24.19.08-36.29.02-2.44.37-4.88.59-7.74.42,1.41.32,2.43.29,3.42-.27,8.05.43,16.11-.48,24.15-.47,4.11.39,8.21.49,12.32.18,7.51,1.2,14.98,1.16,22.5-.03,6.23-.03,12.47.09,18.71.08,4.06.42,8.12.64,12.18.97-1.89.73-3.86.7-5.8-.03-1.92-.27-3.83-.34-5.75-.08-2.02-.08-4.03-.09-6.05-.02-2.02-.02-4.03-.02-6.05,0-1.93.01-3.85.03-5.78.01-2.02.04-4.03.04-6.05,0-2.02.06-4.04-.01-6.05-.08-2.01-.32-4.02-.43-6.03-.11-1.92-.22-3.85-.17-5.77.05-1.88-.34-3.81.25-5.81.83.65.66,1.36.7,1.95.45,6.21,1.15,12.42,1.2,18.64.1,12.83.04,25.66.8,38.48.07,1.12-.26,2.37,1.02,3.75-1.13-21.23-.02-42-1.28-62.83.93.21.99.7,1.02,1.13.16,1.82.25,3.66.43,5.48.94,9.21,1.73,18.43,1.55,27.69-.15,7.61-.03,15.21.59,22.8.1,1.24.38,2.47.58,3.71.24-4.8-.1-9.55-.08-14.3.04-13.02-.08-26.02-1.12-39.01-.13-1.64-.19-3.33.09-4.94.48-2.84.35-5.67.18-8.5-.49-8.05-.93-16.1-.78-24.16.01-.56-.18-1.23.37-1.69.75.48.42,1.08.44,1.57.11,4.03-.06,8.08.35,12.08.56,5.48.39,10.99.53,16.46.09,3.56.12,7.14.57,10.64.9,7.01,1.2,14.06,1.43,21.1.29,9.07.1,18.15.75,27.2.15,2.06.44,4.11.66,6.16.16-5.51.01-11-.21-16.5-.34-8.24-.19-16.49-.58-24.74-.36-7.5-.09-15.03-.1-22.55,0-.55.02-1.1-.03-1.65-.68-6.3-.76-12.61-.75-18.94,0-.59-.12-1.31,1.13-1.68.19,4.35.14,8.6.19,12.84.06,4.22.05,8.44.19,12.65.14,4.28.41,8.55.62,12.83.17,0,.34,0,.51,0v-38.19c1.07.61.86,1.45.88,2.21.22,6.6-.08,13.2-.02,19.8.1,11.63-.12,23.27-.02,34.9.06,6.42.2,12.84.37,19.25.07,2.58.31,5.16.51,8.28.98-1.36.71-2.39.71-3.33.04-15.96.06-31.91.1-47.87,0-1.47.03-2.93.09-4.4.02-.52.05-1.17,1.12-.99.81,17.17.21,34.42,1.12,51.64.64-29.52.39-59.05,1.27-88.57.36,1.54.48,3.09.5,4.64.19,13.29.31,26.59.54,39.88.25,13.94-.59,27.86-.22,41.8.48,17.96-.09,35.93.72,53.88.12,2.74-.27,5.5.4,8.21ZM122.48,451.3c.83-5.4.02-18.35-1.18-20.33,0,1.7-.03,3.35,0,5,.08,3.68.09,3.68-.91,4.62.11-3.65.16-7.21-.66-10.73-.77,2.56-.8,18.91.09,21.05.36-2.93.57-5.55.4-8.2-.03-.43.02-.77.42-.82.42-.06.59.31.65.7.29,1.81.41,3.63.42,5.46,0,.92-.23,1.96.76,3.25ZM135.72,448c-.63-4.78.07-9.71-1.41-14.02,0,3.5-.02,7.31,0,11.12,0,1.36-.31,2.72,0,4.06.14.61.27,1.26,1.15,1.31.78.05,1.16-.32,1.46-.97.35-.76.5-1.55.55-2.39.23-4.13-.33-8.22-.53-12.32-.04-.79-.34-1.48-.76-2.16-.38,5.15.91,10.29-.48,15.36ZM132.27,434.13c-.2-.01-.4-.03-.6-.04,0,4.99,0,9.98,0,14.97,0,.27.01.55.04.82.04.48.22.96.75.96.56,0,.69-.52.69-.99.02-5.26.19-10.52-.89-15.71ZM127.91,432.76c-.24.31-.34.38-.34.45.07,2.73.28,5.46.18,8.18-.1,2.68.63,5.39-.35,8.04-.09.23.04.54.07.81.05.41.28.72.69.65.2-.03.44-.35.5-.58.11-.44.12-.91.12-1.36-.02-4.11-.05-8.22-.09-12.33-.01-1.26-.08-2.52-.78-3.87ZM130.43,450.72c.42-5.6.97-11.21-.62-16.72.49,5.57-.12,11.17.62,16.72ZM125.81,432.17c-.23,4.86.26,9.76,0,14.68,1.08-1.6,1.04-11.53,0-14.68ZM124.12,432.61c-.15,4.9-.28,9.79.28,14.66.96-4.91.31-9.79-.28-14.66ZM139.18,445.33c-.64,1.61-1.09,3.24-.4,4.96,1.04-1.55,1.13-3.21.4-4.96ZM141.1,445.3c-.23,1.3.26,2.77-.31,4.09-.19.43-.13.99.47,1.05.81.08.91-.69.74-1.11-.45-1.14-.39-2.2-.02-3.32.09-.29-.05-.73-.88-.71ZM139.24,444.13c.19-1.58.81-3.21-.21-4.76-.02,1.58-.59,3.16.21,4.76ZM126.55,448.15c-.61.12-.86.18-1.11.21-.98.14-1.06.83-.96,1.6.04.34.07.8.55.8.82,0,.94-.71,1.16-1.27.13-.33.19-.68.36-1.34ZM143.29,446.15q.52-1.43-.12-2.46c.05.95.09,1.7.12,2.46ZM141.33,441.21c-.45,1.23-.51,1.95.42,3.01.16-1.17.16-1.88-.42-3.01ZM143.63,435.94c-.35-.02-.42.25-.41.49.01.24.09.66.21.68.41.09.59-.23.61-.61,0-.27-.13-.48-.41-.56ZM141.91,440.03c.14-.3.03-.54-.2-.71-.24-.18-.5-.14-.63.16-.11.27-.06.56.18.73.25.18.48.06.65-.18Z"/>
    <path class="cls-1" d="M145.4,417.61c-.41-1.87-.35-3.75,0-5.62.56,1.87.59,3.75,0,5.62Z"/>
    <path class="cls-1" d="M113.6,279.84c.51,1.38.39,2.75-.07,4.11-.28-1.37-.26-2.74.07-4.11Z"/>
    <path class="cls-1" d="M270.12,248.26c-1.66-.29-2.43-.94-3.27-1.41-7.26-4.04-14.88-7.06-23.22-7.84-4.22-.39-8.4.3-12.54,1.14-8.64,1.77-16.48,5.29-23.78,10.25-3.82,2.6-7.26,5.56-10.48,8.82-.53.53-.93,1.35-1.87,1.22-.4-.64,0-.97.29-1.27,7.36-7.59,15.77-13.74,25.71-17.42,6.7-2.48,13.66-4.19,20.9-4.1,4.23.05,8.35.69,12.34,2.24,3.92,1.53,7.92,2.85,11.64,4.85,1.43.77,2.91,1.52,4.27,3.5Z"/>
    <path class="cls-1" d="M223.54,238.1c1.59-1.04,3.14-2.07,4.7-3.09.07-.05.2-.11.25-.08,2.41,1.34,4.74-.34,7.14-.18,2.46.17,4.94-.01,7.41-.04,3.88-.04,7.68.57,11.35,1.75,5.31,1.71,10.48,3.82,15.36,6.54,2.42,1.35,4.09,3.36,4.7,6.12.08.35.1.72.08,1.08,0,.13-.2.32-.33.35-.14.04-.39-.03-.47-.14-.22-.29-.44-.6-.54-.94-.88-2.94-2.99-4.91-5.57-6.14-6.27-2.97-12.56-6-19.56-6.92-3.73-.49-7.46-.71-11.18.05-.18.04-.38.16-.53.11-4.14-1.18-7.82.72-11.63,1.75-.35.09-.69.25-1.17-.23Z"/>
    <path class="cls-1" d="M294.48,267.9c2.33,3.52,3.79,7.47,5.33,11.35,1.86,4.67,2.16,9.74,3.09,14.65.79,4.17-.13,8.19-.82,12.24-.06.38-.29.65-.85.64-.51-1.21-.14-2.47.03-3.68.83-5.79.05-11.42-.89-17.15-.94-5.71-3.47-10.72-5.53-15.96-.28-.7-.47-1.38-.33-2.13l-.04.03Z"/>
    <path class="cls-1" d="M196.55,255.75c.79-2.72,2.37-4.94,4.47-6.76,4.1-3.54,8.54-6.58,13.39-8.99.87-.43,1.75-1.05,2.84-.63.27.81-.38.88-.84,1.08-5.22,2.31-9.88,5.51-14.35,9.02-1.4,1.1-2.24,2.63-3.32,3.98-.66.82-.96,2.03-2.22,2.28l.03.03Z"/>
    <path class="cls-1" d="M299.32,269.64c-.69.52-.38,1.07-.67,1.46-.51-.29-.9-1.01-.63-1.25,1.52-1.29.53-2.34-.13-3.47-.06-.11.07-.34.11-.51q1.41.62,3.98,7.14c1.01,2.59,2.15,5.15,2.13,8.03-1.41-3.84-3.63-7.32-4.78-11.4Z"/>
    <path class="cls-1" d="M297.4,305.9c-.94-7.15-.45-14.5-3-21.42,2.62,2.54,4.25,14.3,3,21.42Z"/>
    <path class="cls-1" d="M297.28,279.95c-.9.21-1.06-.58-1.3-1.09-2.65-5.49-5.12-11.06-7.03-16.87-.11-.34-.08-.7.36-1.04,1.39,1.86,1.65,4.18,2.61,6.2,1.83,3.86,3.4,7.84,5.07,11.78.14.32.17.69.25,1.04l.04-.03Z"/>
    <path class="cls-1" d="M299.94,303.1c-.54-6.87-1.03-13.72-3.81-20.17,3.73,6.27,4.31,13.14,3.81,20.17Z"/>
    <path class="cls-1" d="M269.15,257.38c.77-.82,1.25-.11,1.84.31,3.6,2.56,5.89,6.22,8.17,9.86.54.86,1.33,1.67,1.18,2.93-3.59-4.54-6.65-9.49-11.21-13.15,0,0,.03.05.03.05Z"/>
    <path class="cls-1" d="M292.55,277.71c-1.46-2.46-2.72-4.96-3.77-7.58-.47-1.17-1.18-2.24-1.73-3.38-.16-.34,0-.71.38-.9.34-.17.54.1.63.33,1.53,3.76,3.51,7.33,4.7,11.22.02.05-.09.15-.21.31Z"/>
    <path class="cls-1" d="M287.75,259.38c-1.63-2.67-3.26-5.33-4.89-8,.17-.11.34-.21.52-.32,1.75,2.6,3.59,5.15,4.97,8-.2.11-.4.22-.59.32Z"/>
    <path class="cls-1" d="M284.17,260.08c.16.08.4.13.46.25.54,1.21,1.08,2.43,1.56,3.68.13.34-.07.7-.52.77-.43.07-.81-.25-.81-.54,0-1.27-.41-2.32-1.29-3.26-.25-.27-.02-.87.6-.9Z"/>
    <path class="cls-1" d="M279.6,262.41c1.6,1.26,3.34,2.41,3.75,4.62-1.58-1.28-3.27-2.48-3.71-4.65,0,0-.04.03-.04.03Z"/>
    <path class="cls-1" d="M270.15,251.75c1.33.95,2.32,1.65,3.47,2.48-2.66.48-2.81.38-3.47-2.48Z"/>
    <path class="cls-1" d="M281.75,255.94c-1.03.5-1.17,1.68-2.17,1.03-.25-.16-.37-.47-.24-.72.49-.92,1.26-.36,2.41-.31Z"/>
    <path class="cls-1" d="M286.26,270.61c-1.18-.44-1.87-1.28-2.22-2.59q1.61.72,2.2,2.61l.03-.03Z"/>
    <path class="cls-1" d="M297.24,279.98c.77.8,1.5,1.62,1.72,3.38-1.23-1.24-2.05-2.02-1.68-3.41,0,0-.04.03-.04.03Z"/>
    <path class="cls-1" d="M277.84,250.83c-.12.33-.34.42-.61.3-.35-.16-.57-.45-.6-.84-.02-.32.19-.57.48-.46.43.16.72.51.73.99Z"/>
    <path class="cls-1" d="M283.3,258.51c0,.35-.18.53-.5.49-.4-.05-.62-.35-.72-.7-.07-.27.03-.57.34-.59.54-.03.76.37.88.81Z"/>
    <path class="cls-1" d="M280.48,247.71c-.39.17-.65-.11-.93-.26-.34-.18-.56-.55-.35-.84.37-.49.75-.18,1.02.2.18.26.48.52.26.9Z"/>
    <path class="cls-1" d="M275.76,256.75c-.11.31-.25.5-.58.36-.52-.22-.91-.57-1.02-1.13-.06-.3.11-.55.42-.47.65.16,1.07.58,1.17,1.25Z"/>
    <path class="cls-1" d="M294.51,267.86c-.2-.15-.42-.28-.58-.47-.22-.26-.39-.56-.18-.92.04-.06.15-.13.22-.12.44.06.49.41.52.76.02.26,0,.52,0,.78,0,0,.04-.03.04-.03Z"/>
    <path class="cls-1" d="M278.52,260.74c1.44-.15,1.25.76,1.08,1.66,0,0,.04-.03.04-.03-.66-.36-1.51-.6-1.08-1.67l-.04.04Z"/>
    <path class="cls-1" d="M278.91,252.74c-.15.25-.39.32-.62.2-.1-.06-.2-.3-.16-.42.08-.28.33-.37.58-.21.11.07.14.28.21.43Z"/>
    <path class="cls-1" d="M281.79,259.97c-.06.16-.09.39-.2.45-.26.14-.48,0-.59-.26-.09-.2-.01-.36.2-.44.28-.11.48-.05.6.25Z"/>
    <path class="cls-1" d="M276.07,253.08c-.03.12.1-.11.44-.02.28.08.46.29.41.58-.04.26-.13.55-.5.4-.25-.1-.5-.23-.35-.97Z"/>
    <path class="cls-1" d="M277.42,257.79c-.08.15-.14.42-.24.44-.28.05-.53-.12-.58-.41-.02-.12.13-.34.25-.38.28-.09.5.04.57.35Z"/>
    <path class="cls-1" d="M278.56,260.71c-.14-.09-.32-.16-.43-.28-.15-.17-.45-.41-.16-.6.27-.17.41.13.46.39.03.17.06.35.08.52,0,0,.04-.04.04-.04Z"/>
    <path class="cls-1" d="M277.21,243.93c.29.02.47.19.49.47,0,.1-.16.26-.28.3-.32.09-.47-.12-.45-.4,0-.13.15-.24.24-.36Z"/>
    <path class="cls-1" d="M286.23,270.63c.34.03.47.28.56.55,0,0,.04-.04.04-.04-.34-.03-.54-.2-.57-.54,0,0-.03.03-.03.03Z"/>
    <polygon class="cls-1" points="196.53 255.72 196.47 255.84 196.56 255.75 196.53 255.72"/>
    <path class="cls-1" d="M269,253.85c.19.22.28.46-.05.61-.08.03-.26-.16-.39-.25.15-.12.29-.24.44-.35Z"/>
    <path class="cls-1" d="M422.77,264.46c-2.42,9.2-5.77,18-7.98,27.17-.57-.3-.09-.93-.83-1.39-.26,4.71-.53,9.3-2.55,13.52-.64-2.7-.49-5.37.05-8.02.79-3.85,1.37-7.91,3.33-11.25,3.57-6.11,4.52-13.13,7.51-19.39.11-.23.31-.42.47-.63Z"/>
    <path class="cls-1" d="M441.93,253.55c-.22,3.87-1.57,7.5-2.47,11.21-2.8,11.64-5.75,23.24-8.64,34.85-.64,2.55-.69,5.23-1.65,7.73-.97-.27-.8-.95-.72-1.57.41-3.08.91-6.15,1.72-9.16,3.65-13.5,7.46-26.97,10.77-40.56.21-.88.25-1.82,1.02-2.47l-.03-.03Z"/>
    <path class="cls-1" d="M427.14,308.57c-1.62-.76-2.08-1.38-1.63-3,1.86-6.79,2.73-13.79,4.75-20.55,1.62-5.42,2.72-11,4.75-16.3.21-.56.17-1.31,1.22-1.64-.61,2.14-1.22,4.1-1.73,6.09-2.26,8.84-4.85,17.61-6.26,26.66-.27,1.71-.63,3.42-1.17,5.06-.42,1.29-.27,2.48.02,3.71l.04-.04Z"/>
    <path class="cls-1" d="M434.55,308.36c-.21-2.7-.33-4.84.51-6.91.93-2.28,1.98-4.58,2.28-7,.56-4.58,2.76-8.6,3.96-12.95.11-.39-.17-1.04.56-.96.65.07.47.61.42,1.06-.28,2.57-1.37,4.92-2.12,7.35-1.49,4.88-2.28,9.97-4.36,14.67-.21.48-.33.9-.11,1.52.43,1.19.32,1.23-1.15,3.21Z"/>
    <path class="cls-1" d="M423.53,304.02c1.97-11,4.58-21.82,7.62-32.55.62.88.25,1.68.05,2.51-1.64,6.94-3.28,13.88-4.88,20.83-.51,2.23-.9,4.48-1.37,6.71-.2.95-.43,1.9-1.42,2.5Z"/>
    <path class="cls-1" d="M413.93,280.81c-1.85,7.38-2.92,14.9-5.32,22.1-.17.52-.37,1.06-1.07,1.06-.16-1.91,4.99-21.41,6.39-23.17Z"/>
    <path class="cls-1" d="M431.56,307.7c.22-6.33,2.32-12.2,4-18.18.79,2.11-.22,4.02-.62,6-.42,2.05-.65,4.14-1.19,6.16-.55,2.06-.93,4.2-2.2,6.03Z"/>
    <path class="cls-1" d="M424.19,270.37c-.27,3.72-1.18,7.3-2.37,10.83-.03-3.78,1.12-7.31,2.37-10.83Z"/>
    <path class="cls-1" d="M438.54,277.75c-1.03,3.52-.76,7.33-2.3,10.75-.02-3.74.71-7.33,2.3-10.75Z"/>
    <path class="cls-1" d="M429.66,315.11c-.09-.11-.16-.17-.19-.25-.28-.93-.17-1.77.72-2.32.1-.06.55.17.62.36.45,1.16-.08,1.84-1.16,2.21Z"/>
    <path class="cls-1" d="M430.69,311.19c-.37-.14-.67-.38-.71-.74-.1-.88.71-1.16,1.22-1.58.18-.15.68.31.65.66-.07.74-.51,1.3-1.15,1.66Z"/>
    <path class="cls-1" d="M427.56,313.96c-.84-.11-.76-.87-.89-1.42-.1-.44-.08-1.01.46-1.1.88-.15.97.64,1.11,1.21.14.56-.02,1.08-.68,1.32Z"/>
    <path class="cls-1" d="M440.66,270.74c.29.81.96,1.3.33,1.92-.12.12-.61.1-.71-.03-.5-.62-.06-1.15.38-1.9Z"/>
    <path class="cls-1" d="M427.1,308.6c.35.09.74.12,1.03.3.4.25.64.66.37,1.15-.07.13-.29.24-.45.24-.44,0-.54-.41-.73-.7-.21-.32-.31-.65-.19-1.03,0,0-.04.04-.04.04Z"/>
    <path class="cls-1" d="M434.19,309.11c.52,0,.6.36.59.72,0,.37-.15.73-.54.85-.46.14-.64-.19-.68-.57-.05-.49.11-.88.62-.99Z"/>
    <path class="cls-1" d="M439.85,274.11c.34.11.67.32.61.68-.07.38-.5.43-.84.44-.3.01-.47-.21-.44-.5.04-.37.27-.61.67-.63Z"/>
    <path class="cls-1" d="M442.82,275.43c-.07.15-.11.35-.23.45-.18.14-.4.05-.42-.17-.01-.15.09-.36.2-.45.17-.13.35-.03.45.17Z"/>
    <path class="cls-1" d="M410.31,307.73c-.03-.07-.1-.14-.1-.21.01-.24.11-.3.22-.16.04.05.04.16.02.23-.02.05-.09.09-.14.13Z"/>
    <path class="cls-1" d="M414.22,279.05c.05.16.16.31.14.44-.01.1-.18.18-.28.26-.05-.15-.16-.3-.14-.43.01-.1.18-.18.29-.27Z"/>
    <polygon class="cls-1" points="441.96 253.58 442.03 253.5 441.93 253.55 441.96 253.58"/>
    <path class="cls-1" d="M424.37,249.18c-1.8.8-3.71.84-5.64.82-15.41-.12-30.79.53-46.17,1.32-4.39.22-8.8.16-13.2.2-1.4.01-2.75-.19-3.81-1.24.17-.39.48-.48.88-.46,8.71.61,17.38-.34,26.08-.52,1.01-.02,2.01-.15,3.02-.16,9.99-.08,19.97-.67,29.96-.58,2.64.02,5.31.27,7.92-.5.87-.26,1.45.07.97,1.13Z"/>
    <path class="cls-1" d="M428.14,242.84c-1.68.86-3.48.83-5.25.8-14.19-.21-28.39.12-42.58.3-8.79.12-17.57.4-26.36.27-1.43-.02-2.88.04-4.22-.79.51-.72,1.19-.57,1.76-.57,25.44.34,50.87-.31,76.3-.6.08,0,.17.27.36.58Z"/>
    <path class="cls-1" d="M425.02,245.38c-1.24,1.14-2.44,1.12-3.58,1.14-3.21.06-6.41.09-9.62.08-9.53-.04-19.04.65-28.56.89-9.16.23-18.32.44-27.49.17-1.24-.04-2.56.1-3.78-1.43,24.47.58,48.55-1.13,73.03-.84Z"/>
    <path class="cls-1" d="M345.7,240.41c-.22-.75-.11-1.26.84-1.2,19.67,1.17,39.36.19,59.05.37,6.13.06,12.27.07,18.4-.2,1.87-.08,3.76,0,5.93.66-1.47.64-2.64.46-3.78.47-24.27.06-48.55.11-72.82.14-2.56,0-5.13.1-7.67-.29,0,0,.06.06.06.06Z"/>
    <path class="cls-1" d="M339.71,290.91c-.99.33-1.7.21-1.73-.98-.03-1.56-.05-3.12.01-4.67.37-9.79.77-19.57,1.16-29.35.05-1.17.03-2.34.78-3.67.61,4.5-.19,8.72.05,12.94.24,4.28-.45,8.62-.17,12.89.29,4.24-1.46,8.47-.1,12.84Z"/>
    <path class="cls-1" d="M342.98,251.17c1.27.94.95,1.73.89,2.39-.61,6.67-.22,13.35-.3,20.02-.05,4.39-.14,8.78-.24,13.17-.02,1-.15,2-.24,3.01-.04.45-.1.98-.67,1.01-.63.03-.65-.54-.65-.97-.01-1.19-.1-2.39.06-3.56.95-7.02.37-14.07.66-21.1.18-4.52.33-9.05.49-13.96Z"/>
    <path class="cls-1" d="M336.02,291.37c-.6-.09-.71-.37-.71-.62-.3-14.11.85-28.22-.18-42.43.97.21.95.72,1.01,1.15.43,2.96.32,39.71-.11,41.9Z"/>
    <path class="cls-1" d="M354.99,261.35c.84,1.5,1.09,3.18,1.16,4.85.31,7.59-.15,15.18-.49,22.76-.02.36-.05.73-.16,1.07-.08.26-.35.42-.64.34-.15-.04-.35-.18-.38-.31-.11-.44-.21-.89-.21-1.34,0-1.55-.04-3.11.06-4.66.37-5.75.63-11.5.12-17.26-.16-1.8-.06-3.6.53-5.45Z"/>
    <path class="cls-1" d="M345.61,254.15c1.05,12.05,1.15,24.16.62,36.36-1.37-.31-1.15-1.27-1.16-2.03-.02-2.48-.11-4.96.08-7.42.58-7.78.29-15.58.46-23.37.03-1.18,0-2.36,0-3.54Z"/>
    <path class="cls-1" d="M376.42,255.22c.06-1.2-.86-.95-1.52-.98-3.66-.12-7.32-.15-10.98-.34-1.76-.09-3.64.17-5.35-.92.47-.2-.07,0,.1-.33.03-.06.12-.13.19-.14,1.82-.34,3.65-.19,5.47-.08,18.44,1.04,36.87-1.18,55.89-.5-1.89,1.6-3.33,2.91-4.86,4.09-.88.68-1.95.95-3.09.95-11.72-.02-23.44-.03-35.16-.05-.26,0-.53-.12-.79-.19.95-.81,2.1-.55,3.15-.48,3.75.26,7.38-.88,11.12-.69-1.37-.13-2.73-.08-4.09-.14-3.35-.14-6.72.34-10.06-.21Z"/>
    <path class="cls-1" d="M362.45,256.4c3.28-.11,6.56-.67,9.81.31-3.05.39-6.1.19-9.15.1-.22,0-.44-.27-.65-.41Z"/>
    <path class="cls-1" d="M579.01,256.9c-1.12,3.48-2.17,6.99-3.38,10.44-1.97,5.62-3.08,11.48-4.75,17.18-3.58,12.18-7.28,24.33-10.62,36.58-1.88,6.88-4.03,13.69-5.79,20.6-.66,2.57-1.16,5.18-1.86,7.74-.28,1.01-.33,2.19-1.27,2.96-.8-.27-.57-.84-.47-1.32,2.47-11.91,5.25-23.75,8.57-35.46.49-1.72,1.83-2.79,2.39-4.46,1.96-5.82,2.96-11.9,4.91-17.71,3.6-10.75,6.24-21.81,10.23-32.43.53-1.41.7-3.07,2.09-4.06l-.04-.04Z"/>
    <path class="cls-1" d="M568.2,306.66c.22-1.83.91-3.54,1.34-5.32.86-3.56,1.47-7.15,1.99-10.78.83-5.7,2.5-11.25,4.35-16.71,1.7-5.02,3.67-9.94,5.08-15.07.02,2.66-.75,5.18-1.59,7.63-2.52,7.37-4.49,14.9-6.57,22.39-.63,2.27-.58,4.71-.99,7.05-.68,3.86-1.34,7.73-2.97,11.35-.21-.18-.43-.36-.64-.54Z"/>
    <path class="cls-1" d="M589.18,251.34c.42.39.2.82.08,1.24-3.56,12.03-6.37,24.22-8.14,36.65-.13.92.09,2.54-1.25,2.31-1.63-.28-.77-1.77-.45-2.7,1.99-5.83,2.56-11.97,4.01-17.92,1.49-6.13,3.26-12.19,4.91-18.28.14-.52.2-1.1.85-1.3Z"/>
    <path class="cls-1" d="M580.59,271.79c1.01-.69.64-2.03,1.44-2.98.55.78.14,1.49,0,2.18-1.46,6.89-3.06,13.75-4.34,20.67-.77,4.18-1.7,8.32-2.61,12.47-.11.49-.29.83-.91,1.08-.57-1.44.02-2.72.25-3.97,1.6-8.73,3.7-17.36,5.76-25.99.27-1.15.67-2.29.45-3.51,0,0-.04.06-.04.06Z"/>
    <path class="cls-1" d="M566.07,264.29c-.62,5.86-2.72,11.33-4.55,16.88.75-5.83,3.04-11.24,4.55-16.88Z"/>
    <path class="cls-1" d="M571.67,267.62c-.29,3.92-1.34,7.25-1.8,10.68-.05.34-.23.73-.68.71-.49-.03-.61-.48-.47-.79,1.47-3.24,1.62-6.86,2.95-10.6Z"/>
    <path class="cls-1" d="M582.47,290.09c.3-2.05.59-4.1.93-6.15.08-.5.2-1.18.94-.99.48.12.64.65.52,1.12-.5,2-.98,4.01-.97,6.09,0,.09-.02.18-.05.26-.21.52-.52,1.08-1.16.84-.45-.17-.41-.74-.21-1.18Z"/>
    <path class="cls-1" d="M562.91,299.5c-.89,3.92-1.59,7.9-3.42,11.55-.24-.22-.48-.43-.73-.65,1-3.84,1.97-7.7,3.41-11.41.24.17.49.34.73.51Z"/>
    <path class="cls-1" d="M590.79,277.76c-.62,3.36-1.26,6.3-2.4,9.2-1.14-.78-.33-1.49-.26-2.18.08-.81.07-1.63.23-2.43.16-.79.97-1.28.99-2.21.01-.77-.13-1.7,1.44-2.39Z"/>
    <path class="cls-1" d="M577.59,299.19c.16-1.04.17-1.89.44-2.64.2-.54.88-.7,1.43-.48.53.21.44.73.26,1.17-.36.84-.69,1.66-.64,2.62.03.55-.22,1.14-.95,1.02-.58-.1-.55-.65-.57-1.1-.01-.27.04-.55.04-.58Z"/>
    <path class="cls-1" d="M583.84,300.73c-.33-1.25-.97-2.25.61-2.68.93-.26.33-1.09.49-1.64.11-.39.31-.69.73-.58.4.1.53.49.42.87-.4,1.44-1.07,2.74-2.25,4.04Z"/>
    <path class="cls-1" d="M581.66,308.69c.24-.81-.2-1.8.81-2.21.18-.07.52.1.7.26.83.74.08,1.51-.01,2.26-.03.26-.14.54-.3.75-.14.19-.39.39-.62.41-.49.05-.53-.39-.58-.73-.04-.26,0-.54,0-.74Z"/>
    <path class="cls-1" d="M585.05,279.98c.06-2.32.46-4.54,1.69-6.56l-.04-.03c-.33,2.25-.12,4.63-1.7,6.56l.05.03Z"/>
    <path class="cls-1" d="M587.12,284.68c0,.36.04.72-.01,1.07-.07.44-.21.91-.81.81-.44-.08-.46-.47-.43-.83.03-.35.11-.7.16-1.06.09-.62-.34-1.69.74-1.59.77.08.29,1.03.36,1.6Z"/>
    <path class="cls-1" d="M577.42,305c-.47.09-.58-.26-.66-.61-.15-.66.36-1.18.43-1.8.06-.54.14-1.22.87-.99.65.21.54.84.19,1.32-.46.62.28,1.71-.83,2.07Z"/>
    <path class="cls-1" d="M563.42,295.95c.06-2.23.18-3.77,1.36-5.16.58,1.83.44,2.43-1.36,5.16Z"/>
    <path class="cls-1" d="M584.13,301.41c.39.08.75.23.7.68-.07.64-.17,1.33-.96,1.46-.57.09-.81-.43-.86-.86-.1-.79.49-1.09,1.12-1.28Z"/>
    <path class="cls-1" d="M579.79,309.91c.05-1.07.11-2.15.18-3.46q1.16,1.61-.18,3.46Z"/>
    <path class="cls-1" d="M578.59,307.56c.66.95.62,1.83-.11,2.74-1.24-1.11-.28-1.9.11-2.74Z"/>
    <path class="cls-1" d="M576.4,306.62c.47.14.79.44.74.95-.05.52-.17,1.16-.79,1.22-.51.05-.68-.47-.71-.94-.03-.57.1-1.06.75-1.22Z"/>
    <path class="cls-1" d="M582.33,294.87c.25.02.59.3.59.8,0,.49-.33.82-.85.8-.5-.02-.86-.3-.85-.81,0-.5.32-.8,1.12-.79Z"/>
    <path class="cls-1" d="M585.24,291.12c-.47-1.19-.34-2.24.79-3.35.34,1.43-.46,2.34-.79,3.35Z"/>
    <path class="cls-1" d="M580.01,294.23c-.23.71-.72.78-1.29.64-.45-.11-.57-.47-.42-.8.2-.44.64-.6,1.12-.51.37.07.63.29.59.67Z"/>
    <path class="cls-1" d="M580.73,302.16c.48.03.61.4.57.76-.06.47-.32.85-.91.79-.45-.04-.67-.34-.59-.73.09-.46.38-.82.93-.82Z"/>
    <path class="cls-1" d="M581.52,299.26c-.31-.08-.7-.1-.67-.6.03-.49.28-.86.75-.94.37-.06.67.15.68.6,0,.51-.25.82-.76.93Z"/>
    <path class="cls-1" d="M582.57,294.02c-.4.05-.63-.13-.61-.42.04-.58.3-1.02.96-1.06.31-.02.51.17.54.46.08.71-.4.92-.89,1.02Z"/>
    <path class="cls-1" d="M585.43,293.31c.11-.36.26-.69.71-.64.58.07.67.52.63.98-.03.37-.19.71-.67.64-.55-.08-.68-.48-.67-.97Z"/>
    <path class="cls-1" d="M589.33,274.94c-.04.4-.22.76-.63.78-.3.02-.35-.33-.32-.6.04-.4.25-.75.64-.79.3-.02.31.34.31.6Z"/>
    <path class="cls-1" d="M580.62,300.76c-.03-.46.08-.78.51-.84.47-.06.64.31.65.65,0,.2-.22.54-.41.6-.35.11-.68-.05-.75-.41Z"/>
    <path class="cls-1" d="M586.74,273.42c-.02-.27-.08-.53-.06-.8.03-.37.22-.78.63-.63.52.2.15.59-.03.85-.15.21-.39.36-.58.54,0,0,.04.03.04.03Z"/>
    <path class="cls-1" d="M587.67,280.74s-.07.29-.41.21c-.27-.06-.43-.24-.34-.54.07-.25.22-.47.52-.42.27.05.4.25.23.75Z"/>
    <path class="cls-1" d="M570.23,292.13c0-.17-.04-.34,0-.5.04-.2.15-.38.23-.57.02.23.09.46.06.67-.02.14-.21.25-.32.37,0,0,.04.03.04.03Z"/>
    <path class="cls-1" d="M562.73,297.34c.06-.34.06-.7.19-1.01.09-.2.37-.46.55-.45.19,0,.4.27.38.58-.03.53-.11,1.04-.42,1.49-.23-.21-.46-.41-.7-.61Z"/>
    <path class="cls-1" d="M586.95,289.36c.39.05.55.32.61.67.08.48-.07.88-.58.95-.16.02-.47-.15-.51-.5-.05-.48.08-.85.48-1.12Z"/>
    <path class="cls-1" d="M579.54,255.75c.02-.18.03-.36.05-.53.03-.18.07-.35.1-.52.4.12.22.41.15.62-.05.15-.23.27-.34.4,0,0,.04.04.04.04Z"/>
    <path class="cls-1" d="M585,279.95c.04.08.1.16.12.24.08.37.03.71-.26.98-.02.02-.2-.07-.22-.13-.16-.46-.16-.88.41-1.06,0,0-.05-.03-.05-.03Z"/>
    <path class="cls-1" d="M562.18,298.99c.07-.59.11-1.18.55-1.65.23.2.46.41.69.61,0,.57-.17,1.09-.51,1.54-.24-.17-.49-.34-.73-.51Z"/>
    <path class="cls-1" d="M579.05,256.94c0-.46.1-.88.49-1.19,0,0-.04-.04-.04-.04-.17.39-.33.79-.49,1.19,0,0,.04.04.04.04Z"/>
    <path class="cls-1" d="M565.04,252.13c-.34,1.29-1.35,1.07-2.23,1.05-9.44-.17-18.86.39-28.29.44-.8,0-1.65-.17-2.43.3.74.62,1.59.3,2.37.29,8.7-.05,17.4-.12,26.1-.19.46,0,.92-.02,1.37.02.35.03.75.03.87.5.11.44-.19.67-.49.87-1.57,1.02-3.25,1.61-5.16,1.59-4.12-.05-8.24-.02-12.37,0-10.26.03-20.52.06-30.78.08-1.36,0-2.75.14-4.06-.45-.48-.22-1.09-.3-1.15-1.21,1.49-.72,3.3.05,4.81-1.17-1.74,0-3.48.01-5.22,0-1-.01-2.51.07-2.5-1.06.01-1.41,1.6-.78,2.44-.79,18.04-.26,36.08-.47,54.12-.66.87,0,1.81-.25,2.59.42Z"/>
    <path class="cls-1" d="M489.47,236.46c30.42-1.51,60.8.53,91.41.56-.69,1.47-1.71,1.18-2.56,1.16-5.49-.11-10.99-.29-16.48-.4-14.1-.27-28.2-.67-42.31-.88-8.16-.12-16.29.31-24.44.4-1.37.01-2.75.06-4.12.03-.62-.01-1.31-.04-1.5-.86Z"/>
    <path class="cls-1" d="M578.52,239.89c-27.98.59-55.95.72-83.98.4.56-.5.19-2.56,1.96-.96.32.29,1.34.24,1.98.24,17.2-.02,34.4-.11,51.6-.21,8.06-.05,16.1.69,24.16.45,1.43-.04,2.86-.03,4.27.08Z"/>
    <path class="cls-1" d="M493.76,239.17c-.07.28-.17.52-.51.47-.48-.07-.84-.3-.87-.8,0-.07.45-.26.68-.24.32.03.73.09.71.57Z"/>
    <path class="cls-1" d="M504.14,279.16c0-3.57-.03-7.14.02-10.71.01-.95-.14-2.39,1.04-2.47,1.54-.1,1.38,1.42,1.37,2.47-.08,6.5-.2,12.99-.32,19.49,0,.45-.07.92-.17,1.36-.2.89.26,2.35-1.29,2.23-1.33-.11-.85-1.41-.86-2.22-.05-3.39-.02-6.77-.02-10.16.08,0,.16,0,.24,0Z"/>
    <path class="cls-1" d="M482.73,253.51c.95.68.89,1.42.91,2.14.59,16.35.35,32.78-.76,35.76-.64-2.23-.31-3.99-.32-5.7,0-1.74.08-3.48.11-5.21.02-1.83.02-3.66.02-5.49,0-1.74-.02-3.48-.02-5.21,0-1.83,0-3.66.01-5.49,0-1.74.04-3.48.04-5.22,0-1.79,0-3.58,0-5.57Z"/>
    <path class="cls-1" d="M480.49,291.07c-1.43-.58-1.12-1.62-1.12-2.45,0-3.02-.13-6.06.14-9.07.63-6.77.22-13.55.47-20.32.1-2.65-.08-5.31.49-7.93.04-.21.07-.36.63-.48-1.27,13.39-.26,26.74-.61,40.24Z"/>
    <path class="cls-1" d="M487.64,256.32c-1.08,10.39-.94,20.83-.98,31.25,0,.91-.07,1.83-.18,2.73-.03.22-.3.44-.62.42-.33-.02-.5-.24-.52-.5-.06-.82-.07-1.64-.07-2.47-.07-7.05.52-14.09.73-21.13.08-2.67.38-5.43.71-8.13.1-.79.15-1.66.98-2.15l-.04-.03Z"/>
    <path class="cls-1" d="M489.5,262.34c1.02,5.07.77,25.35-.22,27.93-.83-1.43-1-4.44-.37-9.17.42-3.11.29-6.22.29-9.33,0-3.15-.26-6.31.3-9.43Z"/>
    <path class="cls-1" d="M492.25,251.73c.46.32.46.69.47,1.05.04,11.15.08,22.3.1,33.46,0,1.09-.1,2.19-.19,3.28-.04.48-.26.93-.83.84-.4-.07-.47-.51-.47-.86.03-1.37-.04-2.76.14-4.11.45-3.28.4-6.57.4-9.86,0-7.49-.08-14.99-.13-22.48,0-.46,0-.92.5-1.32Z"/>
    <path class="cls-1" d="M495.01,274.73c1.03.46.94,1.25.94,1.95,0,4.3-.04,8.61-.06,12.91,0,.45.04,1.04-.49,1.13-.82.14-.78-.6-.78-1.09-.01-4.21,0-8.43.03-12.64,0-.72-.11-1.47.37-2.27Z"/>
    <path class="cls-1" d="M487.68,256.35c.02-.23.05-.45.07-.68.1.05.29.1.3.16.04.29-.15.43-.42.48,0,0,.04.03.04.03Z"/>
    <path class="cls-1" d="M121.62,277.84c0,4.57,0,9.13,0,13.7.02,6.95.05,13.9.07,20.85,0,.37.01.74-.04,1.09-.04.26-.15.54-.49.54-.48,0-.59-.37-.61-.72-.07-1.05.42-1.98.32-3.14-.33-3.68-.15-7.41-.27-11.11-.22-7.05.38-14.06,1.02-21.22Z"/>
    <path class="cls-1" d="M140.67,283.28c.7,10.34.6,20.72-.05,31.1-.5-10.35-.32-20.7.05-31.1Z"/>
    <path class="cls-1" d="M126.24,283.89c.36,8.47.67,16.86,0,25.24v-25.24Z"/>
    <path class="cls-1" d="M118.07,304.83c-.36-3.68-1.04-7.13-.3-10.6l.56-.05c.02,1.09.04,2.18.06,3.27.02,1.28-.02,2.57.07,3.85.08,1.13.66,2.28-.39,3.53Z"/>
    <path class="cls-1" d="M128.92,308.71v-11.28c.81,3.76.56,7.53.54,11.3-.18,0-.36-.01-.54-.02Z"/>
    <path class="cls-1" d="M94.48,256.35c.15.75-.16,1.41-.53,2.39,3.15-1.01,6.13-1.84,8.98-3.09.75-.33,1.54-.58,2.34-.75,1.52-.32,1.66-.12,1.21,1.43-.07.24-.06.51-.09.88,2.38.25,4.6-.9,7.07-.65-.83,1.54-2.35,1.06-3.46,1.6.27.65.88.15,1.27.38,1.09.66,1.13,1.59.03,2.24-2.34,1.38-4.78,2.56-7.74,3.42,1.76.68,3.08-1,4.51.07-.15,1.01-.69,1.77-1.51,2.42-5.05,4.03-10.77,6.47-17.17,7.28-1.69.21-2.05-.12-1.8-1.75.16-1.01.1-1.93-.11-2.91-.18-.84-.52-1.85.44-2.52.46-.32.27-.55,0-.81-.59-.59-.25-1.16-.03-1.77.18-.51,1.83-1.26-.24-1.5-.3-.03-.2-.92.36-.99.99-.12,2.01-.09,3.01-.1.72,0,1.49.12,1.81-1.17-1.28.16-2.46.31-3.63.46-.54.07-1.16.21-1.31-.52-.16-.74.23-1.23.99-1.34.54-.08,1.11-.04,1.48-.55,0,0-.04.04-.04.04.23-.07.46-.16.7-.2.37-.06.76-.3.68-.6-.09-.35-.57-.24-.9-.22.98-1.14,2.28-1.34,3.68-1.19ZM107.63,258.1c-3.85.35-6.87,1.2-8.18,2.26,2.7-.41,5.11-1.53,8.18-2.26Z"/>
    <path class="cls-1" d="M102.11,248.12c-.51.69-1.16,1.12-2.05,1.22-1.33.15-2.07,1.21-2.98,2.1,6.4-1.12,12.34-4,18.84-4.7-.39,1.03-1.26,1.18-2.06,1.44-6.4,2.04-12.8,4.1-19.22,6.1-1.28.4-2.68,1.2-3.92-.18.24-.14.31-.32.14-.56,0,0,.02.14.02.14-.19-.83.41-1.03.97-1.38.94-.59.13-.73-.32-.92,3.36-1.48,6.64-3.18,10.26-3.98.11.24.21.48.32.72Z"/>
    <path class="cls-1" d="M102.47,246.94c4.26-1.89,8.9-2.26,13.41-3.22-1.69,1.42-3.81,1.7-5.81,2.27-2.1.6-4.24,1.11-6.36,1.66-.3-.45-.79-.55-1.25-.71Z"/>
    <path class="cls-1" d="M101.14,254.17c.03-.21.06-.42.09-.63q1.84-1.06,3.66-1.03c-1.13,1.29-1.43,1.42-3.75,1.66Z"/>
    <path class="cls-1" d="M89.46,257.77c.37.04.74.09,1.1.13-.08.22-.17.43-.25.64,0,0,.04-.04.04-.04-.45-.07-.85-.19-.9-.74Z"/>
    <path class="cls-1" d="M102.8,248.1c.24-.26.5-.49.89-.44-.1.54-.47.54-.89.44Z"/>
    <path class="cls-1" d="M229.79,447.47c-.26.07-.5.21-.57.15-.48-.45-1.55-.06-1.6-1.09,0-.1.26-.28.41-.29.92-.08,1.51.31,1.75,1.24Z"/>
    <path class="cls-1" d="M232.47,447.45c.27.07.44.23.34.51-.04.13-.21.25-.35.29-.3.1-.48-.08-.48-.37,0-.28.19-.44.48-.44Z"/>
    <path class="cls-1" d="M382.56,447.28c-.05-1.14.55-2.05.95-3.39q.34,1.79-.99,3.36s.04.03.04.03Z"/>
    <path class="cls-1" d="M385.06,441.11c.4.74.09,1.35-.25,1.92-.26.14-.42.08-.46-.16-.11-.71-.25-1.44.71-1.76Z"/>
    <path class="cls-1" d="M385.85,439.53c-.78-.54-.71-1.08,0-1.63,0,0-.04-.03-.04-.03,0,.56,0,1.12,0,1.69l.03-.03Z"/>
    <path class="cls-1" d="M385.82,439.56c.07.04.21.1.2.12-.04.16-.11.1-.17-.15,0,0-.03.03-.03.03Z"/>
    <path class="cls-1" d="M393.09,446.95c-.3-1.41-.21-2.61.12-3.82q2.1.57,1.14,2.06c-.33.51-.39,1.19-1.26,1.76Z"/>
    <path class="cls-1" d="M396.39,440.94c-2.5.2-2.66.08-2.25-1.56.15-.61.36-1.23.66-1.77.18-.33.61-.31.95-.06.23.17.43.51.22.67-1.13.88-.53,1.67.42,2.72Z"/>
    <path class="cls-1" d="M397.41,434.18c-.02.33-.2.66-.42.59-.63-.18-1.52.01-1.76-.89-.09-.35.12-.76.55-.74.74.03,1.4.26,1.63,1.04Z"/>
    <path class="cls-1" d="M530.04,445.63c-.21-2.03.23-3.94,1.02-5.97.73,1.93.42,3.5-1.06,5.95,0,0,.04.03.04.03Z"/>
    <path class="cls-1" d="M543.89,444.61c.28.2.24.49.08.67-.34.39-.04,1.09-.67,1.32q-.28-1,.59-1.99Z"/>
  </g>
</svg>